<?xml version="1.0" encoding="UTF-8" standalone="no"?>
<svg xmlns="http://www.w3.org/2000/svg" version="1.2" baseProfile="tiny" viewBox="0 0 528 432">
<path fill="none" stroke-width="1.00" stroke="#f4f4f4" vector-effect="non-scaling-stroke" d="
  M 52.56 27.02
  L 55.81 21.53
  L 60.06 16.44
  L 64.63 12.63
  L 69.01 10.54
  L 82.06 7.91
  L 94.72 7.46
  L 100.02 8.06
  L 105.07 9.25
  L 109.35 10.94
  L 113.20 13.26
  L 118.55 16.34
  L 123.25 16.49
  L 143.15 14.64
  L 160.37 14.03
  L 197.44 14.02
  L 228.51 16.76
  L 231.06 16.27
  L 234.09 14.30
  L 237.99 11.70
  L 242.42 9.78
  L 247.44 8.43
  L 253.36 7.62
  L 259.86 7.44
  L 266.88 7.91
  L 280.42 10.58
  L 285.45 13.15
  L 290.45 17.83
  L 295.16 24.52
  L 298.51 31.75
  L 308.86 63.94
  L 316.66 92.81
  L 322.30 119.79
  L 325.86 145.48
  L 326.44 156.12
  L 326.05 166.65
  L 324.72 176.34
  L 322.49 185.18
  L 319.36 193.06
  L 315.47 199.71
  L 310.57 205.49
  L 305.07 209.89
  L 305.07 209.89
  L 299.40 212.90
  L 292.90 215.00
  L 287.48 215.82
  L 282.33 215.75
  L 282.33 215.75
  L 282.33 215.75
  L 282.33 215.75
  L 282.33 215.75
  L 276.63 214.66
  L 271.26 212.62
  L 266.00 209.62
  L 260.59 205.48
  L 255.36 200.47
  L 250.08 194.43
  L 237.59 177.08
  L 234.17 172.07
  L 231.79 169.26
  L 229.00 167.32
  L 229.00 167.32
  L 226.48 166.47
  L 223.54 166.18
  L 216.97 165.69
  L 208.81 164.12
  L 199.06 162.36
  L 186.94 161.97
  L 152.00 162.01
  L 141.49 163.95
  L 133.74 165.65
  L 128.12 165.90
  L 124.38 165.93
  L 121.29 166.74
  L 121.29 166.74
  L 117.34 169.41
  L 113.26 174.38
  L 110.08 178.94
  L 110.08 178.94
  L 97.99 195.36
  L 92.93 201.04
  L 87.94 205.78
  L 82.75 209.72
  L 77.73 212.58
  L 72.58 214.58
  L 67.10 215.71
  L 67.10 215.71
  L 60.33 215.77
  L 53.08 214.31
  L 45.83 211.21
  L 45.83 211.21
  L 45.83 211.21
  L 45.83 211.21
  L 40.25 207.29
  L 35.54 202.48
  L 31.52 196.71
  L 28.07 189.76
  L 25.41 181.94
  L 23.55 173.23
  L 22.59 164.24
  L 22.51 154.99
  L 24.72 131.03
  L 29.56 104.52
  L 37.08 75.14
  L 48.45 38.19
  L 52.56 27.02
  Z
  M 275.98 53.00
  L 274.99 48.03
  L 272.18 43.82
  L 267.97 41.01
  L 263.00 40.02
  L 258.03 41.01
  L 253.82 43.82
  L 251.01 48.03
  L 250.02 53.00
  L 251.01 57.97
  L 253.82 62.18
  L 258.03 64.99
  L 263.00 65.98
  L 267.97 64.99
  L 272.18 62.18
  L 274.99 57.97
  L 275.98 53.00
  Z
  M 151.9599 57.5635
  L 151.0222 54.7092
  L 148.3318 52.2828
  L 144.2984 50.6538
  L 139.5360 50.0700
  L 134.7696 50.6205
  L 130.7250 52.2214
  L 128.0177 54.6289
  L 127.0601 57.4765
  L 127.9978 60.3308
  L 130.6882 62.7572
  L 134.7216 64.3862
  L 139.4840 64.9700
  L 144.2504 64.4195
  L 148.2950 62.8186
  L 151.0023 60.4111
  L 151.9599 57.5635
  Z
  M 207.25 63.96
  L 211.60 63.58
  L 214.50 61.54
  L 216.40 59.23
  L 216.93 56.92
  L 216.93 56.92
  L 216.93 56.92
  L 215.77 54.13
  L 212.82 51.93
  L 208.70 50.46
  L 204.58 49.96
  L 204.58 49.96
  L 200.26 50.48
  L 195.93 52.06
  L 193.21 54.00
  L 192.12 56.17
  L 192.12 56.17
  L 192.51 58.71
  L 194.23 61.01
  L 197.10 62.92
  L 200.43 63.81
  L 201.13 63.86
  L 207.25 63.96
  Z
  M 102.87 73.46
  L 102.44 69.09
  L 101.16 64.88
  L 99.09 61.00
  L 96.30 57.61
  L 92.91 54.82
  L 89.03 52.75
  L 84.82 51.47
  L 80.45 51.04
  L 76.08 51.47
  L 71.87 52.75
  L 67.99 54.82
  L 64.60 57.61
  L 61.81 61.00
  L 59.74 64.88
  L 58.46 69.09
  L 58.03 73.46
  L 58.46 77.83
  L 59.74 82.04
  L 61.81 85.92
  L 64.60 89.31
  L 67.99 92.10
  L 71.87 94.17
  L 76.08 95.45
  L 80.45 95.88
  L 84.82 95.45
  L 89.03 94.17
  L 92.91 92.10
  L 96.30 89.31
  L 99.09 85.92
  L 101.16 82.04
  L 102.44 77.83
  L 102.87 73.46
  Z
  M 185.9882 75.3109
  L 185.2129 70.1010
  L 182.4291 65.5653
  L 178.0606 62.3944
  L 172.7725 61.0710
  L 167.3698 61.7967
  L 162.6751 64.4609
  L 159.4030 68.6580
  L 158.0518 73.7491
  L 158.8271 78.9590
  L 161.6109 83.4947
  L 165.9794 86.6656
  L 171.2675 87.9890
  L 176.6702 87.2633
  L 181.3649 84.5991
  L 184.6370 80.4020
  L 185.9882 75.3109
  Z
  M 254.00 73.52
  L 253.05 68.74
  L 250.34 64.69
  L 246.29 61.98
  L 241.51 61.03
  L 236.73 61.98
  L 232.68 64.69
  L 229.97 68.74
  L 229.02 73.52
  L 229.97 78.30
  L 232.68 82.35
  L 236.73 85.06
  L 241.51 86.01
  L 246.29 85.06
  L 250.34 82.35
  L 253.05 78.30
  L 254.00 73.52
  Z
  M 295.99 74.48
  L 295.12 70.09
  L 292.63 66.36
  L 288.90 63.87
  L 284.51 63.00
  L 280.12 63.87
  L 276.39 66.36
  L 273.90 70.09
  L 273.03 74.48
  L 273.90 78.87
  L 276.39 82.60
  L 280.12 85.09
  L 284.51 85.96
  L 288.90 85.09
  L 292.63 82.60
  L 295.12 78.87
  L 295.99 74.48
  Z
  M 274.97 95.49
  L 274.02 90.72
  L 271.32 86.67
  L 267.27 83.97
  L 262.50 83.02
  L 257.73 83.97
  L 253.68 86.67
  L 250.98 90.72
  L 250.03 95.49
  L 250.98 100.26
  L 253.68 104.31
  L 257.73 107.01
  L 262.50 107.96
  L 267.27 107.01
  L 271.32 104.31
  L 274.02 100.26
  L 274.97 95.49
  Z
  M 120.50 147.21
  L 123.95 147.52
  L 127.75 147.21
  L 131.43 146.89
  L 131.94 146.35
  L 131.99 132.05
  L 132.31 131.29
  L 133.10 130.96
  L 147.44 130.71
  L 147.99 130.17
  L 148.31 121.96
  L 147.88 113.64
  L 147.33 113.13
  L 132.61 112.92
  L 132.10 112.42
  L 132.03 97.73
  L 131.32 97.01
  L 131.32 97.01
  L 114.53 97.03
  L 114.03 97.53
  L 114.01 112.51
  L 114.01 112.51
  L 113.48 113.03
  L 99.60 113.10
  L 99.09 113.62
  L 99.04 130.34
  L 99.76 131.03
  L 113.40 131.11
  L 113.91 131.62
  L 114.05 146.37
  L 114.55 146.98
  L 120.50 147.21
  Z
  M 243.94 122.51
  L 243.52 118.33
  L 242.27 114.31
  L 240.24 110.60
  L 237.51 107.35
  L 234.19 104.68
  L 230.40 102.70
  L 226.28 101.48
  L 222.00 101.07
  L 217.72 101.48
  L 213.60 102.70
  L 209.81 104.68
  L 206.49 107.35
  L 203.76 110.60
  L 201.73 114.31
  L 200.48 118.33
  L 200.06 122.51
  L 200.48 126.69
  L 201.73 130.71
  L 203.76 134.42
  L 206.49 137.67
  L 209.81 140.34
  L 213.60 142.32
  L 217.72 143.54
  L 222.00 143.95
  L 226.28 143.54
  L 230.40 142.32
  L 234.19 140.34
  L 237.51 137.67
  L 240.24 134.42
  L 242.27 130.71
  L 243.52 126.69
  L 243.94 122.51
  Z"
/>
<path fill="none" stroke-width="1.00" stroke="#f4f4f4" vector-effect="non-scaling-stroke" d="
  M 422.00 19.29
  L 422.50 20.18
  L 424.00 20.21
  L 426.94 20.62
  L 427.30 20.56
  L 427.22 20.23
  L 426.49 19.01
  L 433.32 18.69
  L 439.87 19.11
  L 446.14 20.26
  L 452.13 22.14
  L 452.13 22.14
  L 457.30 24.47
  L 462.24 27.41
  L 466.94 30.94
  L 471.42 35.07
  L 474.56 38.72
  L 474.56 38.72
  L 474.56 38.72
  L 477.64 43.64
  L 479.89 48.92
  L 481.45 54.69
  L 482.39 61.33
  L 482.65 68.35
  L 482.30 76.13
  L 479.56 97.02
  L 478.48 104.00
  L 477.15 119.74
  L 477.58 137.00
  L 478.04 142.70
  L 478.04 142.70
  L 479.00 159.24
  L 478.31 170.97
  L 475.84 181.05
  L 473.91 185.46
  L 471.39 189.67
  L 471.39 189.67
  L 471.39 189.67
  L 471.39 189.67
  L 471.01 190.20
  L 466.27 195.60
  L 460.69 200.00
  L 454.17 203.59
  L 446.53 206.42
  L 438.05 208.33
  L 428.80 209.30
  L 419.43 209.27
  L 409.99 208.27
  L 404.00 206.98
  L 398.23 205.08
  L 392.79 202.58
  L 387.74 199.49
  L 383.31 195.94
  L 379.42 191.87
  L 376.31 187.55
  L 373.82 182.77
  L 373.82 182.77
  L 373.82 182.77
  L 373.82 182.77
  L 371.57 175.68
  L 370.59 169.39
  L 370.18 162.42
  L 371.05 143.71
  L 371.05 143.71
  L 371.94 127.32
  L 371.50 113.96
  L 370.00 100.43
  L 367.42 82.49
  L 366.58 63.66
  L 367.11 56.74
  L 368.29 50.97
  L 371.87 42.25
  L 377.13 34.73
  L 377.13 34.73
  L 377.13 34.73
  L 381.43 30.51
  L 386.34 26.94
  L 391.80 24.06
  L 397.75 21.93
  L 407.44 19.21
  L 411.17 18.47
  L 416.09 18.40
  L 422.00 19.29
  Z
  M 424.00 30.96
  L 422.52 31.29
  L 418.74 33.59
  L 415.63 38.08
  L 413.67 44.21
  L 413.02 51.07
  L 413.68 57.92
  L 415.64 64.02
  L 418.74 68.47
  L 422.49 70.72
  L 422.49 70.72
  L 424.00 71.04
  L 424.12 106.39
  L 424.49 107.03
  L 424.62 106.56
  L 425.02 77.16
  L 425.00 71.04
  L 425.14 70.99
  L 429.11 68.47
  L 432.36 63.88
  L 434.38 57.78
  L 435.03 51.00
  L 434.32 44.22
  L 432.26 38.12
  L 428.98 33.51
  L 425.00 30.96
  L 424.94 29.26
  L 424.43 20.80
  L 424.38 20.79
  L 424.02 21.25
  L 424.00 30.96
  Z"
/>
<path fill="none" stroke-width="1.00" stroke="#f4f4f4" vector-effect="non-scaling-stroke" d="
  M 426.49 19.01
  L 427.22 20.23
  L 427.30 20.56
  L 426.94 20.62
  L 424.00 20.21
  L 423.00 19.29
  L 426.49 19.01
  Z"
/>
<path fill="none" stroke-width="1.00" stroke="#f4f4f4" vector-effect="non-scaling-stroke" d="
  M 422.00 19.29
  L 423.00 19.29
  L 424.00 20.21
  L 422.50 20.18
  L 422.00 19.29
  Z"
/>
<path fill="none" stroke-width="1.00" stroke="#f4f4f4" vector-effect="non-scaling-stroke" d="
  M 425.00 30.96
  L 424.00 30.96
  L 424.02 21.25
  L 424.38 20.79
  L 424.43 20.80
  L 424.94 29.26
  L 425.00 30.96
  Z"
/>
<path fill="none" stroke-width="1.00" stroke="#f4f4f4" vector-effect="non-scaling-stroke" d="
  M 214.50 61.54
  L 211.60 63.58
  L 207.25 63.96
  L 214.50 61.54
  Z"
/>
<path fill="none" stroke-width="1.00" stroke="#f4f4f4" vector-effect="non-scaling-stroke" d="
  M 424.00 71.04
  L 425.00 71.04
  L 425.02 77.16
  L 424.62 106.56
  L 424.49 107.03
  L 424.12 106.39
  L 424.00 71.04
  Z"
/>
<path fill="none" stroke-width="1.00" stroke="#f4f4f4" vector-effect="non-scaling-stroke" d="
  M 127.75 147.21
  L 123.95 147.52
  L 120.50 147.21
  L 124.01 146.83
  L 127.75 147.21
  Z"
/>
<path fill="none" stroke-width="1.00" stroke="#f4f4f4" vector-effect="non-scaling-stroke" d="
  M 506.96 230.50
  L 505.02 230.11
  L 502.31 229.67
  L 249.01 229.94
  L 24.54 230.08
  L 23.36 230.17
  L 21.12 230.80
  L 20.54 231.00
  L 23.04 229.59
  L 25.00 229.12
  L 317.83 229.50
  L 504.00 229.52
  L 505.54 229.76
  L 506.96 230.50
  Z"
/>
<path fill="none" stroke-width="1.00" stroke="#f4f4f4" vector-effect="non-scaling-stroke" d="
  M 506.96 230.50
  L 509.86 232.36
  L 511.79 235.25
  L 512.26 262.75
  L 512.59 265.48
  L 513.44 267.77
  L 513.94 396.75
  L 513.08 403.52
  L 511.98 406.11
  L 510.37 408.19
  L 510.37 408.19
  L 510.37 408.19
  L 510.37 408.19
  L 506.04 410.68
  L 499.75 411.50
  L 24.75 411.50
  L 22.90 411.29
  L 22.90 411.29
  L 19.60 409.68
  L 17.08 406.88
  L 15.28 402.93
  L 14.65 398.75
  L 14.85 310.27
  L 14.94 293.00
  L 15.94 279.69
  L 15.88 273.91
  L 16.63 234.24
  L 20.54 231.00
  L 21.12 230.80
  L 23.36 230.17
  L 24.54 230.08
  L 249.01 229.94
  L 502.31 229.67
  L 505.02 230.11
  L 506.96 230.50
  Z
  M 54.9270 250.0066
  L 54.0409 247.8884
  L 51.9165 247.0171
  L 33.0166 247.0831
  L 30.8984 247.9691
  L 30.0271 250.0935
  L 30.0930 268.9734
  L 30.9791 271.0916
  L 33.1035 271.9629
  L 52.0034 271.8969
  L 54.1216 271.0109
  L 54.9929 268.8865
  L 54.9270 250.0066
  Z
  M 341.92 266.94
  L 341.96 266.39
  L 341.96 266.39
  L 342.33 259.14
  L 341.93 254.30
  L 341.83 253.98
  L 341.80 254.31
  L 341.86 266.94
  L 341.87 267.30
  L 341.92 266.94
  Z
  M 327.94 395.20
  L 331.53 395.37
  L 333.94 395.66
  L 335.19 395.46
  L 335.99 393.18
  L 335.99 289.94
  L 335.51 288.49
  L 334.07 288.01
  L 32.33 288.01
  L 30.59 288.59
  L 30.01 290.33
  L 30.01 393.26
  L 30.52 394.50
  L 31.76 395.02
  L 31.76 395.02
  L 327.94 395.20
  Z
  M 498.99 289.74
  L 498.48 288.50
  L 497.24 287.99
  L 414.74 287.99
  L 413.50 288.50
  L 412.99 289.74
  L 412.99 393.24
  L 413.50 394.48
  L 414.74 394.99
  L 497.24 394.99
  L 498.48 394.48
  L 498.99 393.24
  L 498.99 289.74
  Z"
/>
<path fill="none" stroke-width="1.00" stroke="#f4f4f4" vector-effect="non-scaling-stroke" d="
  M 16.63 234.24
  L 15.88 273.91
  L 15.94 279.69
  L 14.94 293.00
  L 14.53 270.68
  L 14.79 239.75
  L 16.63 234.24
  Z"
/>
<path fill="none" stroke-width="1.00" stroke="#f4f4f4" vector-effect="non-scaling-stroke" d="
  M 511.79 235.25
  L 513.42 238.68
  L 513.48 238.96
  L 513.00 264.58
  L 513.35 265.00
  L 513.35 265.00
  L 513.71 265.00
  L 513.44 267.77
  L 512.59 265.48
  L 512.26 262.75
  L 511.79 235.25
  Z"
/>
<path fill="none" stroke-width="1.00" stroke="#f4f4f4" vector-effect="non-scaling-stroke" d="
  M 513.48 238.96
  L 513.93 254.27
  L 513.71 265.00
  L 513.35 265.00
  L 513.35 265.00
  L 513.00 264.58
  L 513.48 238.96
  Z"
/>
<path fill="none" stroke-width="1.00" stroke="#f4f4f4" vector-effect="non-scaling-stroke" d="
  M 54.9929 268.8865
  L 54.1216 271.0109
  L 52.0034 271.8969
  L 33.1035 271.9629
  L 30.9791 271.0916
  L 30.0930 268.9734
  L 30.0271 250.0935
  L 30.8984 247.9691
  L 33.0166 247.0831
  L 51.9165 247.0171
  L 54.0409 247.8884
  L 54.9270 250.0066
  L 54.9929 268.8865
  Z
  M 32.33 269.04
  L 31.86 269.78
  L 31.86 269.78
  L 33.11 270.51
  L 37.00 270.89
  L 51.37 270.39
  L 52.86 269.75
  L 53.53 268.24
  L 54.03 259.23
  L 53.32 250.46
  L 52.60 248.37
  L 51.77 248.00
  L 32.74 248.01
  L 32.00 248.73
  L 32.00 248.73
  L 32.33 269.04
  Z"
/>
<path fill="none" stroke-width="1.00" stroke="#f4f4f4" vector-effect="non-scaling-stroke" d="
  M 147.94 259.27
  L 147.93 258.93
  L 148.09 255.08
  L 148.92 253.60
  L 149.59 253.75
  L 149.98 254.55
  L 150.02 264.16
  L 150.01 268.01
  L 149.18 270.68
  L 147.43 271.71
  L 144.96 271.98
  L 68.23 271.99
  L 65.87 271.21
  L 65.04 268.84
  L 65.15 250.55
  L 66.10 247.88
  L 67.30 247.16
  L 69.00 246.92
  L 145.11 247.01
  L 148.05 247.49
  L 149.55 248.67
  L 149.55 248.67
  L 149.96 249.95
  L 149.77 251.68
  L 149.77 251.70
  L 149.20 251.87
  L 147.77 251.32
  L 147.72 251.31
  L 147.20 251.77
  L 146.99 257.59
  L 147.53 259.74
  L 147.57 259.75
  L 147.94 259.27
  Z"
/>
<path fill="none" stroke-width="1.00" stroke="#f4f4f4" vector-effect="non-scaling-stroke" d="
  M 241.97 269.81
  L 241.33 271.35
  L 239.79 271.99
  L 160.17 271.99
  L 158.63 271.35
  L 157.99 269.81
  L 157.99 249.17
  L 158.63 247.63
  L 160.17 246.99
  L 239.79 246.99
  L 241.33 247.63
  L 241.97 249.17
  L 241.97 269.81
  Z"
/>
<path fill="none" stroke-width="1.00" stroke="#f4f4f4" vector-effect="non-scaling-stroke" d="
  M 251.70 271.57
  L 250.70 270.65
  L 250.27 269.17
  L 250.04 250.48
  L 250.95 247.84
  L 253.56 246.97
  L 331.97 247.03
  L 333.51 247.54
  L 334.09 249.09
  L 334.89 268.45
  L 334.10 271.12
  L 331.51 271.99
  L 253.33 272.00
  L 252.51 271.90
  L 251.70 271.57
  Z"
/>
<path fill="none" stroke-width="1.00" stroke="#f4f4f4" vector-effect="non-scaling-stroke" d="
  M 405.80 250.24
  L 405.17 248.41
  L 403.04 247.88
  L 390.36 248.13
  L 386.39 248.08
  L 377.38 248.07
  L 346.75 248.20
  L 344.84 248.48
  L 343.39 249.28
  L 342.11 251.24
  L 341.53 251.94
  L 341.44 251.95
  L 341.03 250.13
  L 342.20 247.97
  L 345.06 247.00
  L 404.70 247.03
  L 406.44 247.62
  L 407.03 249.34
  L 407.14 254.45
  L 406.86 270.48
  L 406.31 271.56
  L 405.17 272.00
  L 351.25 272.01
  L 350.64 272.03
  L 344.03 271.72
  L 342.30 271.11
  L 341.36 270.07
  L 341.36 270.07
  L 341.36 270.07
  L 341.37 269.04
  L 341.39 268.99
  L 341.98 268.83
  L 344.81 269.98
  L 403.02 269.97
  L 405.26 269.21
  L 405.90 267.22
  L 405.80 250.24
  Z"
/>
<path fill="none" stroke-width="1.00" stroke="#f4f4f4" vector-effect="non-scaling-stroke" d="
  M 83.15 250.13
  L 83.98 251.30
  L 83.97 252.08
  L 84.21 261.34
  L 85.79 268.23
  L 85.80 268.70
  L 85.63 268.77
  L 85.11 268.41
  L 83.72 267.45
  L 80.49 266.84
  L 70.48 267.10
  L 69.65 267.52
  L 68.93 268.39
  L 68.35 268.69
  L 68.34 268.68
  L 68.19 268.47
  L 68.30 267.98
  L 69.91 262.75
  L 70.08 254.71
  L 70.08 254.71
  L 70.01 251.95
  L 70.47 250.42
  L 71.85 249.69
  L 77.83 249.19
  L 83.15 250.13
  Z"
/>
<path fill="none" stroke-width="1.00" stroke="#f4f4f4" vector-effect="non-scaling-stroke" d="
  M 103.22 249.98
  L 103.83 250.67
  L 103.99 251.77
  L 104.64 258.32
  L 104.63 259.45
  L 104.93 263.65
  L 106.33 268.28
  L 106.38 268.51
  L 106.16 268.40
  L 101.95 267.02
  L 94.28 266.95
  L 92.12 267.02
  L 90.61 267.26
  L 88.87 268.33
  L 88.74 268.43
  L 88.49 268.54
  L 88.51 268.27
  L 88.88 267.08
  L 89.78 262.44
  L 90.06 256.46
  L 90.06 256.46
  L 90.28 250.88
  L 90.80 250.23
  L 97.19 249.17
  L 103.22 249.98
  Z"
/>
<path fill="none" stroke-width="1.00" stroke="#f4f4f4" vector-effect="non-scaling-stroke" d="
  M 123.62 250.46
  L 124.76 252.06
  L 124.80 256.44
  L 124.80 256.44
  L 125.07 263.91
  L 126.63 268.31
  L 126.69 268.93
  L 126.56 268.99
  L 126.16 268.71
  L 125.05 267.45
  L 123.67 267.06
  L 115.13 267.02
  L 109.81 267.46
  L 109.39 267.07
  L 109.39 267.02
  L 110.27 259.83
  L 110.25 253.99
  L 110.91 250.93
  L 110.91 250.93
  L 110.91 250.93
  L 112.64 249.58
  L 115.71 248.98
  L 119.69 249.34
  L 123.62 250.46
  Z"
/>
<path fill="none" stroke-width="1.00" stroke="#f4f4f4" vector-effect="non-scaling-stroke" d="
  M 143.79 249.88
  L 144.89 251.22
  L 144.93 255.37
  L 145.20 262.72
  L 146.41 268.28
  L 146.44 268.58
  L 146.18 268.46
  L 144.83 267.35
  L 143.95 267.01
  L 140.89 266.93
  L 134.14 266.93
  L 129.73 267.77
  L 129.43 267.78
  L 129.43 267.47
  L 130.72 261.04
  L 130.66 252.50
  L 130.66 252.50
  L 130.63 251.88
  L 131.07 250.24
  L 132.59 249.50
  L 138.33 249.17
  L 143.79 249.88
  Z"
/>
<path fill="none" stroke-width="1.00" stroke="#f4f4f4" vector-effect="non-scaling-stroke" d="
  M 176.37 250.83
  L 176.59 251.12
  L 177.00 261.84
  L 177.02 262.84
  L 178.21 267.45
  L 178.51 268.27
  L 178.56 268.66
  L 178.24 268.51
  L 177.08 267.54
  L 176.28 267.11
  L 165.67 267.13
  L 161.94 267.50
  L 161.51 267.07
  L 162.17 259.31
  L 162.21 251.29
  L 162.48 250.41
  L 163.24 249.88
  L 166.82 249.21
  L 170.33 249.21
  L 170.33 249.21
  L 176.37 250.83
  Z"
/>
<path fill="none" stroke-width="1.00" stroke="#f4f4f4" vector-effect="non-scaling-stroke" d="
  M 183.56 266.98
  L 181.38 267.44
  L 181.38 267.44
  L 181.41 266.45
  L 182.45 264.50
  L 182.73 263.58
  L 182.74 250.54
  L 183.21 249.93
  L 189.96 249.20
  L 196.19 249.82
  L 196.86 250.62
  L 197.17 262.85
  L 198.01 266.43
  L 198.60 268.24
  L 198.60 268.61
  L 198.31 268.46
  L 197.16 267.44
  L 196.35 267.04
  L 187.49 267.00
  L 186.54 267.23
  L 185.52 267.41
  L 184.40 267.04
  L 183.56 266.98
  Z"
/>
<path fill="none" stroke-width="1.00" stroke="#f4f4f4" vector-effect="non-scaling-stroke" d="
  M 215.97 249.91
  L 217.00 251.30
  L 217.12 260.20
  L 217.48 264.75
  L 217.93 265.91
  L 218.55 267.55
  L 218.52 268.92
  L 217.34 267.52
  L 216.60 267.07
  L 203.23 267.31
  L 202.47 267.78
  L 201.69 268.48
  L 201.39 268.55
  L 201.44 268.21
  L 202.81 262.87
  L 203.21 255.03
  L 203.21 255.03
  L 203.33 250.61
  L 203.84 249.97
  L 211.23 249.16
  L 215.97 249.91
  Z"
/>
<path fill="none" stroke-width="1.00" stroke="#f4f4f4" vector-effect="non-scaling-stroke" d="
  M 236.86 249.92
  L 237.40 250.71
  L 236.89 255.88
  L 237.24 261.42
  L 238.51 266.97
  L 238.52 267.03
  L 238.17 267.39
  L 223.78 267.04
  L 222.93 267.42
  L 221.45 268.69
  L 221.17 268.83
  L 221.21 268.51
  L 221.80 267.04
  L 222.94 263.24
  L 222.99 262.31
  L 223.06 251.77
  L 223.57 250.42
  L 224.81 249.69
  L 230.43 249.25
  L 236.86 249.92
  Z"
/>
<path fill="none" stroke-width="1.00" stroke="#f4f4f4" vector-effect="non-scaling-stroke" d="
  M 254.22 268.20
  L 254.12 268.43
  L 253.67 268.73
  L 253.34 268.72
  L 253.34 268.33
  L 254.87 261.37
  L 254.81 251.99
  L 255.12 250.64
  L 256.25 249.82
  L 260.53 249.10
  L 260.53 249.10
  L 264.67 249.29
  L 268.86 250.32
  L 269.25 250.99
  L 268.88 256.56
  L 269.26 262.03
  L 270.64 268.27
  L 270.66 268.74
  L 270.33 268.78
  L 269.95 268.44
  L 268.65 267.52
  L 266.39 267.03
  L 258.03 266.93
  L 258.03 266.93
  L 255.75 266.99
  L 254.78 267.33
  L 254.22 268.20
  Z"
/>
<path fill="none" stroke-width="1.00" stroke="#f4f4f4" vector-effect="non-scaling-stroke" d="
  M 288.83 267.35
  L 285.44 266.84
  L 279.81 266.91
  L 279.81 266.91
  L 277.04 266.99
  L 275.61 267.22
  L 274.15 268.12
  L 273.74 268.44
  L 273.48 268.55
  L 273.50 268.27
  L 273.92 266.94
  L 273.92 266.94
  L 274.98 260.70
  L 274.96 252.34
  L 274.96 252.34
  L 274.94 251.85
  L 275.35 250.52
  L 276.52 249.75
  L 281.31 249.17
  L 287.04 249.58
  L 288.50 250.29
  L 288.99 251.84
  L 288.95 254.69
  L 288.95 254.69
  L 289.14 261.92
  L 290.54 267.02
  L 290.32 267.52
  L 290.26 267.53
  L 289.11 267.43
  L 288.83 267.35
  Z"
/>
<path fill="none" stroke-width="1.00" stroke="#f4f4f4" vector-effect="non-scaling-stroke" d="
  M 310.93 268.49
  L 309.78 267.55
  L 307.69 267.04
  L 299.56 266.94
  L 296.56 267.02
  L 295.64 267.32
  L 293.73 268.48
  L 293.44 268.57
  L 293.53 268.27
  L 295.00 263.16
  L 295.11 255.31
  L 295.11 255.31
  L 295.03 251.67
  L 295.43 250.51
  L 296.46 249.84
  L 301.42 249.15
  L 306.90 249.45
  L 308.84 250.38
  L 309.43 252.44
  L 309.70 262.09
  L 310.45 265.67
  L 311.55 268.20
  L 311.52 268.75
  L 311.49 268.76
  L 311.25 268.78
  L 310.93 268.49
  Z"
/>
<path fill="none" stroke-width="1.00" stroke="#f4f4f4" vector-effect="non-scaling-stroke" d="
  M 331.30 268.43
  L 329.14 267.43
  L 325.73 266.86
  L 315.97 267.29
  L 314.83 267.41
  L 314.43 267.03
  L 314.44 266.98
  L 315.61 259.33
  L 315.79 253.01
  L 315.94 251.36
  L 316.59 250.20
  L 318.47 249.39
  L 326.21 249.45
  L 329.14 249.97
  L 329.65 250.59
  L 329.73 254.46
  L 329.73 254.46
  L 330.13 262.64
  L 331.50 268.27
  L 331.54 268.53
  L 331.30 268.43
  Z"
/>
<rect fill="none" stroke-width="1.00" stroke="#f4f4f4" vector-effect="non-scaling-stroke" x="107.03" y="250.05" width="0.94" height="12.64" rx="0.45"/>
<rect fill="none" stroke-width="1.00" stroke="#f4f4f4" vector-effect="non-scaling-stroke" x="-0.49" y="-5.98" transform="translate(292.51,256.01) rotate(-0.3)" width="0.98" height="11.96" rx="0.47"/>
<rect fill="none" stroke-width="1.00" stroke="#f4f4f4" vector-effect="non-scaling-stroke" x="-0.46" y="-6.94" transform="translate(312.51,256.98) rotate(-0.2)" width="0.92" height="13.88" rx="0.44"/>
<path fill="none" stroke-width="1.00" stroke="#f4f4f4" vector-effect="non-scaling-stroke" d="
  M 344.06 265.86
  L 344.00 264.31
  L 344.00 264.31
  L 343.94 253.67
  L 344.34 251.08
  L 345.11 249.96
  L 345.11 249.96
  L 345.52 250.04
  L 345.96 250.80
  L 346.01 252.27
  L 346.01 252.27
  L 346.05 261.38
  L 345.03 266.99
  L 344.81 267.26
  L 344.55 267.06
  L 344.06 265.86
  Z"
/>
<path fill="none" stroke-width="1.00" stroke="#f4f4f4" vector-effect="non-scaling-stroke" d="
  M 361.49 266.82
  L 360.95 266.37
  L 360.57 265.50
  L 360.10 250.90
  L 360.56 250.21
  L 362.42 250.07
  L 362.43 252.04
  L 362.24 253.12
  L 362.35 261.66
  L 362.68 266.26
  L 362.19 268.30
  L 360.21 268.99
  L 357.27 269.10
  L 357.27 269.10
  L 349.47 269.28
  L 345.64 268.78
  L 344.79 268.05
  L 347.33 267.10
  L 353.82 267.02
  L 361.24 267.81
  L 361.93 267.70
  L 362.00 267.55
  L 361.49 266.82
  Z"
/>
<path fill="none" stroke-width="1.00" stroke="#f4f4f4" vector-effect="non-scaling-stroke" d="
  M 366.56 267.63
  L 374.19 267.21
  L 382.54 267.49
  L 382.82 267.42
  L 382.76 267.13
  L 381.59 263.20
  L 381.45 256.82
  L 381.45 256.82
  L 381.32 250.81
  L 381.70 250.09
  L 382.89 249.96
  L 383.59 250.25
  L 383.98 251.05
  L 383.97 266.95
  L 383.47 268.43
  L 382.05 268.91
  L 366.56 268.96
  L 365.51 268.54
  L 365.08 267.51
  L 365.08 267.51
  L 365.08 267.50
  L 365.19 250.74
  L 365.68 250.08
  L 367.46 250.08
  L 367.42 251.71
  L 367.23 252.79
  L 366.96 261.73
  L 366.16 267.20
  L 366.51 267.63
  L 366.56 267.63
  Z"
/>
<path fill="none" stroke-width="1.00" stroke="#f4f4f4" vector-effect="non-scaling-stroke" d="
  M 403.90 267.19
  L 403.58 265.77
  L 403.25 263.90
  L 403.25 260.00
  L 402.59 250.80
  L 402.97 250.07
  L 403.65 249.93
  L 404.24 250.06
  L 404.70 250.81
  L 404.98 267.51
  L 404.98 267.52
  L 404.49 268.64
  L 403.31 269.10
  L 388.69 269.03
  L 386.52 268.27
  L 385.98 266.15
  L 386.06 251.07
  L 386.40 250.24
  L 387.35 249.90
  L 388.11 250.13
  L 388.52 250.92
  L 388.05 262.36
  L 387.49 267.08
  L 387.49 267.13
  L 387.92 267.49
  L 396.40 266.89
  L 403.44 267.60
  L 403.90 267.24
  L 403.90 267.19
  Z"
/>
<path fill="none" stroke-width="1.00" stroke="#f4f4f4" vector-effect="non-scaling-stroke" d="
  M 272.75 260.50
  L 272.93 260.98
  L 272.72 261.14
  L 272.68 261.15
  L 272.26 260.79
  L 271.78 257.78
  L 271.19 253.35
  L 271.79 250.57
  L 272.27 250.12
  L 272.27 250.12
  L 272.88 253.06
  L 272.75 260.50
  Z"
/>
<path fill="none" stroke-width="1.00" stroke="#f4f4f4" vector-effect="non-scaling-stroke" d="
  M 53.32 250.46
  L 54.03 259.23
  L 53.53 268.24
  L 52.86 269.75
  L 51.37 270.39
  L 37.23 270.90
  L 33.18 270.52
  L 31.86 269.78
  L 31.86 269.78
  L 32.33 269.04
  L 51.65 268.63
  L 52.59 268.20
  L 52.99 267.20
  L 53.32 250.46
  Z"
/>
<rect fill="none" stroke-width="1.00" stroke="#f4f4f4" vector-effect="non-scaling-stroke" x="-0.47" y="-6.28" transform="translate(87.46,257.36) rotate(-0.5)" width="0.94" height="12.56" rx="0.45"/>
<rect fill="none" stroke-width="1.00" stroke="#f4f4f4" vector-effect="non-scaling-stroke" x="-0.52" y="-5.28" transform="translate(127.54,256.36) rotate(0.7)" width="1.04" height="10.56" rx="0.49"/>
<rect fill="none" stroke-width="1.00" stroke="#f4f4f4" vector-effect="non-scaling-stroke" x="-0.61" y="-5.24" transform="translate(179.61,256.36) rotate(2.2)" width="1.22" height="10.48" rx="0.59"/>
<path fill="none" stroke-width="1.00" stroke="#f4f4f4" vector-effect="non-scaling-stroke" d="
  M 200.06 260.08
  L 199.59 261.12
  L 199.25 260.04
  L 198.99 253.53
  L 199.80 251.06
  L 200.29 251.19
  L 200.72 252.02
  L 200.55 257.55
  L 200.06 260.08
  Z"
/>
<path fill="none" stroke-width="1.00" stroke="#f4f4f4" vector-effect="non-scaling-stroke" d="
  M 220.74 251.58
  L 221.00 259.07
  L 220.53 261.67
  L 220.53 261.67
  L 220.34 261.58
  L 220.04 260.70
  L 219.63 257.59
  L 219.33 253.35
  L 219.85 251.48
  L 220.44 250.95
  L 220.74 251.58
  Z"
/>
<rect fill="none" stroke-width="1.00" stroke="#f4f4f4" vector-effect="non-scaling-stroke" x="-0.46" y="-4.31" transform="translate(240.46,255.57) rotate(-0.1)" width="0.92" height="8.62" rx="0.44"/>
<ellipse fill="none" stroke-width="1.00" stroke="#f4f4f4" vector-effect="non-scaling-stroke" cx="0.00" cy="0.00" transform="translate(332.44,255.60) rotate(89.4)" rx="4.48" ry="0.50"/>
<path fill="none" stroke-width="1.00" stroke="#f4f4f4" vector-effect="non-scaling-stroke" d="
  M 341.93 254.30
  L 342.33 259.14
  L 341.96 266.39
  L 341.96 266.39
  L 341.92 266.94
  L 341.87 267.30
  L 341.86 266.94
  L 341.80 254.31
  L 341.83 253.98
  L 341.93 254.30
  Z"
/>
<path fill="none" stroke-width="1.00" stroke="#f4f4f4" vector-effect="non-scaling-stroke" d="
  M 327.94 395.20
  L 31.76 395.02
  L 31.76 395.02
  L 30.52 394.50
  L 30.01 393.26
  L 30.01 290.33
  L 30.59 288.59
  L 32.33 288.01
  L 334.07 288.01
  L 335.51 288.49
  L 335.99 289.94
  L 335.99 393.18
  L 335.19 395.46
  L 333.94 395.66
  L 331.53 395.37
  L 327.94 395.20
  Z
  M 186.75 311.04
  L 185.25 310.42
  L 186.21 311.75
  L 185.82 324.18
  L 184.70 327.87
  L 184.11 329.75
  L 184.14 329.78
  L 184.72 329.60
  L 185.88 328.54
  L 187.23 328.34
  L 191.15 328.43
  L 199.04 327.85
  L 200.58 328.64
  L 201.63 329.84
  L 201.87 329.55
  L 201.71 328.66
  L 200.65 326.28
  L 200.07 323.41
  L 199.92 314.62
  L 199.99 312.39
  L 199.59 311.20
  L 198.53 310.52
  L 191.91 309.98
  L 186.75 311.04
  Z
  M 31.19 312.81
  L 31.28 313.56
  L 31.49 313.61
  L 32.07 312.96
  L 31.98 312.46
  L 31.81 312.35
  L 31.77 312.34
  L 31.19 312.81
  Z
  M 331.54 349.50
  L 332.49 350.81
  L 332.21 349.25
  L 331.24 343.91
  L 330.92 336.52
  L 330.92 336.52
  L 330.82 332.61
  L 330.33 331.52
  L 329.23 331.08
  L 286.80 331.20
  L 286.49 331.29
  L 286.68 331.54
  L 287.59 332.26
  L 287.99 333.04
  L 287.98 333.93
  L 288.02 341.29
  L 288.48 343.76
  L 288.48 343.76
  L 288.48 343.76
  L 288.50 343.76
  L 288.98 343.18
  L 288.98 332.99
  L 289.35 332.14
  L 290.32 331.84
  L 291.12 333.56
  L 291.01 346.08
  L 290.69 347.53
  L 290.52 349.60
  L 292.35 349.38
  L 294.23 348.97
  L 330.18 349.24
  L 331.54 349.50
  Z
  M 60.97 373.19
  L 36.50 373.08
  L 35.56 373.48
  L 35.14 374.48
  L 34.41 389.01
  L 34.07 389.92
  L 33.45 391.07
  L 33.40 391.40
  L 33.76 391.49
  L 42.10 390.92
  L 58.34 391.14
  L 59.18 391.52
  L 60.24 392.44
  L 60.56 392.56
  L 60.73 392.24
  L 61.70 384.28
  L 62.02 376.31
  L 62.02 376.31
  L 62.00 374.24
  L 60.97 373.19
  Z
  M 304.75 387.27
  L 304.19 389.86
  L 304.19 390.94
  L 304.74 391.39
  L 316.34 390.90
  L 327.89 391.22
  L 332.14 391.54
  L 332.20 391.54
  L 332.49 391.10
  L 331.12 384.71
  L 331.14 375.74
  L 330.70 373.68
  L 328.73 373.01
  L 303.01 373.10
  L 302.02 374.06
  L 302.06 378.74
  L 303.18 387.48
  L 303.20 387.53
  L 303.64 387.62
  L 304.48 387.02
  L 304.79 386.90
  L 304.75 387.27
  Z"
/>
<path fill="none" stroke-width="1.00" stroke="#f4f4f4" vector-effect="non-scaling-stroke" d="
  M 498.99 393.24
  L 498.48 394.48
  L 497.24 394.99
  L 414.74 394.99
  L 413.50 394.48
  L 412.99 393.24
  L 412.99 289.74
  L 413.50 288.50
  L 414.74 287.99
  L 497.24 287.99
  L 498.48 288.50
  L 498.99 289.74
  L 498.99 393.24
  Z
  M 432.25 328.29
  L 433.68 329.96
  L 433.00 328.21
  L 432.16 321.29
  L 432.11 311.67
  L 432.57 310.92
  L 432.85 310.86
  L 433.98 313.03
  L 434.71 319.20
  L 434.71 319.20
  L 434.84 320.66
  L 435.20 321.78
  L 435.62 320.68
  L 436.11 317.08
  L 436.07 311.78
  L 436.50 311.14
  L 438.36 311.21
  L 438.40 313.23
  L 438.23 314.26
  L 438.15 317.67
  L 438.15 317.67
  L 437.75 325.62
  L 436.62 329.08
  L 436.48 329.29
  L 436.72 329.30
  L 442.46 328.40
  L 451.97 328.42
  L 452.62 328.94
  L 452.90 329.38
  L 453.16 329.62
  L 453.50 329.74
  L 453.64 329.38
  L 453.58 328.24
  L 452.98 326.38
  L 452.75 325.44
  L 452.28 311.81
  L 452.69 311.09
  L 453.90 310.95
  L 454.69 311.37
  L 455.02 312.23
  L 455.01 312.76
  L 455.39 321.93
  L 455.54 321.97
  L 455.74 321.38
  L 455.75 320.96
  L 456.33 313.66
  L 456.82 311.94
  L 457.54 311.19
  L 457.54 311.19
  L 458.46 311.81
  L 458.75 312.73
  L 458.81 314.72
  L 458.81 314.72
  L 458.87 322.71
  L 458.11 326.74
  L 457.21 329.51
  L 459.32 328.58
  L 460.21 328.32
  L 471.95 328.27
  L 472.79 328.58
  L 474.29 329.54
  L 474.62 329.64
  L 474.55 329.25
  L 473.28 324.27
  L 472.99 316.46
  L 472.96 312.89
  L 473.71 310.95
  L 474.67 311.41
  L 474.99 312.28
  L 475.03 318.90
  L 475.53 319.75
  L 475.88 319.07
  L 476.96 311.97
  L 477.37 311.12
  L 478.13 310.85
  L 479.04 312.64
  L 478.65 348.48
  L 478.65 348.49
  L 479.13 348.97
  L 495.40 349.29
  L 495.90 348.82
  L 495.90 348.81
  L 495.67 311.29
  L 494.90 310.48
  L 479.34 310.02
  L 478.25 309.63
  L 478.67 308.61
  L 482.38 307.58
  L 490.92 307.66
  L 493.54 307.75
  L 494.40 308.02
  L 495.67 308.65
  L 494.75 307.14
  L 494.42 306.25
  L 493.67 289.88
  L 493.15 289.37
  L 481.50 288.98
  L 418.18 288.97
  L 416.25 289.47
  L 417.44 290.23
  L 417.94 290.90
  L 417.99 296.80
  L 417.50 304.90
  L 416.98 306.34
  L 416.39 308.58
  L 417.86 307.62
  L 418.71 307.32
  L 423.73 307.41
  L 429.48 307.59
  L 433.51 308.72
  L 433.88 308.77
  L 434.04 308.66
  L 433.95 307.98
  L 432.88 306.00
  L 432.14 302.67
  L 431.99 292.70
  L 432.04 291.33
  L 432.68 290.02
  L 433.36 290.02
  L 433.89 290.72
  L 434.19 292.80
  L 435.49 301.01
  L 435.49 301.01
  L 435.68 300.75
  L 436.14 294.20
  L 436.12 291.62
  L 436.39 290.36
  L 437.04 289.94
  L 437.04 289.94
  L 437.91 291.40
  L 438.06 299.40
  L 437.23 307.97
  L 437.29 308.34
  L 437.62 308.29
  L 438.63 307.80
  L 439.55 307.53
  L 450.70 307.24
  L 453.25 307.83
  L 454.12 309.13
  L 454.12 309.13
  L 453.36 309.82
  L 451.30 310.08
  L 436.23 310.06
  L 435.38 309.72
  L 434.42 309.32
  L 433.62 309.66
  L 432.77 310.01
  L 416.79 310.04
  L 416.42 310.16
  L 416.54 310.48
  L 416.61 310.56
  L 417.42 311.06
  L 417.94 311.65
  L 417.96 316.77
  L 417.87 317.90
  L 417.76 320.52
  L 417.35 325.54
  L 416.03 329.30
  L 415.95 329.66
  L 416.01 329.80
  L 416.03 329.83
  L 416.57 329.73
  L 417.95 328.63
  L 421.26 328.20
  L 422.91 328.21
  L 425.75 328.07
  L 432.25 328.29
  Z"
/>
<path fill="none" stroke-width="1.00" stroke="#f4f4f4" vector-effect="non-scaling-stroke" d="
  M 407.08 331.40
  L 406.61 332.52
  L 405.49 332.99
  L 344.53 332.99
  L 343.41 332.52
  L 342.94 331.40
  L 342.94 289.60
  L 343.41 288.48
  L 344.53 288.01
  L 405.49 288.01
  L 406.61 288.48
  L 407.08 289.60
  L 407.08 331.40
  Z"
/>
<path fill="none" stroke-width="1.00" stroke="#f4f4f4" vector-effect="non-scaling-stroke" d="
  M 363.44 290.22
  L 362.37 289.81
  L 362.09 289.60
  L 362.39 289.36
  L 364.64 288.95
  L 366.32 289.28
  L 366.57 289.47
  L 366.35 289.73
  L 365.61 290.19
  L 365.40 290.93
  L 365.87 293.83
  L 365.26 297.99
  L 364.82 300.38
  L 364.44 300.94
  L 364.43 300.94
  L 363.95 291.95
  L 363.95 290.82
  L 363.44 290.22
  Z"
/>
<path fill="none" stroke-width="1.00" stroke="#f4f4f4" vector-effect="non-scaling-stroke" d="
  M 383.08 308.50
  L 381.99 307.25
  L 379.89 307.35
  L 378.03 307.54
  L 374.44 307.03
  L 370.96 307.23
  L 370.96 307.23
  L 366.51 308.60
  L 366.24 308.65
  L 366.32 308.39
  L 367.94 303.07
  L 368.09 294.07
  L 368.09 294.07
  L 368.00 289.97
  L 368.50 289.45
  L 368.50 289.45
  L 388.03 289.11
  L 388.71 289.55
  L 388.70 289.66
  L 387.46 290.04
  L 386.41 290.25
  L 386.02 291.06
  L 386.06 293.08
  L 385.82 301.61
  L 385.43 301.94
  L 385.00 300.32
  L 385.00 296.96
  L 384.54 293.23
  L 384.65 292.28
  L 384.79 290.21
  L 382.50 290.14
  L 382.02 290.79
  L 381.94 294.14
  L 382.03 301.24
  L 383.23 306.54
  L 383.23 306.54
  L 384.00 308.29
  L 384.10 308.97
  L 383.74 309.07
  L 383.08 308.50
  Z"
/>
<path fill="none" stroke-width="1.00" stroke="#f4f4f4" vector-effect="non-scaling-stroke" d="
  M 433.00 328.21
  L 432.25 328.29
  L 425.75 328.07
  L 422.91 328.21
  L 421.26 328.20
  L 417.95 328.63
  L 416.57 329.73
  L 416.03 329.83
  L 416.01 329.80
  L 415.95 329.66
  L 416.03 329.30
  L 417.35 325.54
  L 417.76 320.52
  L 417.87 317.90
  L 417.96 316.77
  L 417.94 311.65
  L 417.42 311.06
  L 416.61 310.56
  L 416.54 310.48
  L 416.42 310.16
  L 416.79 310.04
  L 432.77 310.01
  L 433.62 309.66
  L 434.42 309.32
  L 435.38 309.72
  L 436.23 310.06
  L 451.30 310.08
  L 453.36 309.82
  L 454.12 309.13
  L 454.12 309.13
  L 453.25 307.83
  L 450.70 307.24
  L 439.55 307.53
  L 438.63 307.80
  L 437.62 308.29
  L 437.29 308.34
  L 437.23 307.97
  L 438.06 299.40
  L 437.91 291.40
  L 437.04 289.94
  L 437.04 289.94
  L 436.39 290.36
  L 436.12 291.62
  L 436.14 294.20
  L 435.68 300.75
  L 435.49 301.01
  L 435.49 301.01
  L 434.19 292.80
  L 433.89 290.72
  L 433.36 290.02
  L 432.68 290.02
  L 432.04 291.33
  L 431.99 292.70
  L 432.14 302.67
  L 432.88 306.00
  L 433.95 307.98
  L 434.04 308.66
  L 433.88 308.77
  L 433.51 308.72
  L 429.48 307.59
  L 423.73 307.41
  L 418.71 307.32
  L 417.86 307.62
  L 416.39 308.58
  L 416.98 306.34
  L 417.50 304.90
  L 417.99 296.80
  L 417.94 290.90
  L 417.44 290.23
  L 416.25 289.47
  L 418.18 288.97
  L 481.50 288.98
  L 493.15 289.37
  L 493.67 289.88
  L 494.42 306.25
  L 494.75 307.14
  L 495.67 308.65
  L 494.40 308.02
  L 493.54 307.75
  L 490.92 307.66
  L 482.38 307.58
  L 478.67 308.61
  L 478.25 309.63
  L 479.34 310.02
  L 494.90 310.48
  L 495.67 311.29
  L 495.90 348.81
  L 495.90 348.82
  L 495.40 349.29
  L 479.13 348.97
  L 478.65 348.49
  L 478.65 348.48
  L 479.04 312.64
  L 478.13 310.85
  L 477.37 311.12
  L 476.96 311.97
  L 475.88 319.07
  L 475.53 319.75
  L 475.03 318.90
  L 474.99 312.28
  L 474.67 311.41
  L 473.71 310.95
  L 472.96 312.89
  L 472.99 316.46
  L 473.28 324.27
  L 474.55 329.25
  L 474.62 329.64
  L 474.29 329.54
  L 472.79 328.58
  L 471.95 328.27
  L 460.21 328.32
  L 459.32 328.58
  L 457.21 329.51
  L 458.11 326.74
  L 458.87 322.71
  L 458.81 314.72
  L 458.81 314.72
  L 458.75 312.73
  L 458.46 311.81
  L 457.54 311.19
  L 457.54 311.19
  L 457.54 311.19
  L 456.79 312.01
  L 456.29 313.88
  L 455.75 320.96
  L 455.75 320.96
  L 455.74 321.38
  L 455.54 321.97
  L 455.39 321.93
  L 455.01 312.76
  L 455.02 312.23
  L 454.69 311.37
  L 453.90 310.95
  L 452.69 311.09
  L 452.28 311.81
  L 452.75 325.44
  L 452.98 326.38
  L 453.58 328.24
  L 453.64 329.38
  L 453.50 329.74
  L 453.16 329.62
  L 452.90 329.38
  L 452.62 328.94
  L 451.97 328.42
  L 442.46 328.40
  L 436.72 329.30
  L 436.48 329.29
  L 436.62 329.08
  L 437.75 325.62
  L 438.15 317.67
  L 438.23 314.26
  L 438.40 313.23
  L 438.36 311.21
  L 436.50 311.14
  L 436.07 311.78
  L 436.11 317.08
  L 435.62 320.68
  L 435.20 321.78
  L 434.84 320.66
  L 434.71 319.20
  L 434.71 319.20
  L 433.98 313.00
  L 432.85 310.86
  L 432.85 310.86
  L 432.57 310.92
  L 432.11 311.67
  L 432.16 321.29
  L 433.00 328.21
  Z"
/>
<path fill="none" stroke-width="1.00" stroke="#f4f4f4" vector-effect="non-scaling-stroke" d="
  M 352.44 307.06
  L 349.73 306.68
  L 348.05 307.29
  L 346.73 308.54
  L 346.10 308.69
  L 346.08 308.67
  L 346.50 305.75
  L 346.95 302.82
  L 347.10 290.05
  L 347.60 289.52
  L 361.01 289.53
  L 361.53 290.08
  L 362.00 303.95
  L 362.34 305.57
  L 362.77 308.75
  L 362.75 308.76
  L 362.10 308.29
  L 361.14 307.29
  L 359.98 307.23
  L 356.87 307.62
  L 352.44 307.06
  Z"
/>
<path fill="none" stroke-width="1.00" stroke="#f4f4f4" vector-effect="non-scaling-stroke" d="
  M 397.68 307.56
  L 393.80 307.42
  L 389.41 307.61
  L 386.29 310.09
  L 386.00 310.99
  L 385.85 322.17
  L 385.61 322.73
  L 385.58 322.74
  L 384.58 316.34
  L 384.46 315.16
  L 384.33 312.94
  L 384.77 311.12
  L 384.77 311.12
  L 386.61 309.09
  L 387.65 307.53
  L 388.03 304.75
  L 388.25 292.00
  L 389.02 289.86
  L 391.00 289.26
  L 402.11 289.53
  L 402.62 290.07
  L 403.35 306.02
  L 403.72 306.88
  L 404.24 307.92
  L 404.31 308.29
  L 404.31 308.36
  L 403.85 308.61
  L 400.58 307.59
  L 397.68 307.56
  Z"
/>
<path fill="none" stroke-width="1.00" stroke="#f4f4f4" vector-effect="non-scaling-stroke" d="
  M 78.89 307.23
  L 76.60 307.37
  L 73.20 308.71
  L 73.08 308.74
  L 73.13 308.63
  L 74.20 306.44
  L 74.92 303.13
  L 75.04 293.87
  L 75.04 293.87
  L 74.97 291.93
  L 75.42 290.65
  L 76.62 290.01
  L 82.98 289.64
  L 88.95 290.03
  L 88.95 290.03
  L 89.37 290.59
  L 88.94 300.86
  L 89.63 304.94
  L 90.88 308.00
  L 90.99 308.56
  L 90.81 308.83
  L 90.32 308.74
  L 89.12 307.53
  L 88.28 307.31
  L 83.35 307.87
  L 78.89 307.23
  Z"
/>
<path fill="none" stroke-width="1.00" stroke="#f4f4f4" vector-effect="non-scaling-stroke" d="
  M 96.93 307.16
  L 96.27 307.21
  L 95.51 307.69
  L 94.87 308.30
  L 93.73 308.66
  L 93.42 308.58
  L 93.50 308.24
  L 94.97 303.55
  L 95.19 295.95
  L 95.19 295.95
  L 95.21 291.13
  L 95.68 290.41
  L 99.55 289.69
  L 106.44 289.90
  L 108.93 290.04
  L 109.43 290.54
  L 109.43 290.54
  L 109.25 294.12
  L 109.23 301.73
  L 110.85 307.37
  L 110.89 308.48
  L 110.85 308.54
  L 110.15 308.50
  L 108.20 307.49
  L 105.82 306.98
  L 98.48 307.05
  L 96.93 307.16
  Z"
/>
<path fill="none" stroke-width="1.00" stroke="#f4f4f4" vector-effect="non-scaling-stroke" d="
  M 120.32 307.18
  L 119.78 307.42
  L 117.80 307.27
  L 116.04 307.15
  L 114.87 308.41
  L 114.39 308.72
  L 114.20 308.60
  L 114.14 308.22
  L 114.95 301.85
  L 114.94 294.49
  L 115.11 292.60
  L 115.78 291.25
  L 115.78 291.25
  L 117.13 290.21
  L 118.91 289.69
  L 124.78 289.79
  L 124.78 289.79
  L 128.13 289.97
  L 129.27 290.38
  L 129.80 291.46
  L 129.81 295.65
  L 130.03 303.62
  L 131.50 307.92
  L 131.71 308.64
  L 131.70 308.65
  L 128.04 307.21
  L 127.94 307.15
  L 127.04 307.06
  L 123.82 307.49
  L 121.20 307.04
  L 120.32 307.18
  Z"
/>
<path fill="none" stroke-width="1.00" stroke="#f4f4f4" vector-effect="non-scaling-stroke" d="
  M 136.23 307.28
  L 134.57 308.44
  L 134.30 308.54
  L 134.31 308.30
  L 135.81 303.70
  L 135.84 302.77
  L 135.42 301.10
  L 135.53 296.73
  L 135.65 292.83
  L 136.08 290.29
  L 138.23 289.63
  L 148.12 289.98
  L 149.25 290.51
  L 149.77 291.73
  L 149.80 296.25
  L 149.80 296.25
  L 150.03 303.88
  L 151.43 308.25
  L 151.53 308.50
  L 151.27 308.47
  L 150.17 308.09
  L 145.39 307.54
  L 141.23 307.08
  L 140.27 307.08
  L 138.44 307.35
  L 137.16 307.19
  L 136.23 307.28
  Z"
/>
<path fill="none" stroke-width="1.00" stroke="#f4f4f4" vector-effect="non-scaling-stroke" d="
  M 191.50 308.70
  L 188.62 307.57
  L 185.59 307.02
  L 177.28 307.22
  L 176.43 307.60
  L 176.03 307.90
  L 174.46 308.59
  L 174.16 308.57
  L 174.22 308.25
  L 175.87 302.98
  L 176.07 295.50
  L 176.02 292.15
  L 176.63 290.32
  L 178.44 289.60
  L 187.67 289.91
  L 188.95 290.09
  L 190.00 291.32
  L 189.91 294.44
  L 189.91 294.44
  L 190.08 302.86
  L 190.72 305.66
  L 191.90 308.03
  L 191.92 308.67
  L 191.50 308.70
  Z"
/>
<path fill="none" stroke-width="1.00" stroke="#f4f4f4" vector-effect="non-scaling-stroke" d="
  M 211.52 308.57
  L 201.91 307.53
  L 197.46 307.77
  L 194.75 308.49
  L 194.47 308.54
  L 194.52 308.26
  L 195.95 302.89
  L 196.12 294.90
  L 196.10 290.15
  L 196.61 289.63
  L 208.66 290.03
  L 209.65 290.51
  L 210.04 291.61
  L 210.11 303.49
  L 211.13 306.65
  L 211.83 308.23
  L 211.84 308.56
  L 211.52 308.57
  Z"
/>
<path fill="none" stroke-width="1.00" stroke="#f4f4f4" vector-effect="non-scaling-stroke" d="
  M 250.17 303.47
  L 251.82 308.22
  L 251.54 308.72
  L 251.47 308.72
  L 250.81 308.48
  L 250.53 307.92
  L 249.92 307.40
  L 238.38 307.14
  L 236.00 308.09
  L 234.41 308.69
  L 234.39 308.67
  L 234.55 308.00
  L 235.98 303.66
  L 236.17 295.52
  L 236.16 291.72
  L 236.84 290.00
  L 238.55 289.52
  L 250.11 290.10
  L 250.52 290.56
  L 250.50 290.62
  L 250.14 291.60
  L 250.14 292.48
  L 250.64 294.50
  L 250.17 296.56
  L 250.15 297.46
  L 250.72 300.13
  L 250.21 302.54
  L 250.17 303.47
  Z"
/>
<path fill="none" stroke-width="1.00" stroke="#f4f4f4" vector-effect="non-scaling-stroke" d="
  M 292.03 308.19
  L 288.43 307.12
  L 283.49 306.81
  L 278.68 307.35
  L 275.78 308.53
  L 274.83 308.96
  L 274.96 308.00
  L 276.07 302.97
  L 276.30 295.45
  L 276.32 292.05
  L 277.06 290.02
  L 278.91 289.53
  L 288.93 290.16
  L 290.17 290.75
  L 290.73 292.06
  L 290.76 296.20
  L 290.98 303.54
  L 292.22 308.02
  L 292.29 308.27
  L 292.03 308.19
  Z"
/>
<path fill="none" stroke-width="1.00" stroke="#f4f4f4" vector-effect="non-scaling-stroke" d="
  M 328.30 307.07
  L 298.50 307.27
  L 295.84 308.57
  L 295.14 308.74
  L 295.14 308.74
  L 295.90 306.54
  L 296.66 304.51
  L 297.01 299.06
  L 296.94 292.00
  L 297.41 290.29
  L 299.04 289.65
  L 311.82 289.79
  L 317.74 289.98
  L 329.70 290.02
  L 329.71 290.02
  L 330.63 290.41
  L 331.00 291.34
  L 330.96 292.98
  L 330.96 292.98
  L 331.14 301.76
  L 332.74 308.30
  L 332.77 308.60
  L 332.48 308.56
  L 331.40 308.00
  L 329.64 307.22
  L 328.30 307.07
  Z"
/>
<path fill="none" stroke-width="1.00" stroke="#f4f4f4" vector-effect="non-scaling-stroke" d="
  M 48.68 307.30
  L 39.23 307.74
  L 38.29 307.60
  L 36.00 307.39
  L 34.20 308.48
  L 33.28 308.64
  L 33.35 308.05
  L 34.93 302.28
  L 35.05 293.42
  L 35.05 293.42
  L 34.99 291.79
  L 35.46 290.25
  L 36.80 289.83
  L 47.53 289.97
  L 47.55 289.97
  L 48.65 290.51
  L 49.07 291.73
  L 49.45 305.08
  L 50.08 306.57
  L 50.78 308.53
  L 49.54 307.66
  L 48.68 307.30
  Z"
/>
<path fill="none" stroke-width="1.00" stroke="#f4f4f4" vector-effect="non-scaling-stroke" d="
  M 62.19 307.31
  L 60.61 307.23
  L 56.57 307.26
  L 54.27 308.26
  L 54.00 308.55
  L 53.49 308.78
  L 53.40 308.73
  L 53.33 308.65
  L 53.37 308.35
  L 54.86 303.61
  L 55.22 294.44
  L 55.22 294.44
  L 55.24 291.48
  L 56.13 290.41
  L 59.96 289.80
  L 68.09 290.13
  L 69.00 291.23
  L 68.98 292.30
  L 68.98 292.30
  L 69.18 301.49
  L 70.81 308.27
  L 70.84 308.65
  L 70.50 308.68
  L 70.01 308.47
  L 69.38 307.62
  L 68.75 307.21
  L 62.19 307.31
  Z"
/>
<path fill="none" stroke-width="1.00" stroke="#f4f4f4" vector-effect="non-scaling-stroke" d="
  M 154.25 308.18
  L 154.57 307.35
  L 154.57 307.35
  L 155.73 302.31
  L 155.99 295.76
  L 156.05 291.64
  L 156.57 290.44
  L 157.76 289.89
  L 169.45 290.21
  L 169.98 290.80
  L 169.95 294.42
  L 169.95 294.42
  L 170.09 301.57
  L 171.13 307.02
  L 171.56 308.28
  L 171.57 308.58
  L 171.27 308.55
  L 171.23 308.53
  L 170.03 307.93
  L 168.71 307.31
  L 167.41 307.03
  L 160.16 307.10
  L 154.52 308.48
  L 154.22 308.49
  L 154.25 308.18
  Z"
/>
<path fill="none" stroke-width="1.00" stroke="#f4f4f4" vector-effect="non-scaling-stroke" d="
  M 230.44 307.56
  L 230.40 307.42
  L 229.82 306.89
  L 228.99 306.99
  L 227.27 307.51
  L 225.69 307.19
  L 224.75 307.02
  L 218.25 307.00
  L 217.29 307.14
  L 214.63 308.48
  L 214.39 308.54
  L 214.48 308.32
  L 215.99 303.57
  L 216.20 295.34
  L 216.19 290.73
  L 216.71 290.17
  L 223.38 289.68
  L 229.95 289.96
  L 230.38 290.50
  L 230.38 290.51
  L 229.89 295.79
  L 230.11 300.98
  L 231.66 308.24
  L 231.66 308.63
  L 231.32 308.63
  L 230.85 308.36
  L 230.44 307.56
  Z"
/>
<path fill="none" stroke-width="1.00" stroke="#f4f4f4" vector-effect="non-scaling-stroke" d="
  M 258.27 307.23
  L 256.77 307.89
  L 254.51 308.72
  L 254.49 308.71
  L 254.45 308.22
  L 255.96 303.76
  L 256.23 295.63
  L 256.23 295.63
  L 256.28 290.82
  L 256.81 290.24
  L 261.67 289.70
  L 266.46 289.81
  L 266.46 289.81
  L 269.19 290.17
  L 269.79 290.75
  L 270.65 294.50
  L 270.57 295.45
  L 270.41 299.09
  L 270.29 303.29
  L 270.45 304.16
  L 271.61 306.56
  L 271.83 308.16
  L 271.82 308.23
  L 271.38 308.41
  L 267.97 307.09
  L 264.63 306.80
  L 263.00 307.04
  L 260.09 307.18
  L 258.27 307.23
  Z"
/>
<ellipse fill="none" stroke-width="1.00" stroke="#f4f4f4" vector-effect="non-scaling-stroke" cx="0.00" cy="0.00" transform="translate(52.19,294.44) rotate(90.6)" rx="4.67" ry="0.90"/>
<rect fill="none" stroke-width="1.00" stroke="#f4f4f4" vector-effect="non-scaling-stroke" x="-0.55" y="-5.20" transform="translate(72.44,295.36) rotate(-1.1)" width="1.10" height="10.40" rx="0.26"/>
<rect fill="none" stroke-width="1.00" stroke="#f4f4f4" vector-effect="non-scaling-stroke" x="-0.49" y="-5.46" transform="translate(92.50,295.49) rotate(-0.1)" width="0.98" height="10.92" rx="0.47"/>
<rect fill="none" stroke-width="1.00" stroke="#f4f4f4" vector-effect="non-scaling-stroke" x="-0.49" y="-4.96" transform="translate(112.51,295.00) rotate(0.1)" width="0.98" height="9.92" rx="0.47"/>
<rect fill="none" stroke-width="1.00" stroke="#f4f4f4" vector-effect="non-scaling-stroke" x="-0.49" y="-4.97" transform="translate(132.51,295.02) rotate(-0.2)" width="0.98" height="9.94" rx="0.47"/>
<rect fill="none" stroke-width="1.00" stroke="#f4f4f4" vector-effect="non-scaling-stroke" x="-0.56" y="-4.88" transform="translate(152.57,295.02) rotate(1.3)" width="1.12" height="9.76" rx="0.32"/>
<path fill="none" stroke-width="1.00" stroke="#f4f4f4" vector-effect="non-scaling-stroke" d="
  M 172.19 290.43
  L 172.43 289.77
  L 172.94 290.25
  L 173.69 292.11
  L 173.42 295.50
  L 173.02 298.45
  L 172.50 300.06
  L 172.16 298.49
  L 172.02 294.65
  L 172.19 290.43
  Z"
/>
<path fill="none" stroke-width="1.00" stroke="#f4f4f4" vector-effect="non-scaling-stroke" d="
  M 213.51 298.44
  L 212.35 292.65
  L 212.45 291.07
  L 213.02 290.18
  L 213.02 290.18
  L 213.02 290.18
  L 213.52 290.12
  L 213.98 290.79
  L 213.80 298.23
  L 213.68 298.69
  L 213.51 298.44
  Z"
/>
<path fill="none" stroke-width="1.00" stroke="#f4f4f4" vector-effect="non-scaling-stroke" d="
  M 233.20 290.42
  L 233.73 289.86
  L 233.95 290.61
  L 233.97 298.21
  L 233.53 300.75
  L 233.53 300.75
  L 233.53 300.75
  L 233.27 300.46
  L 233.01 294.47
  L 232.84 293.50
  L 232.64 292.49
  L 233.20 290.42
  Z"
/>
<rect fill="none" stroke-width="1.00" stroke="#f4f4f4" vector-effect="non-scaling-stroke" x="-0.50" y="-4.85" transform="translate(253.50,294.88) rotate(0.1)" width="1.00" height="9.70" rx="0.48"/>
<rect fill="none" stroke-width="1.00" stroke="#f4f4f4" vector-effect="non-scaling-stroke" x="-0.48" y="-4.96" transform="translate(273.50,294.98) rotate(0.1)" width="0.96" height="9.92" rx="0.47"/>
<rect fill="none" stroke-width="1.00" stroke="#f4f4f4" vector-effect="non-scaling-stroke" x="-0.48" y="-5.34" transform="translate(293.49,295.35) rotate(0.1)" width="0.96" height="10.68" rx="0.46"/>
<ellipse fill="none" stroke-width="1.00" stroke="#f4f4f4" vector-effect="non-scaling-stroke" cx="0.00" cy="0.00" transform="translate(344.53,293.87) rotate(89.5)" rx="4.15" ry="0.55"/>
<path fill="none" stroke-width="1.00" stroke="#f4f4f4" vector-effect="non-scaling-stroke" d="
  M 476.73 301.69
  L 477.04 292.68
  L 477.01 291.07
  L 477.39 290.25
  L 478.41 289.92
  L 479.29 290.23
  L 479.58 291.03
  L 479.34 297.19
  L 479.29 301.88
  L 478.71 307.00
  L 477.73 309.24
  L 475.41 309.98
  L 456.04 309.99
  L 455.33 309.52
  L 453.70 306.92
  L 453.34 306.04
  L 453.09 290.67
  L 453.60 290.04
  L 453.86 290.04
  L 453.86 290.04
  L 453.86 290.04
  L 454.53 290.77
  L 454.93 292.36
  L 455.17 298.65
  L 455.17 298.65
  L 455.18 300.27
  L 455.68 300.94
  L 455.93 300.48
  L 457.11 291.78
  L 457.17 291.25
  L 457.71 290.01
  L 458.61 290.46
  L 458.96 291.32
  L 458.98 298.02
  L 458.30 306.72
  L 457.93 307.57
  L 457.29 308.67
  L 459.04 307.75
  L 462.51 307.20
  L 472.70 307.34
  L 473.48 307.74
  L 474.19 308.61
  L 474.47 308.81
  L 474.57 308.47
  L 473.96 305.83
  L 473.38 303.72
  L 473.28 302.83
  L 473.28 302.83
  L 472.90 293.77
  L 473.40 291.42
  L 474.48 290.18
  L 475.45 290.19
  L 475.46 290.19
  L 475.74 290.81
  L 475.61 292.59
  L 475.83 293.28
  L 476.03 294.23
  L 476.25 301.45
  L 476.40 301.96
  L 476.73 301.69
  Z"
/>
<path fill="none" stroke-width="1.00" stroke="#f4f4f4" vector-effect="non-scaling-stroke" d="
  M 192.15 291.49
  L 192.98 290.19
  L 193.94 291.41
  L 193.82 296.35
  L 192.90 298.75
  L 192.83 298.78
  L 192.36 298.35
  L 192.14 291.60
  L 192.15 291.49
  Z"
/>
<ellipse fill="none" stroke-width="1.00" stroke="#f4f4f4" vector-effect="non-scaling-stroke" cx="0.00" cy="0.00" transform="translate(31.65,293.39) rotate(94.9)" rx="2.42" ry="0.56"/>
<ellipse fill="none" stroke-width="1.00" stroke="#f4f4f4" vector-effect="non-scaling-stroke" cx="0.00" cy="0.00" transform="translate(414.56,293.40) rotate(89.8)" rx="2.50" ry="0.52"/>
<path fill="none" stroke-width="1.00" stroke="#f4f4f4" vector-effect="non-scaling-stroke" d="
  M 59.73 310.25
  L 60.42 310.43
  L 59.92 310.95
  L 59.18 312.02
  L 58.97 313.41
  L 59.34 324.18
  L 59.93 326.08
  L 60.76 329.60
  L 60.76 329.60
  L 60.05 329.29
  L 58.51 328.47
  L 55.81 328.08
  L 45.49 328.30
  L 45.49 328.30
  L 40.16 328.54
  L 38.58 328.53
  L 35.07 328.86
  L 33.35 329.80
  L 33.05 329.90
  L 33.10 329.04
  L 34.90 323.83
  L 35.13 315.70
  L 35.07 312.04
  L 35.59 310.53
  L 37.00 310.08
  L 59.73 310.25
  Z"
/>
<rect fill="none" stroke-width="1.00" stroke="#f4f4f4" vector-effect="non-scaling-stroke" x="-0.45" y="-5.91" transform="translate(62.50,316.02) rotate(-0.1)" width="0.90" height="11.82" rx="0.44"/>
<path fill="none" stroke-width="1.00" stroke="#f4f4f4" vector-effect="non-scaling-stroke" d="
  M 65.57 311.25
  L 64.58 310.52
  L 64.35 310.24
  L 64.70 310.15
  L 76.49 310.39
  L 78.29 311.01
  L 78.98 313.19
  L 78.95 314.25
  L 79.12 322.58
  L 80.55 327.99
  L 80.21 328.74
  L 80.09 328.75
  L 76.34 328.64
  L 68.41 328.60
  L 63.55 329.52
  L 63.30 329.56
  L 63.42 329.34
  L 64.98 325.60
  L 65.08 319.32
  L 65.08 319.32
  L 65.08 319.32
  L 65.04 314.66
  L 65.75 311.92
  L 65.57 311.25
  Z"
/>
<path fill="none" stroke-width="1.00" stroke="#f4f4f4" vector-effect="non-scaling-stroke" d="
  M 82.32 319.93
  L 81.86 311.83
  L 81.83 311.73
  L 81.55 309.91
  L 82.68 310.89
  L 83.02 311.80
  L 82.76 319.95
  L 82.50 321.03
  L 82.32 319.93
  Z"
/>
<path fill="none" stroke-width="1.00" stroke="#f4f4f4" vector-effect="non-scaling-stroke" d="
  M 91.04 328.04
  L 89.44 328.01
  L 86.40 328.26
  L 84.62 329.27
  L 84.36 329.38
  L 84.31 329.09
  L 84.98 321.88
  L 85.25 311.03
  L 85.74 310.44
  L 93.96 310.19
  L 99.24 311.16
  L 99.75 311.80
  L 99.79 316.88
  L 100.03 324.32
  L 101.50 329.25
  L 101.57 329.51
  L 101.30 329.42
  L 99.71 328.65
  L 96.77 327.99
  L 92.79 327.98
  L 91.04 328.04
  Z"
/>
<path fill="none" stroke-width="1.00" stroke="#f4f4f4" vector-effect="non-scaling-stroke" d="
  M 105.62 320.26
  L 105.26 314.82
  L 105.81 312.75
  L 106.94 311.07
  L 108.67 310.17
  L 111.02 309.89
  L 118.36 310.84
  L 119.26 311.37
  L 119.64 312.33
  L 120.14 326.52
  L 120.47 327.42
  L 121.53 329.28
  L 121.63 329.59
  L 121.29 329.42
  L 120.11 328.75
  L 117.01 328.35
  L 115.39 328.30
  L 114.93 328.24
  L 114.93 328.24
  L 108.43 327.96
  L 106.32 328.50
  L 104.57 329.64
  L 104.57 329.64
  L 104.53 329.68
  L 104.24 329.83
  L 104.13 329.55
  L 104.28 327.76
  L 104.78 326.39
  L 104.99 325.45
  L 105.58 321.21
  L 105.62 320.26
  Z"
/>
<rect fill="none" stroke-width="1.00" stroke="#f4f4f4" vector-effect="non-scaling-stroke" x="-0.53" y="-5.21" transform="translate(122.58,315.36) rotate(2.1)" width="1.06" height="10.42" rx="0.44"/>
<path fill="none" stroke-width="1.00" stroke="#f4f4f4" vector-effect="non-scaling-stroke" d="
  M 140.20 328.66
  L 136.52 328.01
  L 131.73 328.46
  L 130.77 328.41
  L 127.09 328.11
  L 124.47 329.38
  L 124.23 329.49
  L 124.25 329.23
  L 125.48 323.90
  L 125.58 319.02
  L 125.53 315.42
  L 126.02 312.77
  L 126.02 312.77
  L 126.29 312.00
  L 127.49 310.45
  L 129.15 310.02
  L 139.81 310.14
  L 139.82 310.14
  L 140.26 310.67
  L 140.20 311.41
  L 139.93 322.17
  L 140.53 326.17
  L 141.56 329.08
  L 141.64 329.54
  L 141.31 329.61
  L 141.13 329.56
  L 140.84 329.27
  L 140.20 328.66
  Z"
/>
<path fill="none" stroke-width="1.00" stroke="#f4f4f4" vector-effect="non-scaling-stroke" d="
  M 142.39 320.54
  L 141.97 313.47
  L 142.20 311.14
  L 142.77 310.11
  L 142.77 310.11
  L 142.82 310.11
  L 143.34 310.75
  L 143.24 316.38
  L 142.64 320.52
  L 142.52 320.79
  L 142.39 320.54
  Z"
/>
<path fill="none" stroke-width="1.00" stroke="#f4f4f4" vector-effect="non-scaling-stroke" d="
  M 160.21 328.68
  L 151.71 328.34
  L 147.11 328.89
  L 144.43 329.71
  L 144.13 329.77
  L 144.13 329.48
  L 144.69 327.77
  L 145.78 322.85
  L 145.78 322.75
  L 145.78 322.24
  L 145.97 312.07
  L 145.67 311.19
  L 145.44 310.77
  L 145.42 310.71
  L 145.77 310.28
  L 151.70 310.07
  L 158.08 310.55
  L 159.32 311.19
  L 159.84 312.49
  L 159.85 315.71
  L 160.14 324.00
  L 161.54 329.10
  L 161.63 329.55
  L 161.28 329.61
  L 161.18 329.59
  L 160.85 329.28
  L 160.21 328.68
  Z"
/>
<path fill="none" stroke-width="1.00" stroke="#f4f4f4" vector-effect="non-scaling-stroke" d="
  M 161.23 310.85
  L 160.55 310.29
  L 162.71 310.03
  L 163.32 310.54
  L 163.49 316.43
  L 162.67 318.71
  L 162.67 318.71
  L 162.57 318.72
  L 162.22 318.10
  L 161.75 311.55
  L 161.23 310.85
  Z"
/>
<path fill="none" stroke-width="1.00" stroke="#f4f4f4" vector-effect="non-scaling-stroke" d="
  M 166.66 327.86
  L 165.82 328.01
  L 165.30 328.68
  L 164.59 329.80
  L 164.28 329.79
  L 164.28 329.22
  L 165.91 321.48
  L 165.78 311.70
  L 165.60 311.19
  L 165.41 310.24
  L 166.58 310.53
  L 167.51 310.68
  L 172.81 310.05
  L 179.89 310.27
  L 180.33 310.82
  L 179.95 316.92
  L 180.43 326.21
  L 180.83 327.09
  L 181.62 328.44
  L 181.86 329.29
  L 181.81 329.58
  L 181.48 329.54
  L 178.42 328.19
  L 177.46 328.11
  L 172.29 328.49
  L 166.66 327.86
  Z"
/>
<ellipse fill="none" stroke-width="1.00" stroke="#f4f4f4" vector-effect="non-scaling-stroke" cx="0.00" cy="0.00" transform="translate(183.01,313.97) rotate(90.1)" rx="4.07" ry="1.04"/>
<path fill="none" stroke-width="1.00" stroke="#f4f4f4" vector-effect="non-scaling-stroke" d="
  M 186.21 311.75
  L 186.75 311.04
  L 191.91 309.98
  L 198.53 310.52
  L 199.59 311.20
  L 199.99 312.39
  L 199.92 314.62
  L 199.92 314.62
  L 200.07 323.41
  L 200.65 326.28
  L 201.71 328.66
  L 201.87 329.55
  L 201.63 329.84
  L 200.58 328.64
  L 199.04 327.85
  L 191.15 328.43
  L 187.23 328.34
  L 185.88 328.54
  L 184.72 329.60
  L 184.14 329.78
  L 184.11 329.75
  L 184.70 327.87
  L 185.82 324.18
  L 186.21 311.75
  Z"
/>
<path fill="none" stroke-width="1.00" stroke="#f4f4f4" vector-effect="non-scaling-stroke" d="
  M 220.26 312.31
  L 219.96 317.62
  L 220.35 325.55
  L 220.40 325.87
  L 221.22 327.85
  L 221.84 329.10
  L 221.61 329.58
  L 221.53 329.58
  L 221.15 329.47
  L 220.52 328.91
  L 219.79 328.41
  L 219.46 328.38
  L 219.46 328.38
  L 209.05 327.95
  L 206.37 328.40
  L 204.94 329.39
  L 204.40 329.76
  L 204.20 329.72
  L 204.19 329.72
  L 204.08 329.49
  L 204.75 328.03
  L 205.63 325.66
  L 206.07 318.00
  L 205.66 310.60
  L 206.09 310.06
  L 206.10 310.06
  L 210.08 309.90
  L 219.69 310.60
  L 220.62 310.45
  L 222.33 310.16
  L 223.59 310.69
  L 224.00 311.50
  L 223.81 319.60
  L 223.52 320.03
  L 223.38 319.73
  L 223.28 317.51
  L 223.28 317.51
  L 222.97 313.14
  L 221.90 311.39
  L 220.74 311.57
  L 220.26 312.31
  Z"
/>
<path fill="none" stroke-width="1.00" stroke="#f4f4f4" vector-effect="non-scaling-stroke" d="
  M 236.49 328.21
  L 225.92 328.85
  L 225.14 329.30
  L 224.74 329.58
  L 224.40 329.70
  L 224.49 329.26
  L 225.88 323.84
  L 226.16 315.97
  L 226.16 312.82
  L 226.70 311.19
  L 228.24 310.44
  L 234.18 310.01
  L 239.50 310.62
  L 240.46 310.58
  L 241.73 310.37
  L 240.53 311.44
  L 240.08 312.23
  L 240.40 324.62
  L 240.96 326.73
  L 241.56 329.25
  L 241.48 329.52
  L 241.22 329.37
  L 239.11 328.10
  L 237.66 328.08
  L 236.49 328.21
  Z"
/>
<rect fill="none" stroke-width="1.00" stroke="#f4f4f4" vector-effect="non-scaling-stroke" x="-0.49" y="-4.96" transform="translate(243.50,314.99) rotate(-0.1)" width="0.98" height="9.92" rx="0.47"/>
<path fill="none" stroke-width="1.00" stroke="#f4f4f4" vector-effect="non-scaling-stroke" d="
  M 245.94 311.51
  L 245.53 310.78
  L 245.50 310.72
  L 245.80 310.29
  L 257.26 310.23
  L 259.45 311.18
  L 260.23 313.43
  L 260.25 316.75
  L 260.52 323.87
  L 261.81 328.80
  L 261.84 329.71
  L 261.78 329.75
  L 261.42 329.79
  L 260.93 329.30
  L 258.31 328.19
  L 253.18 327.80
  L 247.97 328.26
  L 244.72 329.44
  L 244.46 329.54
  L 244.49 329.28
  L 245.81 323.72
  L 246.12 316.22
  L 246.17 312.44
  L 245.94 311.51
  Z"
/>
<path fill="none" stroke-width="1.00" stroke="#f4f4f4" vector-effect="non-scaling-stroke" d="
  M 264.25 311.56
  L 264.05 313.63
  L 264.07 320.22
  L 263.56 321.54
  L 263.22 320.30
  L 263.07 311.71
  L 263.59 310.57
  L 264.71 310.11
  L 277.71 310.13
  L 279.60 310.71
  L 280.63 313.20
  L 281.70 328.97
  L 281.63 329.25
  L 281.34 329.18
  L 279.23 328.28
  L 276.73 327.90
  L 270.01 328.40
  L 269.06 328.27
  L 267.48 328.28
  L 265.23 329.16
  L 265.23 329.16
  L 264.25 329.52
  L 265.34 328.15
  L 265.71 327.30
  L 266.05 311.95
  L 265.66 311.12
  L 265.49 311.04
  L 264.81 310.95
  L 264.25 311.56
  Z"
/>
<path fill="none" stroke-width="1.00" stroke="#f4f4f4" vector-effect="non-scaling-stroke" d="
  M 286.81 310.36
  L 286.98 310.64
  L 284.85 311.08
  L 284.48 311.10
  L 284.02 311.79
  L 284.00 318.39
  L 283.65 319.90
  L 282.97 318.12
  L 283.01 314.33
  L 282.62 310.54
  L 282.62 310.50
  L 283.04 310.07
  L 283.76 310.06
  L 286.81 310.36
  Z"
/>
<path fill="none" stroke-width="1.00" stroke="#f4f4f4" vector-effect="non-scaling-stroke" d="
  M 302.44 329.25
  L 300.07 328.53
  L 295.00 328.00
  L 288.39 328.61
  L 288.39 328.61
  L 285.87 328.93
  L 285.82 328.93
  L 285.44 328.49
  L 286.24 314.86
  L 287.09 311.83
  L 288.51 310.65
  L 290.38 310.03
  L 296.49 309.92
  L 298.52 310.02
  L 299.42 310.36
  L 299.90 311.19
  L 300.88 318.33
  L 301.20 325.75
  L 301.54 327.47
  L 302.62 328.96
  L 302.91 329.34
  L 302.44 329.25
  Z"
/>
<path fill="none" stroke-width="1.00" stroke="#f4f4f4" vector-effect="non-scaling-stroke" d="
  M 326.21 328.40
  L 308.05 328.30
  L 307.16 328.66
  L 305.72 329.56
  L 305.40 329.64
  L 305.35 329.28
  L 306.15 321.22
  L 306.18 312.79
  L 306.68 311.02
  L 308.39 310.30
  L 318.07 309.92
  L 328.19 310.28
  L 330.24 311.15
  L 330.62 312.24
  L 331.11 321.46
  L 331.19 324.15
  L 331.72 326.29
  L 332.42 329.77
  L 332.39 329.78
  L 331.82 329.45
  L 330.49 328.52
  L 327.76 328.33
  L 326.21 328.40
  Z"
/>
<path fill="none" stroke-width="1.00" stroke="#f4f4f4" vector-effect="non-scaling-stroke" d="
  M 363.27 329.54
  L 360.78 328.70
  L 355.50 327.99
  L 348.41 328.42
  L 347.98 328.46
  L 347.54 328.55
  L 347.07 328.80
  L 345.42 329.67
  L 346.28 328.19
  L 346.63 327.29
  L 347.25 312.06
  L 347.92 310.34
  L 349.21 309.98
  L 360.52 310.41
  L 361.30 310.77
  L 361.66 311.61
  L 361.73 316.38
  L 361.73 316.38
  L 362.02 324.45
  L 363.47 329.30
  L 363.54 329.57
  L 363.27 329.54
  Z"
/>
<path fill="none" stroke-width="1.00" stroke="#f4f4f4" vector-effect="non-scaling-stroke" d="
  M 371.45 327.91
  L 368.40 328.29
  L 366.42 329.62
  L 366.22 329.75
  L 366.26 329.51
  L 367.34 326.03
  L 367.34 326.03
  L 368.10 319.78
  L 367.78 310.74
  L 368.22 310.20
  L 368.24 310.20
  L 380.00 310.15
  L 381.31 310.56
  L 381.91 312.07
  L 382.02 316.47
  L 382.02 316.47
  L 382.38 323.77
  L 383.69 329.30
  L 383.69 329.69
  L 383.44 329.77
  L 383.08 329.53
  L 381.66 328.30
  L 378.29 328.15
  L 376.27 328.31
  L 371.45 327.91
  Z"
/>
<path fill="none" stroke-width="1.00" stroke="#f4f4f4" vector-effect="non-scaling-stroke" d="
  M 389.48 328.21
  L 388.88 328.52
  L 388.30 329.23
  L 386.74 329.70
  L 386.44 329.60
  L 386.52 329.24
  L 386.72 328.91
  L 388.34 325.20
  L 388.42 323.77
  L 388.19 318.57
  L 388.03 310.78
  L 388.03 310.73
  L 388.49 310.45
  L 389.99 310.61
  L 390.62 310.48
  L 394.92 309.89
  L 401.28 310.22
  L 401.89 310.27
  L 402.45 310.82
  L 402.92 317.78
  L 402.64 323.85
  L 402.76 325.82
  L 404.52 328.90
  L 404.72 329.66
  L 404.09 329.40
  L 402.24 328.30
  L 399.30 327.67
  L 395.33 328.08
  L 389.48 328.21
  Z"
/>
<path fill="none" stroke-width="1.00" stroke="#f4f4f4" vector-effect="non-scaling-stroke" d="
  M 103.25 311.55
  L 102.94 316.30
  L 103.03 318.87
  L 102.53 321.01
  L 102.05 319.86
  L 101.92 314.04
  L 102.00 311.52
  L 102.38 310.71
  L 103.70 310.16
  L 105.36 310.37
  L 105.64 310.59
  L 105.39 310.81
  L 104.68 311.04
  L 103.81 311.11
  L 103.25 311.55
  Z"
/>
<path fill="none" stroke-width="1.00" stroke="#f4f4f4" vector-effect="non-scaling-stroke" d="
  M 186.75 311.04
  L 186.21 311.75
  L 185.25 310.42
  L 186.75 311.04
  Z"
/>
<path fill="none" stroke-width="1.00" stroke="#f4f4f4" vector-effect="non-scaling-stroke" d="
  M 203.69 318.75
  L 203.44 319.50
  L 203.09 318.79
  L 202.22 311.24
  L 202.57 310.37
  L 203.23 310.14
  L 203.23 310.14
  L 204.02 312.66
  L 203.69 318.75
  Z"
/>
<path fill="none" stroke-width="1.00" stroke="#f4f4f4" vector-effect="non-scaling-stroke" d="
  M 304.25 311.55
  L 303.94 316.12
  L 304.02 319.38
  L 303.53 320.69
  L 303.23 320.46
  L 302.99 312.53
  L 303.02 311.54
  L 303.35 310.66
  L 304.07 310.21
  L 305.33 310.29
  L 305.70 310.56
  L 305.39 310.80
  L 304.81 311.03
  L 304.25 311.55
  Z"
/>
<path fill="none" stroke-width="1.00" stroke="#f4f4f4" vector-effect="non-scaling-stroke" d="
  M 364.20 323.12
  L 364.12 313.93
  L 364.49 311.44
  L 365.21 310.35
  L 365.21 310.35
  L 365.29 310.34
  L 365.80 310.98
  L 365.84 317.28
  L 364.70 323.17
  L 364.38 323.79
  L 364.20 323.12
  Z"
/>
<path fill="none" stroke-width="1.00" stroke="#f4f4f4" vector-effect="non-scaling-stroke" d="
  M 414.28 314.00
  L 414.66 311.41
  L 414.73 314.55
  L 414.43 314.62
  L 414.28 314.00
  Z"
/>
<rect fill="none" stroke-width="1.00" stroke="#f4f4f4" vector-effect="non-scaling-stroke" x="-0.44" y="-3.30" transform="translate(344.51,315.37) rotate(0.9)" width="0.88" height="6.60" rx="0.42"/>
<path fill="none" stroke-width="1.00" stroke="#f4f4f4" vector-effect="non-scaling-stroke" d="
  M 31.81 312.35
  L 31.98 312.46
  L 32.07 312.96
  L 31.49 313.61
  L 31.28 313.56
  L 31.19 312.81
  L 31.77 312.34
  L 31.81 312.35
  Z"
/>
<ellipse fill="none" stroke-width="1.00" stroke="#f4f4f4" vector-effect="non-scaling-stroke" cx="0.00" cy="0.00" transform="translate(70.50,315.05) rotate(88.7)" rx="1.08" ry="0.52"/>
<path fill="none" stroke-width="1.00" stroke="#f4f4f4" vector-effect="non-scaling-stroke" d="
  M 432.25 328.29
  L 433.00 328.21
  L 433.68 329.96
  L 432.25 328.29
  Z"
/>
<path fill="none" stroke-width="1.00" stroke="#f4f4f4" vector-effect="non-scaling-stroke" d="
  M 438.40 332.14
  L 437.70 331.53
  L 437.55 331.29
  L 437.80 331.21
  L 452.83 330.97
  L 453.40 331.45
  L 453.40 331.46
  L 453.34 331.78
  L 452.82 332.47
  L 452.37 333.23
  L 452.26 335.04
  L 452.17 343.40
  L 453.75 349.10
  L 453.81 349.44
  L 453.47 349.51
  L 452.76 349.42
  L 452.76 349.42
  L 452.76 349.42
  L 446.24 348.79
  L 441.36 348.94
  L 437.96 349.89
  L 436.33 351.49
  L 436.05 353.02
  L 435.98 359.94
  L 435.47 362.81
  L 435.11 362.95
  L 434.90 362.46
  L 434.19 354.51
  L 434.48 353.61
  L 436.79 349.55
  L 437.84 346.17
  L 437.97 343.66
  L 438.14 336.70
  L 438.66 333.00
  L 438.40 332.14
  Z"
/>
<path fill="none" stroke-width="1.00" stroke="#f4f4f4" vector-effect="non-scaling-stroke" d="
  M 31.19 335.95
  L 31.14 333.06
  L 32.25 331.33
  L 32.47 331.21
  L 32.49 331.48
  L 31.79 335.87
  L 31.53 336.56
  L 31.19 335.95
  Z"
/>
<path fill="none" stroke-width="1.00" stroke="#f4f4f4" vector-effect="non-scaling-stroke" d="
  M 35.52 331.51
  L 51.46 330.67
  L 62.45 331.52
  L 62.95 332.12
  L 62.88 335.51
  L 63.02 344.97
  L 63.61 347.79
  L 64.69 349.79
  L 64.96 350.68
  L 64.55 350.79
  L 63.84 350.25
  L 63.26 349.40
  L 62.44 349.01
  L 49.34 349.00
  L 36.24 349.01
  L 33.66 350.38
  L 33.44 350.52
  L 33.44 350.25
  L 34.06 348.35
  L 34.84 345.25
  L 34.84 345.19
  L 35.03 332.06
  L 35.52 331.51
  Z"
/>
<rect fill="none" stroke-width="1.00" stroke="#f4f4f4" vector-effect="non-scaling-stroke" x="-0.55" y="-6.22" transform="translate(65.60,337.37) rotate(0.5)" width="1.10" height="12.44" rx="0.52"/>
<path fill="none" stroke-width="1.00" stroke="#f4f4f4" vector-effect="non-scaling-stroke" d="
  M 82.58 332.46
  L 82.66 335.98
  L 82.66 335.98
  L 83.15 344.62
  L 84.79 349.86
  L 84.80 350.61
  L 84.55 350.71
  L 84.16 350.47
  L 82.97 349.32
  L 81.68 349.03
  L 79.00 348.93
  L 79.00 348.93
  L 71.72 348.98
  L 67.55 350.45
  L 67.30 350.56
  L 67.32 350.29
  L 68.43 345.22
  L 68.95 338.55
  L 69.41 332.16
  L 69.96 331.58
  L 79.53 330.98
  L 82.94 331.29
  L 83.43 331.52
  L 83.31 331.83
  L 82.95 332.03
  L 82.58 332.46
  Z"
/>
<path fill="none" stroke-width="1.00" stroke="#f4f4f4" vector-effect="non-scaling-stroke" d="
  M 107.26 332.55
  L 107.14 335.77
  L 106.65 343.74
  L 106.64 343.74
  L 106.15 343.02
  L 105.97 336.66
  L 105.83 334.90
  L 106.10 332.00
  L 107.06 331.33
  L 108.85 331.05
  L 122.46 331.50
  L 123.06 332.04
  L 123.56 339.60
  L 123.79 345.05
  L 124.71 349.24
  L 124.71 349.24
  L 124.92 349.82
  L 124.93 350.19
  L 124.84 350.32
  L 124.20 350.21
  L 122.40 349.35
  L 119.84 348.94
  L 111.53 349.12
  L 111.53 349.12
  L 110.55 349.19
  L 109.72 349.34
  L 108.05 350.35
  L 107.75 350.59
  L 107.28 350.63
  L 107.27 350.61
  L 107.25 350.58
  L 107.35 350.13
  L 108.87 346.07
  L 109.32 338.04
  L 109.32 338.04
  L 109.56 332.57
  L 109.17 331.90
  L 108.68 331.81
  L 107.78 331.90
  L 107.26 332.55
  Z"
/>
<path fill="none" stroke-width="1.00" stroke="#f4f4f4" vector-effect="non-scaling-stroke" d="
  M 141.67 331.20
  L 142.38 331.14
  L 144.63 331.22
  L 143.66 332.22
  L 143.41 332.96
  L 144.08 336.94
  L 144.03 343.77
  L 144.03 343.77
  L 143.94 346.72
  L 144.21 347.63
  L 145.61 350.47
  L 143.63 349.32
  L 142.75 349.00
  L 128.98 349.44
  L 128.55 349.03
  L 128.55 349.00
  L 129.83 332.69
  L 129.43 331.92
  L 128.15 331.68
  L 127.24 332.32
  L 126.98 333.24
  L 126.93 341.43
  L 126.49 342.76
  L 126.06 341.55
  L 125.92 335.02
  L 126.00 332.24
  L 126.76 331.39
  L 130.76 331.08
  L 141.67 331.20
  Z"
/>
<path fill="none" stroke-width="1.00" stroke="#f4f4f4" vector-effect="non-scaling-stroke" d="
  M 148.95 331.81
  L 147.41 331.63
  L 147.44 331.46
  L 148.29 331.10
  L 163.76 331.12
  L 164.64 331.42
  L 164.35 332.19
  L 164.01 333.05
  L 163.94 336.06
  L 164.12 344.51
  L 165.89 350.15
  L 165.84 350.73
  L 165.84 350.73
  L 165.80 350.75
  L 165.63 350.79
  L 165.32 350.60
  L 163.90 349.61
  L 161.51 349.06
  L 152.90 348.94
  L 152.90 348.94
  L 151.04 349.00
  L 150.14 349.31
  L 148.46 350.45
  L 148.19 350.55
  L 148.23 350.25
  L 149.84 343.82
  L 150.03 335.27
  L 150.03 335.27
  L 149.98 332.74
  L 149.98 332.70
  L 148.95 331.81
  Z"
/>
<path fill="none" stroke-width="1.00" stroke="#f4f4f4" vector-effect="non-scaling-stroke" d="
  M 183.34 349.31
  L 173.70 349.09
  L 170.38 349.60
  L 168.58 350.42
  L 168.34 350.54
  L 168.36 350.29
  L 169.87 343.42
  L 169.85 335.50
  L 170.27 333.05
  L 171.77 331.68
  L 174.00 330.95
  L 181.71 330.91
  L 183.94 331.04
  L 183.96 331.04
  L 184.37 331.55
  L 183.98 339.84
  L 184.65 347.05
  L 185.18 348.40
  L 185.81 350.54
  L 184.23 349.69
  L 183.34 349.31
  Z"
/>
<path fill="none" stroke-width="1.00" stroke="#f4f4f4" vector-effect="non-scaling-stroke" d="
  M 205.08 349.44
  L 204.69 349.42
  L 192.55 349.05
  L 190.77 349.07
  L 189.24 350.00
  L 188.44 350.70
  L 188.42 350.70
  L 188.12 350.58
  L 188.35 350.12
  L 189.33 348.30
  L 189.90 345.72
  L 190.24 337.01
  L 190.24 337.01
  L 190.27 333.51
  L 190.87 331.89
  L 192.43 331.21
  L 198.50 330.94
  L 204.24 331.57
  L 204.55 331.99
  L 204.29 340.73
  L 205.46 348.98
  L 205.14 349.44
  L 205.08 349.44
  Z"
/>
<path fill="none" stroke-width="1.00" stroke="#f4f4f4" vector-effect="non-scaling-stroke" d="
  M 226.38 350.63
  L 224.26 349.55
  L 220.70 348.95
  L 210.49 349.37
  L 209.85 349.44
  L 209.82 349.44
  L 209.42 348.99
  L 210.48 333.87
  L 211.30 331.80
  L 212.92 331.06
  L 217.72 330.88
  L 223.27 331.69
  L 224.34 332.33
  L 224.81 333.48
  L 224.81 337.31
  L 224.81 337.31
  L 225.08 345.80
  L 225.68 348.35
  L 226.74 350.20
  L 226.80 350.60
  L 226.78 350.61
  L 226.65 350.69
  L 226.38 350.63
  Z"
/>
<path fill="none" stroke-width="1.00" stroke="#f4f4f4" vector-effect="non-scaling-stroke" d="
  M 228.30 332.56
  L 227.77 342.30
  L 227.41 342.68
  L 227.35 342.66
  L 226.99 338.16
  L 226.49 331.93
  L 226.65 331.31
  L 226.68 331.30
  L 228.46 331.02
  L 229.80 331.38
  L 230.74 331.53
  L 235.80 331.01
  L 244.01 331.22
  L 244.53 331.78
  L 244.62 335.78
  L 245.10 344.39
  L 246.78 349.84
  L 246.78 350.64
  L 246.67 350.70
  L 246.17 350.59
  L 242.68 349.44
  L 237.16 349.09
  L 231.23 349.40
  L 230.36 349.79
  L 229.18 350.48
  L 229.76 348.85
  L 230.13 348.06
  L 231.14 336.86
  L 230.59 333.40
  L 229.45 332.03
  L 229.45 332.03
  L 228.80 331.97
  L 228.30 332.56
  Z"
/>
<path fill="none" stroke-width="1.00" stroke="#f4f4f4" vector-effect="non-scaling-stroke" d="
  M 266.24 350.50
  L 265.06 349.56
  L 262.97 349.06
  L 254.94 348.93
  L 251.98 349.00
  L 249.57 350.46
  L 249.31 350.59
  L 249.29 350.31
  L 249.95 348.20
  L 250.68 345.50
  L 251.00 338.77
  L 251.20 331.93
  L 251.69 331.36
  L 258.33 330.93
  L 264.87 331.27
  L 265.31 331.83
  L 264.96 342.40
  L 265.63 346.69
  L 266.82 350.12
  L 266.73 350.66
  L 266.64 350.70
  L 266.53 350.72
  L 266.24 350.50
  Z"
/>
<path fill="none" stroke-width="1.00" stroke="#f4f4f4" vector-effect="non-scaling-stroke" d="
  M 267.72 333.72
  L 267.61 333.03
  L 267.57 331.04
  L 268.68 331.85
  L 269.01 332.75
  L 269.02 333.61
  L 268.72 342.79
  L 268.41 342.95
  L 268.23 342.45
  L 267.72 333.72
  Z"
/>
<path fill="none" stroke-width="1.00" stroke="#f4f4f4" vector-effect="non-scaling-stroke" d="
  M 270.70 349.58
  L 270.24 349.16
  L 270.25 349.10
  L 270.81 341.44
  L 271.64 332.78
  L 271.29 332.13
  L 270.63 331.60
  L 270.60 331.56
  L 270.51 331.22
  L 270.89 331.09
  L 282.80 331.03
  L 284.61 331.63
  L 285.18 333.56
  L 285.10 335.36
  L 285.12 343.28
  L 286.58 349.07
  L 286.61 349.39
  L 286.29 349.46
  L 279.28 349.02
  L 270.70 349.58
  Z"
/>
<path fill="none" stroke-width="1.00" stroke="#f4f4f4" vector-effect="non-scaling-stroke" d="
  M 332.21 349.25
  L 331.54 349.50
  L 330.18 349.24
  L 294.23 348.97
  L 292.35 349.38
  L 290.52 349.60
  L 290.69 347.53
  L 291.01 346.08
  L 291.12 333.56
  L 290.32 331.84
  L 289.35 332.14
  L 288.98 332.99
  L 288.98 343.18
  L 288.50 343.76
  L 288.48 343.76
  L 288.48 343.76
  L 288.01 341.19
  L 287.98 333.93
  L 287.99 333.04
  L 287.59 332.26
  L 286.68 331.54
  L 286.49 331.29
  L 286.80 331.20
  L 329.23 331.08
  L 330.33 331.52
  L 330.82 332.61
  L 330.92 336.52
  L 331.24 343.91
  L 332.21 349.25
  Z"
/>
<path fill="none" stroke-width="1.00" stroke="#f4f4f4" vector-effect="non-scaling-stroke" d="
  M 432.81 350.38
  L 432.23 349.43
  L 431.19 349.06
  L 419.03 349.01
  L 418.13 349.29
  L 416.60 350.45
  L 416.37 350.55
  L 416.37 350.30
  L 417.99 340.40
  L 417.57 331.60
  L 417.96 331.10
  L 417.99 331.10
  L 431.78 331.01
  L 432.25 331.49
  L 432.25 331.51
  L 432.23 331.72
  L 431.95 342.80
  L 432.63 347.02
  L 433.84 350.34
  L 433.64 350.82
  L 433.57 350.83
  L 432.92 350.60
  L 432.81 350.38
  Z"
/>
<path fill="none" stroke-width="1.00" stroke="#f4f4f4" vector-effect="non-scaling-stroke" d="
  M 434.19 331.94
  L 434.79 331.04
  L 435.44 331.35
  L 435.81 332.26
  L 435.99 339.28
  L 435.69 343.40
  L 435.42 343.76
  L 435.41 343.76
  L 435.25 343.74
  L 435.08 343.54
  L 433.96 336.96
  L 434.19 331.94
  Z"
/>
<path fill="none" stroke-width="1.00" stroke="#f4f4f4" vector-effect="non-scaling-stroke" d="
  M 458.20 332.21
  L 457.86 332.22
  L 457.86 332.22
  L 457.86 332.22
  L 457.02 332.93
  L 456.46 334.42
  L 455.83 340.26
  L 455.83 340.26
  L 455.74 341.66
  L 455.43 342.79
  L 454.99 341.50
  L 455.01 332.46
  L 455.36 331.58
  L 456.21 331.21
  L 472.84 331.11
  L 472.86 331.11
  L 473.30 331.62
  L 473.24 332.35
  L 472.94 343.02
  L 473.54 346.97
  L 474.61 349.81
  L 474.72 350.66
  L 474.53 350.86
  L 474.44 350.89
  L 474.09 350.54
  L 472.86 349.57
  L 470.32 349.05
  L 460.70 349.04
  L 460.70 349.04
  L 459.58 349.09
  L 458.14 350.12
  L 457.51 350.86
  L 457.42 350.86
  L 457.36 350.85
  L 457.17 350.19
  L 458.78 343.78
  L 458.81 335.06
  L 458.71 332.81
  L 458.20 332.21
  Z"
/>
<ellipse fill="none" stroke-width="1.00" stroke="#f4f4f4" vector-effect="non-scaling-stroke" cx="0.00" cy="0.00" transform="translate(475.85,336.13) rotate(90.3)" rx="5.15" ry="0.89"/>
<ellipse fill="none" stroke-width="1.00" stroke="#f4f4f4" vector-effect="non-scaling-stroke" cx="0.00" cy="0.00" transform="translate(85.88,335.67) rotate(88.2)" rx="4.62" ry="0.94"/>
<path fill="none" stroke-width="1.00" stroke="#f4f4f4" vector-effect="non-scaling-stroke" d="
  M 104.19 350.50
  L 102.81 349.47
  L 100.30 348.97
  L 90.91 349.13
  L 90.91 349.13
  L 89.81 349.21
  L 88.77 349.48
  L 87.94 350.35
  L 87.35 350.80
  L 87.15 350.73
  L 87.06 350.60
  L 87.22 350.07
  L 88.30 348.06
  L 88.93 345.46
  L 89.27 337.11
  L 89.28 333.52
  L 89.84 331.96
  L 91.36 331.31
  L 101.44 331.61
  L 102.40 331.47
  L 103.64 331.30
  L 103.29 332.57
  L 103.01 333.40
  L 103.01 333.49
  L 103.13 343.27
  L 104.89 350.13
  L 104.76 350.76
  L 104.76 350.76
  L 104.50 350.78
  L 104.19 350.50
  Z"
/>
<path fill="none" stroke-width="1.00" stroke="#f4f4f4" vector-effect="non-scaling-stroke" d="
  M 146.81 342.31
  L 146.48 342.98
  L 146.26 341.96
  L 146.04 332.52
  L 146.48 332.11
  L 146.53 332.12
  L 147.39 332.91
  L 147.71 334.08
  L 146.81 342.31
  Z"
/>
<rect fill="none" stroke-width="1.00" stroke="#f4f4f4" vector-effect="non-scaling-stroke" x="-0.46" y="-5.80" transform="translate(207.53,337.87) rotate(-0.6)" width="0.92" height="11.60" rx="0.44"/>
<ellipse fill="none" stroke-width="1.00" stroke="#f4f4f4" vector-effect="non-scaling-stroke" cx="0.00" cy="0.00" transform="translate(247.98,336.33) rotate(90.6)" rx="4.47" ry="1.03"/>
<ellipse fill="none" stroke-width="1.00" stroke="#f4f4f4" vector-effect="non-scaling-stroke" cx="0.00" cy="0.00" transform="translate(414.59,333.91) rotate(88.9)" rx="1.89" ry="0.46"/>
<path fill="none" stroke-width="1.00" stroke="#f4f4f4" vector-effect="non-scaling-stroke" d="
  M 166.13 333.51
  L 166.82 332.17
  L 167.60 332.45
  L 167.97 333.32
  L 167.67 339.69
  L 167.10 342.01
  L 166.76 341.51
  L 166.05 337.99
  L 166.13 333.51
  Z"
/>
<rect fill="none" stroke-width="1.00" stroke="#f4f4f4" vector-effect="non-scaling-stroke" x="-0.56" y="-5.25" transform="translate(187.42,337.56) rotate(-2.1)" width="1.12" height="10.50" rx="0.34"/>
<path fill="none" stroke-width="1.00" stroke="#f4f4f4" vector-effect="non-scaling-stroke" d="
  M 332.21 349.25
  L 332.49 350.81
  L 331.54 349.50
  L 332.21 349.25
  Z"
/>
<path fill="none" stroke-width="1.00" stroke="#f4f4f4" vector-effect="non-scaling-stroke" d="
  M 364.21 352.19
  L 363.21 351.45
  L 363.90 350.32
  L 364.80 350.02
  L 383.22 350.23
  L 385.96 350.96
  L 384.58 352.44
  L 384.12 353.18
  L 384.04 354.53
  L 384.04 354.53
  L 383.98 361.23
  L 384.41 362.97
  L 385.24 363.87
  L 385.29 363.89
  L 385.91 364.48
  L 387.27 369.11
  L 388.14 370.48
  L 389.76 370.97
  L 403.80 371.04
  L 405.44 371.59
  L 405.98 373.23
  L 405.98 393.78
  L 405.62 394.64
  L 404.76 395.00
  L 344.23 395.00
  L 343.42 394.67
  L 343.08 393.87
  L 342.92 372.66
  L 342.92 372.66
  L 343.39 371.51
  L 344.54 371.04
  L 358.90 371.02
  L 361.01 370.35
  L 361.85 368.71
  L 362.33 366.21
  L 362.83 365.43
  L 363.36 364.65
  L 363.36 363.94
  L 363.60 363.17
  L 364.42 361.74
  L 364.85 359.56
  L 364.75 352.81
  L 364.21 352.19
  Z"
/>
<path fill="none" stroke-width="1.00" stroke="#f4f4f4" vector-effect="non-scaling-stroke" d="
  M 71.93 370.06
  L 36.71 370.01
  L 35.08 370.27
  L 33.73 371.36
  L 33.52 371.50
  L 33.53 371.25
  L 34.95 362.82
  L 34.92 354.50
  L 35.39 352.63
  L 37.20 352.01
  L 70.26 352.01
  L 72.08 352.59
  L 72.87 354.35
  L 73.17 359.97
  L 73.98 368.53
  L 74.75 371.27
  L 74.77 371.55
  L 74.51 371.46
  L 72.86 370.34
  L 71.93 370.06
  Z"
/>
<path fill="none" stroke-width="1.00" stroke="#f4f4f4" vector-effect="non-scaling-stroke" d="
  M 92.94 370.05
  L 89.81 369.96
  L 81.45 370.02
  L 79.28 370.49
  L 78.07 371.39
  L 77.62 371.79
  L 77.51 371.77
  L 77.41 371.71
  L 77.39 371.34
  L 78.85 366.21
  L 79.33 358.64
  L 79.33 358.64
  L 79.64 352.52
  L 80.19 352.00
  L 91.75 352.40
  L 92.88 352.78
  L 93.57 354.99
  L 93.40 357.74
  L 93.27 364.99
  L 94.64 369.53
  L 94.73 371.67
  L 93.67 370.50
  L 92.94 370.05
  Z"
/>
<rect fill="none" stroke-width="1.00" stroke="#f4f4f4" vector-effect="non-scaling-stroke" x="-0.49" y="-5.92" transform="translate(96.50,358.02) rotate(-0.2)" width="0.98" height="11.84" rx="0.47"/>
<path fill="none" stroke-width="1.00" stroke="#f4f4f4" vector-effect="non-scaling-stroke" d="
  M 113.19 370.05
  L 100.50 370.00
  L 99.58 370.28
  L 98.48 370.63
  L 98.14 370.63
  L 98.16 370.21
  L 98.47 369.42
  L 99.58 365.42
  L 99.60 364.43
  L 99.20 355.84
  L 99.92 353.17
  L 102.48 352.07
  L 114.20 352.30
  L 114.59 352.48
  L 114.49 352.81
  L 114.28 353.09
  L 114.01 353.66
  L 113.99 367.48
  L 114.41 368.81
  L 115.62 371.34
  L 115.54 371.61
  L 115.16 371.41
  L 114.08 370.35
  L 113.19 370.05
  Z"
/>
<path fill="none" stroke-width="1.00" stroke="#f4f4f4" vector-effect="non-scaling-stroke" d="
  M 132.71 370.05
  L 130.32 369.98
  L 123.63 369.99
  L 118.76 370.81
  L 118.44 370.80
  L 118.44 370.47
  L 119.58 365.89
  L 120.05 360.79
  L 119.74 355.55
  L 120.20 353.16
  L 122.39 352.10
  L 127.38 351.88
  L 133.25 352.42
  L 133.76 353.00
  L 133.79 356.98
  L 134.12 365.61
  L 135.66 370.81
  L 135.75 371.17
  L 134.09 370.61
  L 132.71 370.05
  Z"
/>
<path fill="none" stroke-width="1.00" stroke="#f4f4f4" vector-effect="non-scaling-stroke" d="
  M 154.98 371.41
  L 153.74 370.43
  L 151.19 369.97
  L 141.44 370.18
  L 141.44 370.18
  L 140.55 370.24
  L 139.69 370.63
  L 139.29 370.94
  L 138.50 371.32
  L 138.19 371.33
  L 138.26 371.02
  L 139.85 365.72
  L 140.25 357.31
  L 140.25 357.31
  L 140.28 354.39
  L 140.91 352.66
  L 142.48 352.14
  L 152.70 352.06
  L 153.52 352.41
  L 153.87 353.26
  L 153.88 356.57
  L 153.88 356.57
  L 154.21 365.25
  L 155.79 371.07
  L 155.68 371.77
  L 155.61 371.78
  L 155.32 371.77
  L 154.98 371.41
  Z"
/>
<path fill="none" stroke-width="1.00" stroke="#f4f4f4" vector-effect="non-scaling-stroke" d="
  M 173.68 370.05
  L 161.24 370.15
  L 160.33 370.48
  L 158.19 371.74
  L 159.31 369.91
  L 159.66 369.03
  L 159.91 355.51
  L 160.73 353.11
  L 162.56 352.22
  L 167.11 351.91
  L 172.81 352.32
  L 173.84 352.86
  L 174.25 353.96
  L 174.20 356.69
  L 174.20 356.69
  L 174.49 365.27
  L 176.50 371.24
  L 176.58 371.50
  L 176.34 371.41
  L 174.61 370.33
  L 173.68 370.05
  Z"
/>
<path fill="none" stroke-width="1.00" stroke="#f4f4f4" vector-effect="non-scaling-stroke" d="
  M 193.94 370.05
  L 181.75 370.02
  L 180.72 370.30
  L 179.29 370.51
  L 179.65 368.84
  L 180.19 365.83
  L 180.37 359.37
  L 180.37 359.37
  L 180.48 354.79
  L 181.23 352.89
  L 183.10 352.10
  L 194.12 352.34
  L 194.67 352.89
  L 194.85 358.97
  L 194.85 358.97
  L 195.15 366.14
  L 196.54 371.25
  L 196.60 371.57
  L 196.31 371.45
  L 194.81 370.39
  L 193.94 370.05
  Z"
/>
<path fill="none" stroke-width="1.00" stroke="#f4f4f4" vector-effect="non-scaling-stroke" d="
  M 216.32 371.63
  L 214.80 370.58
  L 212.42 370.02
  L 203.99 369.92
  L 201.78 370.00
  L 200.94 370.37
  L 199.18 371.74
  L 199.89 369.68
  L 200.69 367.08
  L 201.10 362.97
  L 200.56 352.65
  L 200.95 352.11
  L 200.98 352.11
  L 212.40 352.21
  L 214.24 352.82
  L 214.97 354.92
  L 214.90 358.39
  L 215.08 365.88
  L 216.79 370.96
  L 216.79 371.60
  L 216.62 371.73
  L 216.61 371.73
  L 216.32 371.63
  Z"
/>
<ellipse fill="none" stroke-width="1.00" stroke="#f4f4f4" vector-effect="non-scaling-stroke" cx="0.00" cy="0.00" transform="translate(218.10,356.06) rotate(93.2)" rx="3.94" ry="1.00"/>
<path fill="none" stroke-width="1.00" stroke="#f4f4f4" vector-effect="non-scaling-stroke" d="
  M 232.82 370.04
  L 222.05 370.02
  L 221.15 370.33
  L 219.81 371.51
  L 219.15 371.73
  L 219.07 371.07
  L 220.89 366.16
  L 221.06 358.84
  L 220.97 355.73
  L 221.22 354.00
  L 221.97 352.81
  L 223.38 352.12
  L 233.45 352.02
  L 235.06 352.11
  L 235.08 352.11
  L 235.47 352.63
  L 234.95 357.61
  L 235.06 362.53
  L 236.54 370.21
  L 236.24 370.67
  L 236.18 370.67
  L 234.55 370.35
  L 232.82 370.04
  Z"
/>
<path fill="none" stroke-width="1.00" stroke="#f4f4f4" vector-effect="non-scaling-stroke" d="
  M 241.18 353.03
  L 240.66 352.79
  L 240.46 352.55
  L 240.38 352.21
  L 240.79 352.07
  L 254.92 352.04
  L 255.42 352.55
  L 256.16 368.54
  L 256.52 369.44
  L 256.88 370.69
  L 255.62 370.27
  L 254.70 370.01
  L 251.97 369.93
  L 251.97 369.93
  L 245.01 369.86
  L 241.39 370.58
  L 239.64 371.50
  L 239.38 371.57
  L 239.47 371.32
  L 240.92 367.01
  L 241.31 359.56
  L 241.31 359.56
  L 241.61 353.55
  L 241.18 353.03
  Z"
/>
<rect fill="none" stroke-width="1.00" stroke="#f4f4f4" vector-effect="non-scaling-stroke" x="258.01" y="352.13" width="0.98" height="10.82" rx="0.47"/>
<path fill="none" stroke-width="1.00" stroke="#f4f4f4" vector-effect="non-scaling-stroke" d="
  M 274.94 370.06
  L 272.29 369.95
  L 265.66 369.80
  L 262.13 370.35
  L 260.49 370.55
  L 260.69 368.53
  L 261.04 367.13
  L 262.15 352.94
  L 263.02 352.13
  L 275.47 352.51
  L 275.97 353.07
  L 275.87 356.92
  L 275.87 356.92
  L 275.77 364.93
  L 276.46 369.11
  L 276.62 369.42
  L 277.43 371.94
  L 277.33 371.98
  L 276.95 371.71
  L 275.84 370.35
  L 274.94 370.06
  Z"
/>
<path fill="none" stroke-width="1.00" stroke="#f4f4f4" vector-effect="non-scaling-stroke" d="
  M 329.33 370.06
  L 283.00 370.02
  L 282.08 370.20
  L 280.65 371.59
  L 280.06 371.99
  L 279.90 371.91
  L 280.01 371.28
  L 281.10 368.70
  L 281.10 368.70
  L 281.96 364.52
  L 282.08 358.95
  L 282.08 358.95
  L 282.07 355.12
  L 282.90 352.79
  L 285.23 352.02
  L 329.04 352.01
  L 330.25 352.50
  L 330.79 353.69
  L 330.92 357.40
  L 330.92 357.40
  L 331.37 365.26
  L 332.56 371.25
  L 332.57 371.52
  L 332.33 371.41
  L 332.08 371.20
  L 330.74 370.28
  L 329.33 370.06
  Z"
/>
<path fill="none" stroke-width="1.00" stroke="#f4f4f4" vector-effect="non-scaling-stroke" d="
  M 380.86 370.35
  L 377.17 369.86
  L 371.57 369.89
  L 371.57 369.89
  L 368.26 369.96
  L 367.37 370.29
  L 365.12 371.91
  L 366.49 369.62
  L 366.80 368.71
  L 367.27 353.90
  L 367.68 352.90
  L 368.64 352.40
  L 380.89 352.11
  L 381.35 352.64
  L 381.03 362.79
  L 382.08 368.10
  L 382.62 370.25
  L 380.86 370.35
  Z"
/>
<path fill="none" stroke-width="1.00" stroke="#f4f4f4" vector-effect="non-scaling-stroke" d="
  M 431.94 370.47
  L 425.25 369.86
  L 416.50 370.77
  L 416.22 370.74
  L 416.28 370.46
  L 417.33 367.63
  L 417.95 363.41
  L 417.68 352.55
  L 418.09 352.04
  L 418.12 352.04
  L 429.83 352.13
  L 431.17 352.58
  L 431.71 354.00
  L 431.78 357.92
  L 432.19 365.88
  L 433.83 371.09
  L 433.66 371.63
  L 433.59 371.64
  L 432.98 371.52
  L 432.58 371.04
  L 431.94 370.47
  Z"
/>
<path fill="none" stroke-width="1.00" stroke="#f4f4f4" vector-effect="non-scaling-stroke" d="
  M 454.12 371.61
  L 452.54 370.49
  L 449.82 369.95
  L 439.81 370.17
  L 439.81 370.17
  L 438.66 370.26
  L 437.84 370.68
  L 436.58 371.56
  L 436.55 371.57
  L 436.24 371.60
  L 436.32 371.29
  L 437.90 366.06
  L 438.42 357.14
  L 438.57 352.62
  L 439.11 352.10
  L 449.69 352.04
  L 451.65 352.66
  L 452.31 353.74
  L 452.48 355.34
  L 452.34 358.04
  L 452.34 358.04
  L 452.26 364.13
  L 453.27 368.63
  L 453.27 368.63
  L 454.60 371.23
  L 454.59 371.74
  L 454.59 371.74
  L 454.40 371.79
  L 454.12 371.61
  Z"
/>
<path fill="none" stroke-width="1.00" stroke="#f4f4f4" vector-effect="non-scaling-stroke" d="
  M 474.30 371.61
  L 472.54 370.64
  L 469.35 369.99
  L 460.32 369.97
  L 460.32 369.97
  L 459.74 370.00
  L 459.18 370.11
  L 457.92 371.28
  L 457.20 371.69
  L 456.91 371.50
  L 457.03 370.54
  L 457.87 368.57
  L 458.95 363.70
  L 459.06 357.14
  L 459.02 353.89
  L 459.49 352.49
  L 460.86 352.03
  L 471.32 352.02
  L 472.36 352.44
  L 472.83 353.46
  L 472.86 358.17
  L 472.86 358.17
  L 473.13 365.83
  L 474.72 371.03
  L 474.68 371.66
  L 474.30 371.61
  Z"
/>
<path fill="none" stroke-width="1.00" stroke="#f4f4f4" vector-effect="non-scaling-stroke" d="
  M 493.06 391.05
  L 489.83 390.96
  L 489.83 390.96
  L 481.27 391.02
  L 479.08 391.49
  L 477.89 392.36
  L 477.34 392.78
  L 477.17 392.73
  L 477.11 392.68
  L 477.08 392.29
  L 478.50 388.65
  L 478.97 385.69
  L 479.02 354.11
  L 479.58 352.46
  L 481.02 352.03
  L 494.35 352.36
  L 495.25 352.77
  L 495.64 353.73
  L 496.04 382.45
  L 495.70 392.69
  L 495.06 392.35
  L 494.08 391.28
  L 493.06 391.05
  Z"
/>
<path fill="none" stroke-width="1.00" stroke="#f4f4f4" vector-effect="non-scaling-stroke" d="
  M 76.36 352.67
  L 76.81 352.16
  L 76.98 352.83
  L 76.99 353.33
  L 76.71 363.95
  L 76.67 363.96
  L 76.24 363.54
  L 75.99 358.99
  L 75.78 358.06
  L 75.49 357.25
  L 75.44 355.08
  L 76.36 352.67
  Z"
/>
<rect fill="none" stroke-width="1.00" stroke="#f4f4f4" vector-effect="non-scaling-stroke" x="-0.59" y="-5.76" transform="translate(116.60,358.11) rotate(0.9)" width="1.18" height="11.52" rx="0.55"/>
<ellipse fill="none" stroke-width="1.00" stroke="#f4f4f4" vector-effect="non-scaling-stroke" cx="0.00" cy="0.00" transform="translate(137.18,357.02) rotate(90.6)" rx="5.05" ry="0.91"/>
<rect fill="none" stroke-width="1.00" stroke="#f4f4f4" vector-effect="non-scaling-stroke" x="-0.49" y="-5.71" transform="translate(157.50,357.99) rotate(0.1)" width="0.98" height="11.42" rx="0.48"/>
<rect fill="none" stroke-width="1.00" stroke="#f4f4f4" vector-effect="non-scaling-stroke" x="-0.54" y="-5.61" transform="translate(238.47,357.97) rotate(-1.1)" width="1.08" height="11.22" rx="0.47"/>
<path fill="none" stroke-width="1.00" stroke="#f4f4f4" vector-effect="non-scaling-stroke" d="
  M 278.30 362.83
  L 278.15 352.70
  L 278.29 352.38
  L 278.60 352.51
  L 279.65 355.21
  L 279.12 360.35
  L 279.12 360.35
  L 278.82 362.29
  L 278.35 362.85
  L 278.30 362.83
  Z"
/>
<rect fill="none" stroke-width="1.00" stroke="#f4f4f4" vector-effect="non-scaling-stroke" x="-0.62" y="-5.71" transform="translate(455.62,358.11) rotate(1.5)" width="1.24" height="11.42" rx="0.60"/>
<ellipse fill="none" stroke-width="1.00" stroke="#f4f4f4" vector-effect="non-scaling-stroke" cx="0.00" cy="0.00" transform="translate(475.96,356.53) rotate(90.0)" rx="4.50" ry="1.02"/>
<rect fill="none" stroke-width="1.00" stroke="#f4f4f4" vector-effect="non-scaling-stroke" x="-0.47" y="-4.94" transform="translate(177.50,358.00) rotate(-0.2)" width="0.94" height="9.88" rx="0.45"/>
<rect fill="none" stroke-width="1.00" stroke="#f4f4f4" vector-effect="non-scaling-stroke" x="-0.57" y="-5.36" transform="translate(197.57,358.46) rotate(1.6)" width="1.14" height="10.72" rx="0.55"/>
<ellipse fill="none" stroke-width="1.00" stroke="#f4f4f4" vector-effect="non-scaling-stroke" cx="0.00" cy="0.00" transform="translate(414.56,356.52) rotate(89.6)" rx="3.46" ry="0.53"/>
<ellipse fill="none" stroke-width="1.00" stroke="#f4f4f4" vector-effect="non-scaling-stroke" cx="0.00" cy="0.00" transform="translate(31.54,356.01) rotate(89.9)" rx="1.79" ry="0.53"/>
<path fill="none" stroke-width="1.00" stroke="#f4f4f4" vector-effect="non-scaling-stroke" d="
  M 60.97 373.19
  L 62.00 374.24
  L 62.02 376.31
  L 62.02 376.31
  L 61.70 384.28
  L 60.73 392.24
  L 60.56 392.56
  L 60.24 392.44
  L 59.18 391.52
  L 58.34 391.14
  L 42.10 390.92
  L 33.76 391.49
  L 33.40 391.40
  L 33.45 391.07
  L 34.07 389.92
  L 34.41 389.01
  L 35.14 374.48
  L 35.56 373.48
  L 36.50 373.08
  L 60.97 373.19
  Z
  M 59.79 380.25
  L 58.78 383.54
  L 58.85 386.42
  L 59.36 387.99
  L 59.85 386.42
  L 60.25 380.29
  L 60.79 379.56
  L 60.72 379.21
  L 60.69 379.16
  L 59.98 379.03
  L 59.79 379.24
  L 59.79 380.25
  Z"
/>
<path fill="none" stroke-width="1.00" stroke="#f4f4f4" vector-effect="non-scaling-stroke" d="
  M 83.95 391.00
  L 77.11 391.00
  L 63.83 391.44
  L 63.78 391.44
  L 63.41 391.00
  L 63.64 389.24
  L 64.40 377.06
  L 64.62 374.85
  L 65.29 373.66
  L 65.29 373.66
  L 68.35 373.06
  L 69.43 373.04
  L 82.14 373.25
  L 84.27 374.12
  L 84.90 376.07
  L 84.96 387.75
  L 85.04 388.29
  L 85.20 388.68
  L 85.85 390.39
  L 85.98 391.47
  L 85.86 391.86
  L 85.50 391.77
  L 84.80 391.33
  L 83.95 391.00
  Z"
/>
<path fill="none" stroke-width="1.00" stroke="#f4f4f4" vector-effect="non-scaling-stroke" d="
  M 109.96 390.99
  L 102.53 390.96
  L 102.53 390.96
  L 95.16 390.94
  L 89.47 391.52
  L 89.16 391.47
  L 89.20 391.16
  L 90.29 388.27
  L 91.04 383.63
  L 90.91 377.41
  L 90.83 375.96
  L 91.46 373.74
  L 93.54 373.05
  L 109.46 373.10
  L 109.46 373.10
  L 110.53 373.55
  L 110.98 374.65
  L 110.96 377.87
  L 110.96 377.87
  L 111.11 385.31
  L 112.11 391.02
  L 112.11 391.02
  L 112.56 392.50
  L 112.59 392.79
  L 112.32 392.65
  L 110.82 391.32
  L 109.96 390.99
  Z"
/>
<path fill="none" stroke-width="1.00" stroke="#f4f4f4" vector-effect="non-scaling-stroke" d="
  M 168.19 390.76
  L 154.57 390.77
  L 117.00 391.11
  L 116.15 391.49
  L 115.84 391.65
  L 115.35 391.66
  L 115.29 391.64
  L 115.16 391.06
  L 116.88 385.86
  L 117.08 377.97
  L 117.01 374.89
  L 117.48 373.48
  L 118.89 373.01
  L 145.17 372.95
  L 224.27 373.28
  L 224.82 373.78
  L 224.84 384.07
  L 223.71 391.29
  L 223.10 391.71
  L 221.86 391.36
  L 220.35 390.99
  L 220.27 390.99
  L 180.30 390.74
  L 168.19 390.76
  Z"
/>
<path fill="none" stroke-width="1.00" stroke="#f4f4f4" vector-effect="non-scaling-stroke" d="
  M 249.04 392.26
  L 246.70 391.15
  L 241.56 390.65
  L 233.73 390.85
  L 226.52 391.62
  L 226.16 391.58
  L 226.19 391.23
  L 227.70 387.86
  L 227.85 386.94
  L 227.11 381.82
  L 227.29 377.48
  L 227.41 373.78
  L 227.76 373.25
  L 227.78 373.25
  L 241.30 373.05
  L 246.95 373.49
  L 247.51 374.03
  L 248.08 380.56
  L 247.95 386.76
  L 247.97 387.44
  L 248.17 388.15
  L 249.52 392.30
  L 249.43 392.63
  L 249.04 392.26
  Z"
/>
<path fill="none" stroke-width="1.00" stroke="#f4f4f4" vector-effect="non-scaling-stroke" d="
  M 271.93 390.58
  L 268.37 390.66
  L 252.42 391.61
  L 252.12 391.55
  L 252.18 391.23
  L 253.25 388.56
  L 253.91 384.73
  L 253.79 374.42
  L 253.73 373.60
  L 254.19 373.09
  L 254.20 373.09
  L 272.51 373.04
  L 273.48 373.44
  L 273.89 374.42
  L 274.11 388.29
  L 274.41 389.19
  L 275.62 391.72
  L 272.88 390.81
  L 271.93 390.58
  Z"
/>
<rect fill="none" stroke-width="1.00" stroke="#f4f4f4" vector-effect="non-scaling-stroke" x="-0.52" y="-5.37" transform="translate(276.57,378.53) rotate(1.2)" width="1.04" height="10.74" rx="0.26"/>
<path fill="none" stroke-width="1.00" stroke="#f4f4f4" vector-effect="non-scaling-stroke" d="
  M 301.24 391.57
  L 290.55 390.72
  L 278.49 391.47
  L 278.18 391.41
  L 278.23 391.09
  L 279.73 386.14
  L 280.11 378.71
  L 280.11 378.71
  L 280.16 375.64
  L 280.87 373.72
  L 282.80 373.06
  L 297.28 373.02
  L 299.40 373.75
  L 300.08 376.29
  L 299.97 385.22
  L 301.51 391.22
  L 301.56 391.52
  L 301.24 391.57
  Z"
/>
<path fill="none" stroke-width="1.00" stroke="#f4f4f4" vector-effect="non-scaling-stroke" d="
  M 304.48 387.02
  L 303.64 387.62
  L 303.20 387.53
  L 303.18 387.48
  L 302.06 378.74
  L 302.02 374.06
  L 303.01 373.10
  L 328.73 373.01
  L 330.70 373.68
  L 331.14 375.74
  L 331.12 384.71
  L 332.49 391.10
  L 332.20 391.54
  L 332.14 391.54
  L 327.89 391.22
  L 316.34 390.90
  L 304.74 391.39
  L 304.19 390.94
  L 304.19 389.86
  L 304.75 387.27
  L 304.79 386.90
  L 304.48 387.02
  Z
  M 304.54 380.50
  L 304.45 383.75
  L 304.71 380.50
  L 304.98 375.37
  L 304.73 374.57
  L 304.41 375.34
  L 304.04 378.34
  L 304.54 380.50
  Z"
/>
<path fill="none" stroke-width="1.00" stroke="#f4f4f4" vector-effect="non-scaling-stroke" d="
  M 349.44 390.56
  L 348.78 390.55
  L 346.86 391.45
  L 346.61 391.56
  L 346.54 391.29
  L 347.31 375.59
  L 348.06 373.65
  L 349.75 373.11
  L 360.94 373.04
  L 361.50 373.55
  L 361.62 380.14
  L 361.82 387.28
  L 363.57 392.24
  L 363.60 392.74
  L 363.59 392.74
  L 363.41 392.79
  L 363.08 392.64
  L 360.42 390.50
  L 359.51 390.34
  L 354.66 390.86
  L 349.44 390.56
  Z"
/>
<rect fill="none" stroke-width="1.00" stroke="#f4f4f4" vector-effect="non-scaling-stroke" x="364.02" y="373.00" width="0.98" height="10.96" rx="0.47"/>
<path fill="none" stroke-width="1.00" stroke="#f4f4f4" vector-effect="non-scaling-stroke" d="
  M 381.02 375.50
  L 381.01 379.37
  L 381.12 384.97
  L 382.09 389.20
  L 383.55 392.17
  L 383.52 392.75
  L 383.50 392.76
  L 383.25 392.78
  L 382.89 392.50
  L 380.87 390.71
  L 379.05 390.48
  L 366.61 391.41
  L 366.19 390.99
  L 366.19 390.95
  L 367.08 382.64
  L 366.66 373.52
  L 366.66 373.49
  L 367.10 373.03
  L 380.96 373.02
  L 381.47 373.49
  L 381.46 373.53
  L 381.23 374.55
  L 381.02 375.50
  Z"
/>
<path fill="none" stroke-width="1.00" stroke="#f4f4f4" vector-effect="non-scaling-stroke" d="
  M 399.26 390.34
  L 394.55 390.52
  L 388.88 390.72
  L 386.29 391.66
  L 385.56 392.04
  L 385.42 391.99
  L 385.28 391.80
  L 385.42 391.24
  L 386.96 386.72
  L 387.16 379.72
  L 387.13 375.77
  L 387.89 373.72
  L 389.78 373.10
  L 399.71 373.07
  L 399.77 373.07
  L 400.74 373.55
  L 401.07 374.61
  L 401.11 383.00
  L 402.66 391.53
  L 402.65 391.92
  L 402.23 391.78
  L 400.22 390.43
  L 399.26 390.34
  Z"
/>
<path fill="none" stroke-width="1.00" stroke="#f4f4f4" vector-effect="non-scaling-stroke" d="
  M 451.93 391.05
  L 417.04 391.25
  L 416.58 390.79
  L 416.58 390.77
  L 417.83 376.01
  L 418.77 373.77
  L 421.02 373.05
  L 449.24 373.03
  L 451.22 373.63
  L 452.25 375.49
  L 452.80 381.00
  L 452.26 385.78
  L 452.32 386.72
  L 454.69 391.30
  L 454.53 391.78
  L 454.47 391.79
  L 453.72 391.74
  L 452.83 391.36
  L 451.93 391.05
  Z"
/>
<path fill="none" stroke-width="1.00" stroke="#f4f4f4" vector-effect="non-scaling-stroke" d="
  M 472.02 391.05
  L 460.05 391.01
  L 459.15 391.32
  L 458.49 391.65
  L 457.63 391.83
  L 457.55 391.83
  L 457.34 391.39
  L 458.90 385.58
  L 459.03 377.35
  L 458.99 375.99
  L 459.60 373.91
  L 461.62 373.09
  L 471.74 373.41
  L 472.75 374.49
  L 472.90 379.78
  L 473.25 386.70
  L 474.71 391.81
  L 474.85 392.10
  L 474.92 392.72
  L 474.75 392.88
  L 474.75 392.88
  L 474.08 392.52
  L 473.17 391.34
  L 472.02 391.05
  Z"
/>
<rect fill="none" stroke-width="1.00" stroke="#f4f4f4" vector-effect="non-scaling-stroke" x="-0.49" y="-5.34" transform="translate(113.49,378.62) rotate(0.1)" width="0.98" height="10.68" rx="0.47"/>
<rect fill="none" stroke-width="1.00" stroke="#f4f4f4" vector-effect="non-scaling-stroke" x="-0.48" y="-5.83" transform="translate(250.50,379.11) rotate(-0.1)" width="0.96" height="11.66" rx="0.46"/>
<rect fill="none" stroke-width="1.00" stroke="#f4f4f4" vector-effect="non-scaling-stroke" x="384.00" y="373.27" width="1.00" height="10.74" rx="0.48"/>
<rect fill="none" stroke-width="1.00" stroke="#f4f4f4" vector-effect="non-scaling-stroke" x="-0.49" y="-4.98" transform="translate(87.49,378.98) rotate(0.1)" width="0.98" height="9.96" rx="0.47"/>
<path fill="none" stroke-width="1.00" stroke="#f4f4f4" vector-effect="non-scaling-stroke" d="
  M 455.19 374.42
  L 455.34 373.96
  L 455.80 374.19
  L 456.28 374.77
  L 456.73 377.50
  L 456.69 377.82
  L 456.00 382.46
  L 455.35 383.95
  L 455.35 383.95
  L 455.23 383.89
  L 455.05 383.42
  L 455.19 374.42
  Z"
/>
<rect fill="none" stroke-width="1.00" stroke="#f4f4f4" vector-effect="non-scaling-stroke" x="-0.49" y="-3.73" transform="translate(344.52,378.00) rotate(-0.5)" width="0.98" height="7.46" rx="0.44"/>
<ellipse fill="none" stroke-width="1.00" stroke="#f4f4f4" vector-effect="non-scaling-stroke" cx="0.00" cy="0.00" transform="translate(475.96,377.05) rotate(90.5)" rx="2.94" ry="1.00"/>
<path fill="none" stroke-width="1.00" stroke="#f4f4f4" vector-effect="non-scaling-stroke" d="
  M 304.71 380.50
  L 304.54 380.50
  L 304.04 378.34
  L 304.41 375.34
  L 304.73 374.57
  L 304.98 375.37
  L 304.71 380.50
  Z"
/>
<ellipse fill="none" stroke-width="1.00" stroke="#f4f4f4" vector-effect="non-scaling-stroke" cx="0.00" cy="0.00" transform="translate(414.59,377.39) rotate(90.7)" rx="2.47" ry="0.49"/>
<path fill="none" stroke-width="1.00" stroke="#f4f4f4" vector-effect="non-scaling-stroke" d="
  M 31.63 375.55
  L 31.62 379.29
  L 31.50 379.59
  L 31.36 379.28
  L 31.33 375.88
  L 31.41 375.53
  L 31.55 375.23
  L 31.63 375.55
  Z"
/>
<ellipse fill="none" stroke-width="1.00" stroke="#f4f4f4" vector-effect="non-scaling-stroke" cx="0.00" cy="0.00" transform="translate(404.43,377.50) rotate(89.8)" rx="2.38" ry="0.50"/>
<path fill="none" stroke-width="1.00" stroke="#f4f4f4" vector-effect="non-scaling-stroke" d="
  M 60.25 380.29
  L 59.79 380.25
  L 59.79 379.24
  L 59.98 379.03
  L 60.69 379.16
  L 60.72 379.21
  L 60.79 379.56
  L 60.25 380.29
  Z"
/>
<path fill="none" stroke-width="1.00" stroke="#f4f4f4" vector-effect="non-scaling-stroke" d="
  M 59.79 380.25
  L 60.25 380.29
  L 59.85 386.42
  L 59.36 387.99
  L 58.85 386.42
  L 58.78 383.54
  L 59.79 380.25
  Z"
/>
<path fill="none" stroke-width="1.00" stroke="#f4f4f4" vector-effect="non-scaling-stroke" d="
  M 304.54 380.50
  L 304.71 380.50
  L 304.45 383.75
  L 304.54 380.50
  Z"
/>
</svg>
