<?xml version="1.0" encoding="UTF-8" standalone="no"?>
<svg
   version="1.1"
   viewBox="0 0 120 258"
   id="svg872"
   sodipodi:docname="j2me.svg"
   inkscape:version="1.1.2 (0a00cf5339, 2022-02-04)"
   width="120"
   height="258"
   xmlns:inkscape="http://www.inkscape.org/namespaces/inkscape"
   xmlns:sodipodi="http://sodipodi.sourceforge.net/DTD/sodipodi-0.dtd"
   xmlns="http://www.w3.org/2000/svg"
   xmlns:svg="http://www.w3.org/2000/svg">
  <defs
     id="defs876" />
  <sodipodi:namedview
     id="namedview874"
     pagecolor="#ffffff"
     bordercolor="#666666"
     borderopacity="1.0"
     inkscape:pageshadow="2"
     inkscape:pageopacity="0.0"
     inkscape:pagecheckerboard="0"
     showgrid="false"
     inkscape:zoom="1.6013768"
     inkscape:cx="281.63266"
     inkscape:cy="172.97616"
     inkscape:window-width="1920"
     inkscape:window-height="1011"
     inkscape:window-x="1920"
     inkscape:window-y="32"
     inkscape:window-maximized="1"
     inkscape:current-layer="g870" />
  <g
     fill="#898889"
     id="g684"
     style="fill:none;stroke:#4d4d4d" />
  <g
     fill="#010001"
     id="g810" />
  <g
     fill="#565657"
     id="g870"
     style="fill:#e6e6e6;fill-opacity:0.807843;stroke:none"
     transform="translate(-77.304509,-6.8177365)">
    <path
       id="path868"
       d="m 133.2111,13.229081 c -2.20917,0.02833 -4.41891,0.09112 -6.62891,0.189453 -6.12,0.406666 -12.23628,0.840781 -18.34961,1.300781 -4.26666,0.32 -7.43333,1.02776 -9.499994,2.121094 -8.17,4.309999 -7.789688,11.118906 -8.929688,21.378906 -1.446667,13.106666 -2.564896,26.24039 -3.351562,39.40039 -0.973334,21.086667 -1.166745,42.173095 -0.580079,63.259765 0.773334,31.70667 3.19,63.29 7.25,94.75 0.593334,8.80667 4.568542,14.65745 11.921873,17.55078 2.26666,0.89333 5.42518,1.35534 9.47851,1.38867 23.88667,0.21334 39.84443,0.20404 47.8711,-0.0293 10.93,-0.32 19.93039,-7.51016 19.90039,-18.91016 4.21,-30.71 5.64,-54.74 6.5,-87 0.28,-17.35333 0.37573,-34.70721 0.28906,-52.060546 0,-0.32 -0.10906,-0.449453 -0.28906,-0.689453 0.07,-21.45 -2.58094,-42.529609 -4.71094,-63.849609 -1.92,-19.17 -16,-18.001328 -31,-18.111328 -6.62,-0.545 -13.24359,-0.774453 -19.87109,-0.689453 z m 3.31054,0.705078 c 5.43875,-0.07625 10.87555,0.08438 16.31055,0.484374 9.82,0.860001 22.5207,-1.009765 27.9707,8.990235 1.11334,2.046667 1.87573,5.284271 2.28907,9.710937 1.07333,11.533334 2.20705,23.04573 3.40039,34.539063 1.01,9.68 1.28078,19.460703 1.80078,29.220703 l -0.42188,51.999999 c -0.58,12.59333 -1.17883,25.18286 -1.79883,37.76953 -0.8,16.27 -2.89117,32.67047 -4.45117,48.98047 -0.60666,9.17333 -5.29502,14.98922 -14.06836,17.44922 -0.36,0.1 -0.50497,0.0248 -0.43164,-0.22852 a 0.42,0.44 83.1 0 1 0.18164,-0.2207 c 9.47,-5.9 11.0993,-14.64094 12.0293,-24.96094 3.83333,-28.96666 5.82094,-58.06239 5.96094,-87.28906 V 94.129471 c -0.0267,-0.166667 -0.0143,-0.320937 0.0391,-0.460938 0.15333,-0.413333 0.22737,-0.675729 0.2207,-0.789062 -0.44,-21.98 -3.35125,-39.149453 -7.53125,-65.189453 -2.1,-13.13 -16.24945,-11.491485 -25.93945,-12.021485 l -20.50977,-0.25 c -12.98666,0.460001 -21.0669,0.944506 -24.24023,1.451172 -7.949995,1.27 -10.470464,7.539297 -11.730464,15.279297 -2.45,15.07 -5.630469,30.960469 -5.730469,46.230469 -0.573333,7.433333 -0.689609,15.70388 -0.349609,24.810549 0.213333,5.78 0.496276,19.09278 0.849609,39.93945 0.540001,28.43 3.280704,56.65 6.470704,95.25 0.226666,2.68 1.473567,5.4424 3.740229,8.28906 2.36667,3.04 5.37907,5.18188 9.03906,6.42188 0.23,0.08 0.67078,0.54851 0.30078,0.72851 a 0.19,0.17 37.1 0 1 -0.1289,0.01 c -9.873371,-2.06023 -15.194308,-8.13851 -15.960975,-18.23851 -0.16,-2.64667 -0.790625,-9.07459 -1.890625,-19.28125 -2.433333,-22.59334 -4.175182,-47.7538 -5.228516,-75.48047 -0.753333,-21.07333 -0.559922,-42.139219 0.580079,-63.199219 2.273333,-27.306667 3.815572,-43.789219 4.628906,-49.449219 0.946666,-6.653333 4.943567,-10.724271 11.990231,-12.210937 4.08666,-0.86 13.14325,-1.485573 27.16992,-1.878906 1.81333,-0.07833 3.62654,-0.130834 5.43945,-0.15625 z m -5.18945,2.234374 20,0.25 c 3.84,0.393334 7.69388,0.663881 11.56055,0.810547 12.38,0.47 13.52015,7.211172 15.16015,17.701172 3.74,23.83 5.98836,38.279219 6.56836,59.449219 0.46667,11.033329 -0.46239,21.937599 -2.78906,32.710939 -1.76,6.44666 -4.06349,12.67922 -6.91016,18.69922 -1.4,2.95 -3.73953,5.71031 -5.76953,8.32031 -5.79,7.48 -12.67023,12.30867 -21.99023,14.88867 -1.55334,-3.75333 -2.42581,-7.67 -2.61914,-11.75 a 1,0.99 86.7 0 1 0.91992,-1.03906 c 7.82667,-0.63334 14.49953,-3.66628 20.01953,-9.09961 a 1.01,1.02 26.7 0 1 0.83008,-0.28125 c 1.84667,0.23333 3.51643,0.92984 5.00976,2.08984 a 0.99,0.97 57.8 0 0 0.79883,0.19141 c 3.56,-0.68 -5.10844,-4.26039 -5.39844,-4.40039 a 0.98,0.99 37.3 0 0 -1.10156,0.15039 c -6.85,6.14 -11.57945,8.38992 -20.68945,9.91992 -1.48667,0.25333 -2.16263,1.13201 -2.0293,2.63867 0.36,4.04 1.09875,8.29 2.21875,12.75 -10.68,2.20667 -20.37146,0.11094 -29.07812,-6.28906 2.33333,-2.30667 4.38487,-4.86016 6.1582,-7.66016 1.11333,-1.76 0.73466,-3.04604 -1.13867,-3.85937 -3.8,-1.66 -7.28761,-3.82357 -10.46094,-6.49024 -1.41333,-1.19333 -2.99667,-1.3507 -4.74999,-0.4707 l -4.51954,2.26953 c -6.269995,-9.74 -9.739604,-24.90836 -10.599604,-36.31836 -0.826667,-10.88666 -0.889454,-21.794032 -0.189453,-32.720699 1.513333,-16.26 3.701692,-32.423568 6.568359,-48.490234 1.37,-7.7 4.721488,-11.849766 12.521478,-12.509766 7.22,-0.62 14.45255,-1.107604 21.69922,-1.460938 z m 7.08008,1.289063 c -7.99667,-0.095 -16.18698,0.351797 -24.57031,1.341797 -7.22,0.85 -11.83055,4.769687 -13.06055,11.929687 -4.519996,26.12 -5.809371,48.931328 -3.859371,75.11133 0.293333,3.88 0.796432,7.67224 1.509765,11.3789 2.179996,11.33 4.750626,19.51922 14.390616,25.94922 a 1.04,0.99 58.5 0 0 0.65039,0.17188 c 3.15,-0.29 6.05008,-0.4818 9.33008,-1.0918 10.88667,-2.03333 21.97,-1.72984 33.25,0.91016 -2.47333,3.75333 -5.84156,5.98164 -10.10156,6.68164 -9.09,1.48 -20.84883,1.19836 -27.54883,-6.18164 a 0.83,0.83 0 0 0 -0.82031,-0.22852 c -0.79333,0.23333 -0.81078,0.72828 -0.0508,1.48828 2.96667,2.96667 6.23721,4.92443 9.81055,5.8711 8.96,2.38 25.06984,2.82961 30.33984,-6.90039 a 1.02,1 13.7 0 1 0.87109,-0.51954 l 2.27932,-0.0293 c 0.71,0.13 1.21984,0.11968 1.83984,-0.32032 10.52,-7.38999 13.1811,-19.45062 14.3711,-30.39062 2.37333,-21.793332 2.0082,-43.537134 -1.0918,-65.230468 -0.77333,-5.426666 -1.56867,-10.879375 -2.38867,-16.359375 -0.96,-6.42 -5.39024,-10.689922 -11.74024,-11.669922 -7.61,-1.18 -15.41349,-1.817109 -23.41015,-1.912109 z m -5.49219,0.8125 c 11.19127,0.03392 22.26586,1.211875 26.91211,1.859375 6.12,0.85 11.28992,3.589219 12.41992,9.949219 4.27,23.91 5.85031,47.050781 5.07031,71.30078 -0.26,8.16667 -1.43596,16.19651 -3.52929,24.08984 -0.45334,1.69334 -0.72388,1.66349 -0.81055,-0.0898 -0.0267,-0.56667 0.0392,-1.12016 0.19922,-1.66016 0.39333,-1.33333 0.60419,-2.07713 0.63086,-2.23046 1.98,-13.48 2.79588,-27.239301 2.44922,-41.279301 -0.0467,-2.026667 -1.07961,-3.142943 -3.09961,-3.349609 -9.8,-0.993374 -19.91008,-1.47478 -30.33008,-1.441447 -13.28667,-0.499999 -26.54906,-0.179062 -39.78906,0.960938 -3.053331,-0.153333 -4.687055,1.200547 -4.900388,4.060547 -0.173333,2.326667 -0.289609,8.139453 -0.349609,17.439453 h -0.921876 c -0.553333,-23.7 1.350938,-47.203099 5.710933,-70.509766 1.36688,-7.295625 15.94912,-9.143225 30.33789,-9.099609 z m 4.32227,1.349609 c -2.1,0.05 -2.4111,3.869766 -2.8711,5.509766 -1.72,9.76 -1.53278,19.149922 0.56055,28.169922 1.18,5.04 3.87039,2.290312 4.40039,-0.429688 1.86,-9.566666 1.95573,-19.146901 0.28906,-28.740234 -0.13333,-1.526667 -0.64883,-2.896042 -1.54883,-4.109375 a 1.01,1.02 71.1 0 0 -0.83007,-0.400391 z m -0.49805,0.828125 a 0.99,1 23.9 0 1 0.82812,0.05078 c 0.54,0.286666 0.81055,0.771172 0.81055,1.451171 a 0.99,1 84.5 0 1 -0.82031,0.990235 l -0.51953,0.08984 a 0.99,1 4.7 0 1 -1.11133,-1.320313 l 0.23047,-0.660156 a 0.99,1 23.9 0 1 0.58203,-0.601563 z m 2.33789,4.220703 0.41992,4.28125 a 0.64,0.65 84.7 0 1 -0.58984,0.699219 l -0.33008,0.01953 c -1.23333,-0.526666 -2.4,-0.443333 -3.5,0.25 l -0.71094,-0.03906 0.67188,-4.75 z m 0.50977,6.160157 c 0.80666,5.746666 0.71713,11.484271 -0.26954,17.210937 a 0.99,0.99 0 0 1 -1.00976,0.830078 l -2.83008,-0.07031 a 1,1 0 0 1 -0.96094,-0.810547 c -0.29333,-1.573335 -0.18945,-3.03844 0.31055,-4.398439 4.97,2.74 6.22961,-3.540157 -0.40039,-0.910157 l -0.0606,-11.050781 0.46094,-0.539062 c 1.28,0.833333 2.86643,0.744947 4.75977,-0.261719 z m -2.63086,4.861328 a 1.13,2.3 89.4 0 0 -2.28907,1.154297 1.13,2.3 89.4 0 0 2.3125,1.105468 1.13,2.3 89.4 0 0 2.28711,-1.154296 1.13,2.3 89.4 0 0 -2.31054,-1.105469 z m 1.03515,14.46875 c 1.5275,-0.0975 1.50555,1.255547 -0.0644,4.060547 -0.70667,1.266666 -1.5493,0.525963 -2.5293,-2.220703 a 1,1 0 0 1 0.54883,-1.259766 c 0.85333,-0.355 1.53576,-0.547578 2.04492,-0.580078 z m -15.98047,9.320312 a 1.79,1.79 0 0 0 -1.79492,1.783203 l -0.0156,4.580079 a 1.79,1.79 0 0 0 1.7832,1.796875 l 29.24023,0.101562 a 1.79,1.79 0 0 0 1.79493,-1.783203 l 0.0156,-4.580078 a 1.79,1.79 0 0 0 -1.7832,-1.796875 z m 0.11329,0.753907 29.45898,0.154296 a 0.74,0.74 0 0 1 0.73633,0.744141 l -0.0254,5 a 0.74,0.74 0 0 1 -0.74414,0.734375 l -29.45899,-0.154297 a 0.74,0.74 0 0 1 -0.73633,-0.742187 l 0.0254,-5 a 0.74,0.74 0 0 1 0.74415,-0.736328 z m 21.20312,15.685546 c 10.12,0.01333 20.44714,0.631563 30.98047,1.851563 a 0.99,1 1 0 1 0.87891,0.919922 c 1.13,15.77 0.80156,34.909452 -3.89844,50.439452 -3.41334,2.11333 -3.74667,1.78 -1,-1 4.01,-15.67 3.10953,-27.14914 3.01953,-47.36914 a 0.98,1 23.7 0 0 -0.25,-0.660156 l -0.23047,-0.259765 c -1.75,-2.580001 -25.86914,-2.611641 -30.11914,-2.681641 a 0.96,0.98 71 0 1 -0.76172,-0.359375 c -0.54667,-0.666667 -0.0858,-0.96086 1.38086,-0.88086 z m -19.76953,0.261719 a 0.52,0.53 72.9 0 1 0.45898,0.238281 c 0.25,0.42 0.0713,0.691172 -0.38867,0.701172 -6.95333,0.153334 -13.88745,0.560704 -20.80078,1.220704 -1.29333,0.286666 -1.98364,0.882395 -2.07031,1.789062 -0.69,7.24 -0.859451,17.749766 0.0605,27.259769 0.65,6.73 0.71883,12.50023 2.54883,19.99023 0.32667,0.93333 0.88521,1.63914 1.67188,2.11914 0.92,0.56 0.83976,0.81505 -0.24024,0.76172 -0.3,-0.0133 -0.62403,-0.12846 -0.9707,-0.3418 -2.47,-2.2 -3.54906,-13.85906 -3.78906,-17.28906 0.0467,-3.53333 -0.53667,-6.95 -1.750003,-10.25 -0.09333,-7.346666 0.13302,-14.683098 0.679687,-22.009765 0.19,-2.69 1.589376,-3.559297 4.109376,-3.529296 z m 13.10156,1.636719 c 11.19167,0.04167 22.38169,0.466771 33.56836,1.273438 0.94,0.06 1.43055,0.429062 2.06055,1.039062 0.93,15.56 1.38906,32.570939 -2.71094,47.710939 -0.46667,0.74666 -0.94302,1.13968 -1.42969,1.17968 -5.33333,0.46 -13.01435,0.87977 -23.04101,1.25977 -11.62,0.45 -23.20985,-0.33023 -34.83985,-0.99023 -2.66,-0.15 -4.61851,0.42984 -5.97851,-2.41016 -3.46,-15.21 -3.37109,-30.630858 -2.87109,-46.130858 0.03,-1.11 0.62015,-1.738203 1.66015,-1.908203 11.19667,-0.723334 22.39036,-1.065105 33.58203,-1.023438 z m -32.00781,6.537109 c -0.17724,-0.0037 -0.32442,0.137213 -0.32812,0.314453 l -0.11133,5.398438 c -0.004,0.177241 0.13526,0.322472 0.3125,0.326172 l 2.41992,0.05078 c 0.17724,0.0037 0.32217,-0.135259 0.32617,-0.3125 l 0.11328,-5.398437 c 0.004,-0.177241 -0.13721,-0.324425 -0.31445,-0.328125 z m 62.36133,0.01953 c -0.23821,-0.0012 -0.43064,0.189517 -0.43164,0.427734 l -0.0273,5.138672 c -0.001,0.238217 0.18952,0.432394 0.42774,0.433594 l 2.40039,0.01172 c 0.23821,0.0012 0.43064,-0.189517 0.43164,-0.427734 l 0.0273,-5.138672 c 0.001,-0.238217 -0.18951,-0.432394 -0.42773,-0.433594 z m 1.97461,7.517578 -1.01954,0.01953 c -0.39327,0.0076 -0.70331,0.329389 -0.69531,0.722656 l 0.0918,4.779297 c 0.008,0.393268 0.32939,0.702913 0.72266,0.695313 l 1.01953,-0.01953 c 0.39327,-0.0076 0.70526,-0.329389 0.69726,-0.722656 l -0.0918,-4.779297 c -0.008,-0.393268 -0.33134,-0.702912 -0.72461,-0.695312 z m -62.99609,0.01367 -1.18164,0.0098 c -0.31023,0.0027 -0.55739,0.254224 -0.55469,0.564453 l 0.0449,5.041016 c 0.003,0.310229 0.25422,0.557388 0.56445,0.554687 l 1.17969,-0.0098 c 0.31023,-0.0027 0.55739,-0.256177 0.55469,-0.566406 l -0.043,-5.039063 c -0.003,-0.310229 -0.25423,-0.557387 -0.56446,-0.554687 z m -0.93946,7.013671 c -0.40442,-7.04e-4 -0.72976,0.324097 -0.73046,0.728516 l -0.008,4.761725 c -7.1e-4,0.40442 0.32409,0.72976 0.72851,0.73047 h 0.2793 c 0.40442,7.1e-4 0.73171,-0.3241 0.73242,-0.72852 l 0.008,-4.759769 c 7e-4,-0.404419 -0.3241,-0.729762 -0.72852,-0.730468 z m 63.81445,0.480469 c -0.4432,0 -0.79883,0.357581 -0.79883,0.800782 v 4.66016 c 0,0.4432 0.35563,0.79883 0.79883,0.79883 h 0.16016 c 0.4432,0 0.80078,-0.35563 0.80078,-0.79883 v -4.66016 c 0,-0.4432 -0.35758,-0.800782 -0.80078,-0.800782 z m -71.130852,4.197262 c 0.0053,0.46021 0.181066,0.8328 0.552735,1.10352 a 1.03,1.03 0 0 1 0.388671,0.58008 c 0.42,1.80667 0.324271,3.52682 -0.289062,5.16016 -0.799468,-2.32573 -0.997358,-4.60607 -0.652344,-6.84376 z m 7.130862,2.32813 c -1.36377,-0.25963 -0.61414,5.55813 -0.36914,6.76563 a 1.01,0.97 11.7 0 0 0.42968,0.6289 c 0.40667,0.27334 0.4931,0.61792 0.25977,1.03125 a 1.06,1.07 51.7 0 0 -0.0898,0.72852 l 0.7207,2.86133 a 0.25,0.26 4.3 0 0 0.15039,0.17968 c 0.68,0.28 1.02024,-3.46039 0.99024,-3.90039 a 0.99,0.98 68.2 0 1 0.33008,-0.77929 c 1.08,-0.99334 0.8331,-1.34102 -0.74024,-1.04102 a 1,1 0 0 1 -1.18164,-1.09961 l 0.4707,-4.07031 a 1.02,1.02 0 0 0 -0.25,-0.78906 c -0.28875,-0.31625 -0.52587,-0.47854 -0.7207,-0.51563 z m 64.16991,0.26563 c -0.39333,10e-4 -0.70803,0.31955 -0.70703,0.71289 l 0.0156,4.51953 c 0.001,0.39334 0.31955,0.70803 0.71289,0.70703 h 0.0606 c 0.39333,-0.001 0.70803,-0.31955 0.70703,-0.71289 l -0.0156,-4.51953 c -0.001,-0.39334 -0.31955,-0.70803 -0.71289,-0.70703 z m -1.22656,6.88086 c -1.0466,0.18234 -1.93211,1.71343 -1.27148,5.00781 a 1,1 0 0 0 0.97851,0.80078 h 1.22071 a 1.01,1.02 9.2 0 0 0.95898,-0.69922 c 1.06875,-3.34687 -0.54109,-5.34382 -1.88672,-5.10937 z m 0.39844,1.06836 c 0.20333,-0.007 0.41534,0.29682 0.63867,0.91015 0.4,1.1 0.30737,1.94768 -0.2793,2.54102 -0.61333,0.62666 -0.97651,0.50534 -1.08984,-0.36133 -0.1,-0.74 -0.0496,-1.45201 0.15039,-2.13867 0.18333,-0.62667 0.37675,-0.94451 0.58008,-0.95117 z m 15.86133,5.31445 c 0.13166,-0.01 0.2837,0.23633 0.45703,0.73633 0.0933,0.26666 0.14062,0.6 0.14062,1 -0.0133,6.4 -0.11411,12.79612 -0.30078,19.18945 -0.52666,29.18667 -2.52666,58.27 -6,87.25 -0.23,13.29 -5.48929,26.23977 -21.02929,26.25977 -12.29334,0.007 -24.57318,-0.006 -36.83985,-0.0391 -8.57,-0.03 -14.17992,-1.50976 -19.41992,-7.75976 -1.906662,-3.27997 -2.989995,-6.60091 -3.249995,-9.96091 -2.24,-28.75 -5.109922,-57.48055 -6.169922,-86.31055 -0.08,-2.17333 -0.273411,-4.33185 -0.580078,-6.47851 0.166667,-7.50667 -0.07404,-15.00047 -0.720703,-22.48047 -0.02,-0.31 0.151406,-0.6607 0.441406,-0.7207 a 0.26,0.27 79.9 0 1 0.318359,0.2207 c 2.390001,16.05 9.130933,33.40859 22.710933,43.30859 9.46,7.31 22.27023,10.94188 33.99023,7.17188 21.15,-6.8 29.96071,-23.40094 34.72071,-43.71094 l 1.19922,-6.88086 c 0.09,-0.52 0.20036,-0.78492 0.33203,-0.79492 z m -37.09961,0.30273 c -0.24167,-0.0783 -0.60513,0.22235 -1.0918,0.90235 -0.57333,0.81333 -0.63807,1.85752 -0.1914,3.13086 a 0.8,0.8 0 0 1 -0.35938,0.95898 c -1.7,0.98 0.26945,-4.89844 -1.56055,-4.64844 a 0.8,0.79 86.3 0 0 -0.68945,0.78907 v 4.51953 a 1,1 0 0 0 1.00977,1 l 2.25,-0.0195 a 1,1 0 0 0 0.99023,-1 v -4.2598 c 0.003,-0.83667 -0.11576,-1.29471 -0.35742,-1.37305 z m -11.70117,0.39453 c -3.14114,-0.16699 -4.00352,6.46875 0.45898,6.32813 a 1.04,1.04 0 0 0 0.66992,-0.28906 c 0.58667,-0.57334 0.72039,-1.10008 0.40039,-1.58008 a 0.64,0.63 51 0 0 -0.9707,-0.11133 c -1.08,1.02 -1.40094,0.73086 -0.96094,-0.86914 l 0.21094,-0.0391 c 2.26,0.06 2.71271,-0.91521 1.35938,-2.92188 a 1.02,1.02 0 0 0 -0.50977,-0.38867 c -0.22875,-0.0756 -0.44879,-0.11777 -0.6582,-0.12891 z m -8.94141,0.0781 a 1.01,1.01 0 0 0 -1.00977,1.04101 l 0.16016,4.78907 a 0.51,0.51 0 0 0 0.62891,0.48047 l 0.25,-0.0508 a 1.01,1.01 0 0 0 0.77148,-0.97852 l -0.0215,-3.29102 a 0.32,0.32 0 0 1 0.37109,-0.32031 l 0.29883,0.041 a 0.25,0.26 4.8 0 1 0.2207,0.26953 l -0.11914,3.26953 a 0.99,1 6.9 0 0 0.78906,1.00977 l 0.29102,0.0605 a 0.51,0.51 0 0 0 0.61914,-0.5 v -3.95898 a 0.21,0.21 0 0 1 0.21096,-0.21083 h 0.25976 a 0.41,0.41 0 0 1 0.41016,0.41992 l -0.10156,3.18946 a 1,1 0 0 0 0.54101,0.91992 l 0.28907,0.15039 a 0.64,0.64 0 0 0 0.92968,-0.58008 l -0.0898,-4.74023 a 0.99,0.99 0 0 0 -0.98828,-0.97852 z m 14.74023,0.0195 -2.25976,0.0117 a 1.01,1.01 0 0 0 -1,0.98828 l -0.0703,4.76172 a 0.51,0.51 0 0 0 0.53906,0.51953 l 0.36133,-0.0312 a 1,1 0 0 0 0.91992,-1.1582 c -0.13333,-0.80667 -0.10659,-1.58032 0.0801,-2.32032 0.29333,-1.12666 0.55882,-1.12356 0.79883,0.01 0.16666,0.77333 0.18411,1.56247 0.0508,2.36914 a 0.98,0.99 14.2 0 0 0.65039,1.09961 l 0.25976,0.0918 a 0.51,0.51 0 0 0 0.67969,-0.48047 v -4.86133 a 1,1 0 0 0 -1.00977,-1 z m 31.04883,10.27148 c -2.3,4.95334 -5.97906,8.91844 -11.03906,11.89844 l -5,-1 c -14.12,-2.74 -28.14055,-2.36247 -42.06055,1.13086 a 1.03,1.04 55.9 0 1 -0.80859,-0.15039 c -1.52,-1.03 -11.70086,-10.19859 -9.88086,-11.80859 0.88,0.31 1.42086,0.75906 2.38086,0.78906 11.16,0.28 23.38953,1.4 33.51953,1.25 10.97333,-0.17333 21.93534,-0.87604 32.88867,-2.10938 z m -28.02929,15.44922 -14.06055,0.0195 a 0.99,0.99 0 0 0 -0.84961,0.48046 c -1.56,2.56 13.59062,1.44961 14.64062,1.34961 1.10667,-0.11333 1.50279,-0.5269 1.18946,-1.24023 a 1,1 0 0 0 -0.91992,-0.60938 z m -36.19922,0.59961 a 1,1.01 54.1 0 1 1.09961,0.16993 c 3.36,3.09999 7.20573,5.38489 11.53906,6.85156 a 1,1 0 0 1 0.45117,1.57812 l -6.40039,7.75 c -5.29333,-3.96 -9.62666,-8.79333 -13,-14.5 0.33334,0.04 0.65428,0.13149 0.96094,0.27149 a 0.99,1 44.7 0 0 0.83985,-0.01 z m 56.85742,5.03711 c -0.3743,-0.0366 -0.81438,-9.3e-4 -1.32813,0.13282 -0.88,0.23 -1.46062,1.30023 0.10938,1.24023 1.17,-0.04 1.98109,0.46101 1.87109,1.79101 a 0.5,0.52 13.1 0 0 0.31055,0.51954 c 1.05875,0.4375 1.65719,-3.42725 -0.96289,-3.6836 z m -52.55859,0.85352 c -2.95001,-0.2 -3.00008,3.95023 -1.08008,5.74023 a 0.99,1 56.2 0 0 1.06054,0.19922 c 1.33334,-0.54 1.28295,-1.19232 -0.15039,-1.95898 a 1,1.01 36.7 0 1 -0.22851,-1.59961 l 1.01953,-0.99024 a 0.81,0.81 0 0 0 0.20898,-0.78125 c -0.10666,-0.37333 -0.38341,-0.57604 -0.83007,-0.60937 z m 37.74414,7.48242 c -0.10375,0.0275 -0.19821,0.14812 -0.28321,0.32812 -1.38,2.87334 -0.60325,4.08844 2.33008,3.64844 2.78,-0.42 -2.20062,-0.96937 -1.64062,-3.35937 a 0.54,0.56 34.3 0 0 -0.0703,-0.39063 c -0.12,-0.19 -0.23218,-0.25406 -0.33593,-0.22656 z m -45.50391,10.07617 c -2.02546,-0.0655 -3.91968,0.47383 -5.429683,1.86133 -2.6,2.38 -2.420156,5.78016 -0.160156,8.41016 4.609999,5.38 12.761169,6.38984 18.951169,3.58984 1.62,-0.72667 2.14169,-1.89643 1.56836,-3.50977 -1.5975,-4.515 -8.85328,-10.15515 -14.92969,-10.35156 z m 66.33008,0.10547 c -0.41053,0.0211 -0.82235,0.0702 -1.23047,0.14648 -4.4,0.82667 -8.17169,2.77628 -11.31836,5.84961 -4.99,4.88 -2.9607,8.69954 3.5293,9.26954 5.51333,0.48666 10.37651,-1.00404 14.58984,-4.47071 6.6,-5.42812 0.58756,-11.111 -5.57031,-10.79492 z m 4.25781,1.49609 c 0.10167,-0.09 0.6287,0.29993 1.58203,1.16993 0.40667,0.37333 0.70086,0.79 0.88086,1.25 0.82667,2.08666 0.58906,2.21224 -0.71094,0.3789 l -0.77929,-1.08984 c -0.75,-1.05 -1.07433,-1.61899 -0.97266,-1.70899 z m -69.81835,0.43555 c 5.06858,0.12422 11.23593,4.43516 12.21093,8.78516 a 1,0.99 61.8 0 1 -0.26953,0.9082 c -5.98,6.13 -23.390154,-2.26953 -16.41015,-8.26953 1.2125,-1.0425 2.77921,-1.46524 4.46875,-1.42383 z m 65.63085,0.0313 c 0.72198,-0.0409 1.4663,-0.0386 2.23047,0.004 a 1.02,1.02 0 0 1 0.59961,0.23828 c 3.82,3.33333 3.50411,6.41047 -0.94922,9.23047 -4.19333,2.65333 -8.46078,3.09364 -12.80078,1.32031 -1.94667,-0.8 -2.32729,-2.06745 -1.14063,-3.80078 2.98667,-4.375 7.0067,-6.70563 12.06055,-6.99219 z m 1.17773,2.31445 c -0.19875,0.005 -0.4151,0.0472 -0.64843,0.12891 a 1.01,1 59.8 0 0 -0.41992,1.59961 c 1.00666,1.17333 1.13109,1.78031 0.37109,1.82031 -0.78,0.04 -1.57039,0.36946 -0.65039,1.18946 a 1.01,1.05 66.8 0 0 0.68945,0.25976 c 2.42,-0.0533 3.08047,-1.38667 1.98047,-4 -0.285,-0.68 -0.72602,-1.0118 -1.32227,-0.99805 z m -33.16796,0.39063 c -9.60073,-0.0865 -19.7625,5.53102 -9.14063,11.58789 6.05333,3.45333 12.03164,3.06031 17.93164,-1.17969 2.86,-2.05333 3.50922,-4.13976 1.94922,-6.25976 -2.12812,-2.89063 -6.37627,-4.10913 -10.74023,-4.14844 z m -33.39844,0.33008 -0.69922,0.0176 c -0.31567,0.008 -0.56298,0.27026 -0.55468,0.58593 l 0.10547,4.0586 c 0.008,0.31567 0.27026,0.56268 0.58593,0.55468 l 0.69922,-0.0195 c 0.31567,-0.008 0.56299,-0.26831 0.55469,-0.58398 l -0.10547,-4.05859 c -0.008,-0.31568 -0.27027,-0.56269 -0.58594,-0.55469 z m 32.36719,1.31836 a 9.43,5.1 0.2 0 1 9.4121,5.13281 9.43,5.1 0.2 0 1 -9.44921,5.06641 9.43,5.1 0.2 0 1 -9.41211,-5.13282 9.43,5.1 0.2 0 1 9.44922,-5.0664 z m 21.43359,0.21484 c 0.0983,0.04 0.10734,0.22159 0.0273,0.54492 a 0.99,1 75 0 1 -0.27929,0.48047 c -1.67334,1.58 -1.92953,3.14589 -0.76954,4.69922 1.47334,1.95333 1.18534,2.25682 -0.86132,0.91016 -2.26,-1.48 -1.81969,-3.59008 1.32031,-6.33008 0.27667,-0.24334 0.46417,-0.34469 0.5625,-0.30469 z m -30.59375,0.79102 c 0.38156,-0.0933 0.12383,0.63586 -0.13867,0.94336 -1.54,1.82666 -1.49271,3.57356 0.14062,5.24023 a 0.52,0.52 0 0 1 0.10938,0.55078 c -0.31,0.79 -0.74969,-0.24039 -0.92969,-0.40039 -2.17333,-1.91333 -2.10745,-3.88659 0.19922,-5.91992 0.2925,-0.26 0.49195,-0.38297 0.61914,-0.41406 z m 39.19726,0.25976 a 0.41,0.4 39.4 0 0 -0.30468,0.19336 c -1.05334,1.7 -2.11188,1.93141 -3.17188,0.69141 a 1,1 0 0 0 -1.50976,-0.0117 l -1.13868,1.31055 a 0.99,0.99 0 0 0 -0.11132,1.16015 c 0.41333,0.70667 1.0707,0.97102 1.9707,0.79102 l 0.5,-0.5 1.75,0.5 1.25,-0.25 0.2793,0.0391 a 0.34,0.34 0 0 0 0.37109,-0.24023 l 0.7793,-2.74024 a 0.63,0.64 32.1 0 0 -0.12891,-0.59961 l -0.1914,-0.20898 a 0.41,0.4 39.4 0 0 -0.34376,-0.13477 z m -33.78124,1.07422 c -0.56001,-0.0167 -1.2036,0.25388 -1.9336,0.81055 -0.34,0.26 -0.30706,0.44836 0.0996,0.56836 l 0.26953,0.0801 a 1,1 0 0 1 0.50977,1.55078 l -0.33985,0.4707 c -0.68666,0.94 -0.44906,1.46674 0.71094,1.58008 l 0.98828,0.0996 c 1.17334,0.12 1.41714,-0.29977 0.73047,-1.25977 -0.40667,-0.56667 -0.31713,-1.1438 0.26953,-1.73047 a 1.01,1 50.5 0 0 0.1211,-1.25976 c -0.39,-0.59 -0.86578,-0.89349 -1.42578,-0.91016 z m 6.48046,1.50781 a 0.8,0.8 0 0 0 -0.73437,0.24219 l -0.38086,0.41016 a 0.96,0.96 0 0 1 -0.79883,0.32031 c -0.91333,-0.06 -1.41023,0.41945 -1.49023,1.43945 a 1.01,1.01 0 0 0 0.83984,1.07031 c 1.33333,0.22 2.60388,0.12232 3.81055,-0.29101 a 1.01,1 55.3 0 1 0.97851,0.17969 c 0.16,0.14 0.32977,0.25317 0.50977,0.33984 0.97333,0.46667 1.19659,0.23102 0.66992,-0.70898 l -0.16992,-0.30078 a 0.99,1 53.2 0 1 0.18164,-1.20899 c 0.38667,-0.36667 0.4762,-0.7062 0.26953,-1.01953 a 0.41,0.42 51.6 0 0 -0.63086,-0.0703 c -1.20667,1.14666 -2.02565,1.17651 -2.45898,0.0898 a 0.8,0.8 0 0 0 -0.59571,-0.49219 z m -35.26562,6.54297 c -2.12734,-0.0151 -4.11672,0.6611 -5.699215,2.3086 -7.83,8.15 13.330775,18.50937 21.050775,9.85937 a 1,1.02 56.8 0 0 0.20899,-0.96875 c -1.56,-4.89 -9.17852,-11.15375 -15.56055,-11.19922 z m 66.20117,0.043 c -0.38116,-0.0216 -0.7718,-0.0175 -1.16992,0.0156 -7.04,0.58666 -12.42992,3.86651 -16.16992,9.83984 a 1.01,1.01 0 0 0 -0.1211,0.79101 c 2.33,8.75001 16.96032,3.59993 21.32032,0.16993 5.4375,-4.275 1.85809,-10.49264 -3.85938,-10.81641 z m 2.87891,1.7168 c 0.58666,-0.06 1.37776,0.80937 2.37109,2.60937 0.3,0.54667 0.21357,0.93659 -0.25977,1.16992 a 0.41,0.42 76.3 0 1 -0.60156,-0.35937 c -0.007,-1.49336 -0.68573,-2.37089 -2.03906,-2.63089 2.19,2.97 1.57008,6.17055 -1.41992,8.31055 -3.47334,2.5 -7.68419,3.2469 -12.63086,2.24023 -2.44,-0.49333 -3.12216,-1.86466 -2.04883,-4.11133 2.93333,-6.14666 8.29961,-8.29278 16.09961,-6.43945 -0.17333,-0.47333 0.003,-0.73573 0.5293,-0.78906 z m -67.91406,0.42773 c 4.554,0.27461 9.79804,3.97344 11.43554,7.49219 0.76,1.63333 0.29914,2.77635 -1.38086,3.42969 -5.6,2.18 -14.66913,0.36851 -16.619134,-6.27149 a 0.99,1 47.9 0 1 0.03906,-0.66992 c 1.308754,-3.07875 3.792984,-4.14523 6.525394,-3.98047 z m 65.24609,1.85742 -0.73438,0.0742 a 1.55,1.55 0 0 0 -1.38281,1.70117 l 0.19336,1.8711 a 1.55,1.55 0 0 0 1.70117,1.38281 l 0.73438,-0.0762 a 1.55,1.55 0 0 0 1.38281,-1.70117 l -0.19336,-1.8711 a 1.55,1.55 0 0 0 -1.70117,-1.38086 z m -66.6582,0.4668 c -0.285,0.055 -0.52289,0.3644 -0.71289,0.92773 l -0.81055,2.39844 a 1,0.99 17.4 0 0 0.66992,1.27149 c 0.38667,0.11333 0.71381,0.33039 0.98047,0.65039 0.86667,1.02 1.4469,0.87502 1.74023,-0.43164 0.38,-1.67334 0.0889,-3.07875 -0.87109,-4.21875 -0.38,-0.45334 -0.71109,-0.65266 -0.99609,-0.59766 z m 32.92382,0.66992 c -2.02687,-0.0275 -4.08101,0.24391 -6.16601,0.81641 -7.06,1.95 -9.36117,7.28 -1.70117,11 5.26666,2.56 10.49612,2.47357 15.68945,-0.25977 3.39,-1.78 6.98031,-6.30992 2.07031,-8.91992 -3.21667,-1.7125 -6.51445,-2.59088 -9.89258,-2.63672 z m 0.43164,1.67383 c 2.4474,0.0469 4.78112,0.67448 7.00196,1.88281 7.16,3.89 -7.87071,13.44086 -15.72071,5.13086 -2.75333,-2.91333 -1.35721,-5.0707 4.18946,-6.4707 1.55,-0.39 3.06086,-0.57109 4.52929,-0.54297 z m -26.56054,1.30859 c -0.22167,-0.09 -0.46209,0.10399 -0.71875,0.58399 a 0.99,1 10.3 0 1 -0.74024,0.52148 c -2.34666,0.33334 -2.83851,1.42287 -1.47851,3.26953 a 1,0.99 59.6 0 0 1.20898,0.32032 c 0.69333,-0.30667 1.25807,-0.75318 1.69141,-1.33985 0.47333,-0.62666 0.8458,-0.57317 1.11914,0.16016 0.19333,0.52667 0.6038,0.68518 1.23047,0.47852 a 1,1 0 0 0 0.67968,-1.03907 l -0.14062,-1.53125 c -0.0867,-0.92666 -0.45294,-1.05843 -1.09961,-0.39844 -0.08,0.0867 -0.16643,0.1855 -0.25977,0.29883 -0.41333,0.48667 -0.70752,0.42078 -0.88085,-0.19922 -0.18667,-0.66 -0.38967,-1.035 -0.61133,-1.125 z m 16.62304,0.0312 c 0.24625,-0.0808 0.40821,0.0356 0.40821,0.45313 a 0.51,0.5 70.7 0 1 -0.17969,0.39062 c -3.8,3.28 0.85055,4.19008 0.81055,6.08008 -0.0133,0.6 -0.20675,0.66589 -0.58008,0.19922 l -2.54102,-3.12891 a 1,1.02 27.5 0 1 -0.21875,-0.71093 c 0.075,-1.02 1.56203,-3.04086 2.30078,-3.28321 z m 33.26953,0.34375 a 1,0.99 13.9 0 0 -1.10156,0.66016 c -0.68666,2.02667 -0.0766,2.69643 1.83008,2.00977 a 0.99,1.02 48 0 1 0.76172,0.0293 c 1.70667,0.78 2.5082,0.41993 2.4082,-1.08007 a 0.25,0.25 0 0 1 0.17188,-0.25977 l 0.28906,-0.0996 a 0.35,0.15 79.9 0 1 0.2207,0.33984 c 0.38,2.66 5.38844,1.50977 3.39844,-0.99023 a 1,1 0 0 0 -1.14844,-0.31055 l -0.75976,0.30078 a 0.99,0.98 51.7 0 1 -0.96094,-0.11914 c -0.58667,-0.42666 -1.21419,-0.48015 -1.88086,-0.16015 a 1.09,1.06 35.7 0 1 -0.58984,0.0898 z m -6.00585,0.24415 c 0.21,0.01 0.39468,0.58151 0.55468,1.71484 0.08,0.59333 0.38039,1.16427 0.90039,1.71094 0.65334,0.7 1.38279,1.22364 2.18946,1.57031 a 0.4,0.4 0 0 1 0.2207,0.5 l -0.0996,0.32031 a 0.27,0.27 0 0 1 -0.40039,0.13867 l -3.75,-2.52929 a 1,1.01 17.8 0 1 -0.43945,-0.8711 c 0.0133,-0.32 0.0525,-0.61843 0.11914,-0.89844 0.26,-1.11333 0.49508,-1.66624 0.70508,-1.65624 z m -19.84571,0.99804 c -0.19625,-0.0267 -0.45906,-0.008 -0.78906,0.0566 -1.85333,0.0133 -2.56419,0.82808 -2.13086,2.44141 a 0.64,0.64 0 0 0 0.86133,0.42969 c 0.38,-0.15334 0.6362,-0.0464 0.76953,0.32031 0.19333,0.56 0.0143,0.73286 -0.53906,0.51953 -0.96,-0.36667 -1.32823,-0.17635 -1.10156,0.57031 a 1,1 0 0 0 0.9707,0.70899 c 2.76,-0.04 3.39992,-1.22836 1.91992,-3.56836 0.615,-0.905 0.62781,-1.39852 0.0391,-1.47852 z m -25.83398,0.40235 c 0.315,-0.0913 0.38961,0.13101 0.22461,0.66601 -0.10667,0.32 -0.28883,0.53201 -0.54883,0.63867 -0.56,0.22 -0.73792,0.0471 -0.53125,-0.51953 0.0867,-0.24666 0.24094,-0.44318 0.46094,-0.58984 0.15833,-0.1 0.28953,-0.1649 0.39453,-0.19531 z m 32.77734,1.01953 c -0.3109,0.085 -0.70312,0.43742 -1.17187,1.18554 -0.59334,-0.74666 -1.21466,-1.0738 -1.86133,-0.98046 a 1,1 0 0 0 -0.83984,0.83984 l -0.33985,2.16016 c -0.18,1.17333 0.23047,1.44078 1.23047,0.80078 0.66,-0.43334 1.32667,-0.55776 2,-0.3711 2.145,0.65813 2.32965,-4.00324 0.98242,-3.63476 z m 27.04688,5.83203 c -0.41766,-0.006 -0.84493,0.0157 -1.2793,0.0644 -5.88,0.66667 -10.6207,3.32208 -14.2207,7.96875 -1.82667,2.36 -1.53248,4.32086 0.88086,5.88086 1.14,0.74 2.39,1.16287 3.75,1.26953 5.87333,0.44667 10.88573,-0.94945 15.03906,-4.18945 6.20625,-4.85625 2.09496,-10.90047 -4.16992,-10.99414 z m -63.82422,0.39258 c -0.94127,0.0119 -1.85133,0.13236 -2.70508,0.37111 -2.86666,0.8 -4.283328,2.50581 -4.249995,5.11914 0.09,5.85 7.869525,9.2707 12.769525,9.7207 3.42,0.30667 6.57117,-0.57705 9.45117,-2.65039 a 1.01,1.01 0 0 0 0.39844,-0.95898 c -0.9625,-6.4925 -9.07518,-11.68483 -15.66406,-11.60156 z m 62.32422,1.34179 c 4.01,-0.38 7.84125,3.10953 5.28125,7.01953 -4.39,6.7 -24.5811,6.72922 -14.1211,-2.80078 2.75334,-2.51333 5.69985,-3.91875 8.83985,-4.21875 z m -61.2461,0.40039 c 3.1425,0.14875 6.75172,1.71446 8.63672,3.18946 1.72667,1.35333 3.08365,3.04984 4.07031,5.08984 a 1.01,1.03 53.1 0 1 -0.16992,1.11914 c -4.91,5.27 -14.63116,1.84094 -18.20116,-3.53906 a 0.99,0.97 28.2 0 1 -0.16993,-0.55078 c 0.015,-4.19 2.69149,-5.45735 5.83398,-5.3086 z m 67.27344,0.54297 c 0.0683,-0.0467 0.21359,0.0186 0.43359,0.19532 0.0733,0.0533 0.13303,0.12736 0.17969,0.2207 0.16667,0.28 0.32094,0.51255 0.46094,0.69922 0.25333,0.34 0.29867,0.64659 0.13867,0.91992 -0.31333,0.52667 -0.56023,0.49682 -0.74023,-0.0898 l -0.44922,-1.46876 c -0.0833,-0.27 -0.0918,-0.42989 -0.0234,-0.47656 z m -3.37695,1.03516 -1.57031,0.33008 a 1.01,1.01 0 0 0 -0.7793,0.79101 c -0.32,1.7 0.20984,2.32558 1.58984,1.87891 a 0.22,0.22 0 0 1 0.2793,0.21094 v 0.27929 a 0.26,0.26 0 0 1 -0.28906,0.25977 c -0.8,-0.0733 -1.35349,0.26505 -1.66016,1.01172 -1.88,0.96 -3.58914,0.41929 -5.11914,0.52929 -1.22,0.08 -2.45451,0.18698 -3.70117,0.32032 a 1,1 0 0 0 -0.78907,1.44922 c 0.40001,0.76666 1.17365,1.01356 2.32032,0.74023 a 0.99,0.99 0 0 0 0.75,-0.80078 c 0.20666,-1.19333 0.44541,-1.37859 0.71875,-0.5586 a 1.09,1.13 41.9 0 1 0.0195,0.54883 c -0.20667,0.84 0.22745,1.09815 1.30078,0.77149 l 0.75,0.32812 c 0.40667,0.94 0.90047,1.03459 1.48047,0.28125 1.19,-1.54 -0.0205,-3.09937 3.01953,-3.35937 3.30667,0.0267 4.23573,-1.46404 2.78906,-4.47071 a 1,1.01 71.3 0 0 -1.10937,-0.54101 z m -66.46875,0.60351 c -0.38375,0.065 -0.36164,0.34766 0.0684,0.84766 0.16667,0.2 0.35698,0.32557 0.57031,0.37891 a 0.64,0.64 0 0 1 0.41016,0.93164 c -0.30667,0.56 -0.54232,1.15263 -0.70898,1.77929 -0.61334,2.38 -0.14823,2.61566 1.39843,0.70899 2.19334,-2.71333 1.78793,-4.25867 -1.21875,-4.63867 -0.21833,-0.0267 -0.39161,-0.0295 -0.51953,-0.008 z m 32.88867,0.86329 c -8.56055,0.33339 -16.73633,4.77304 -9.04883,10.40429 6.19333,4.53334 12.59875,4.53334 19.21875,0 2.79333,-1.92 3.56388,-3.89945 2.31055,-5.93945 -2.07,-3.38625 -7.34414,-4.66488 -12.48047,-4.46484 z m 19.29492,1.28125 c 0.13667,-0.0217 0.23182,0.0732 0.28516,0.2832 a 0.81,0.8 57.8 0 1 -0.16016,0.73047 c -3.99,4.61 2.38961,6.09859 1.84961,6.80859 a 0.31,0.32 26.1 0 1 -0.33984,0.12109 c -4.68667,-1.26666 -5.40993,-3.77791 -2.16992,-7.53124 0.22,-0.25334 0.39848,-0.39045 0.53515,-0.41211 z m -19.5293,0.29687 c 2.80667,-0.11 5.61073,0.55919 8.41407,2.00586 2.53,1.3 2.39062,3.51953 0.39062,5.26953 -3.94,3.46 -8.51403,4.06388 -13.7207,1.81055 -2.69333,-1.16667 -4.02667,-3.02365 -4,-5.57031 a 1.01,0.99 75.8 0 1 0.49023,-0.84961 c 2.81,-1.66667 5.61912,-2.55602 8.42578,-2.66602 z m -7.86718,0.98633 a 0.21,0.44 59.9 0 1 0.1914,0.0801 l 0.0606,0.18945 a 0.16,0.18 59.8 0 1 -0.0606,0.18945 c -2.38666,1.84667 -2.49674,3.91761 -0.33007,6.21094 1.35,1.43 0.27085,1.05055 -0.36915,0.56055 -3.34666,-2.59334 -3.28697,-4.96466 0.17969,-7.11133 a 0.21,0.44 59.9 0 1 0.32813,-0.11914 z m -20.45313,0.99023 a 1.01,1 29.8 0 0 -0.63476,0.51953 c -0.3,0.61334 -0.45427,1.25636 -0.46094,1.92969 -0.007,1.37334 0.53443,1.63768 1.62109,0.79102 0.9,-0.7 1.86396,-0.60117 2.89063,0.29883 a 1,1 0 0 0 1.50976,-0.23047 l 1.08008,-1.74024 a 0.01,0.36 33.2 0 1 0.19922,-0.28904 l 0.26953,0.0898 a 0.42,0.41 15.1 0 1 0.26953,0.46094 c -0.2,1.11333 0.0911,1.48271 0.8711,1.10938 a 1.01,1 68.9 0 0 0.52929,-1.19922 l -0.27929,-0.90039 a 1,1 0 0 0 -1.17969,-0.67969 c -1,0.23333 -1.9969,0.20659 -2.99024,-0.0801 a 1.01,1.02 39.1 0 0 -0.75,0.0801 c -0.76666,0.40667 -1.47752,0.39542 -2.13085,-0.0312 a 1.01,1 29.8 0 0 -0.81446,-0.12891 z m 26.01758,0.625 -1.09961,0.008 c -0.68694,0.005 -1.23742,0.5611 -1.23242,1.24804 l 0.0195,2.66016 c 0.005,0.68695 0.5611,1.23742 1.24805,1.23242 l 1.09961,-0.008 c 0.68694,-0.005 1.23742,-0.56306 1.23242,-1.25 l -0.0195,-2.65821 c -0.005,-0.68695 -0.5611,-1.23742 -1.24805,-1.23242 z m 33.6582,0.31446 a 0.64,0.63 58.3 0 0 -0.55078,0.1289 c -0.65333,0.54 -0.75411,1.0842 -0.30078,1.63086 a 0.64,0.63 45.8 0 0 0.9707,0.0195 c 0.42,-0.46666 0.52698,-0.93682 0.32032,-1.41015 a 0.64,0.63 58.3 0 0 -0.43946,-0.36914 z m -30.09765,1.64843 c -1.67412,-0.40537 -0.2743,3.18235 0.62695,2.90235 h 0.25 c 0.98,0.35333 1.89667,0.27 2.75,-0.25 h 0.5 c 0.74667,0.12666 1.28271,-0.0451 1.60938,-0.51172 0.68,-0.96667 0.43,-1.48836 -0.75,-1.56836 l -1.89844,-0.13084 h -2.17188 c -0.375,-0.24375 -0.67685,-0.3835 -0.91601,-0.44141 z m 29.85156,5.74024 c -0.59588,0.007 -1.18063,0.0566 -1.73438,0.15039 -6.38,1.07333 -11.1207,4.29659 -14.2207,9.66992 a 0.97,0.95 53.2 0 0 -0.0996,0.75 c 2.41,9.17 21.78922,3.72109 23.69922,-3.62891 1.26,-4.865 -3.47338,-6.98884 -7.64453,-6.9414 z m -61.53515,0.29101 c -2.89,0.07 -5.30016,1.49024 -6.16016,4.24024 -2.689998,8.57 12.10132,11.77984 17.86132,10.33984 3.57001,-0.89 5.70946,-3.89937 2.93946,-7.10937 -3.89,-4.52 -8.51063,-7.62071 -14.64062,-7.47071 z m 61.81054,1.21877 c 1.6613,0.0688 3.18031,0.66282 4.32031,1.99219 1.78,2.07 1.02914,4.47828 -0.88086,6.23828 -3.98666,3.66 -8.63588,4.67125 -13.94922,3.03125 -6.57312,-2.02312 3.3108,-11.55987 10.50977,-11.26172 z m -59.89062,0.53711 c 7.66016,0.41692 17.39851,9.94321 7.90039,11.67383 -4.02,0.73333 -7.68357,-0.12364 -10.99023,-2.57031 -2.58,-1.91 -4.61914,-5.20852 -1.61914,-7.72852 1.28437,-1.08187 2.94125,-1.47121 4.70898,-1.375 z m 0.44726,2.90039 a 0.54,0.54 0 0 0 -0.51758,0.42383 l -0.13867,0.63086 a 0.54,0.54 0 0 1 -0.66992,0.39844 l -0.62109,-0.16992 a 0.54,0.54 0 0 0 -0.50977,0.91015 l 0.4707,0.44141 a 0.54,0.54 0 0 1 0.0195,0.7793 l -0.45898,0.45898 a 0.54,0.54 0 0 0 0.5293,0.90039 l 0.61914,-0.19922 a 0.54,0.54 0 0 1 0.68164,0.37891 l 0.16992,0.63086 a 0.54,0.54 0 0 0 1.04883,-0.0195 l 0.14062,-0.63086 a 0.54,0.54 0 0 1 0.66992,-0.40039 l 0.61915,0.16992 a 0.54,0.54 0 0 0 0.50976,-0.91016 l -0.46875,-0.43945 a 0.54,0.54 0 0 1 -0.0195,-0.7793 l 0.45898,-0.46093 a 0.54,0.54 0 0 0 -0.52929,-0.89844 l -0.6211,0.19922 a 0.54,0.54 0 0 1 -0.67968,-0.38086 l -0.16993,-0.62891 a 0.54,0.54 0 0 0 -0.5332,-0.4043 z m 60.33398,0.004 a 0.76,0.8 43.7 0 0 -0.67968,0.0293 l -0.22071,0.11132 a 0.99,1.01 42.9 0 1 -0.83007,0.0391 c -0.75334,-0.3 -1.4231,-0.14263 -2.00977,0.4707 a 0.95,1.01 70.3 0 0 -0.25977,0.50977 l -0.29101,1.58007 a 1.02,1 26.5 0 0 0.32031,0.92969 c 0.46667,0.41334 0.87094,0.44628 1.21094,0.0996 a 0.79,0.79 0 0 1 0.92969,-0.15039 c 1.25333,0.62667 1.89325,0.1976 1.91992,-1.28906 a 0.99,1.01 68.5 0 1 0.33008,-0.74024 c 0.72,-0.63333 0.58007,-1.16317 -0.41993,-1.58984 z m -31.59374,0.1582 c -2.15782,0.002 -4.33711,0.34625 -6.53711,1.03125 -5.4,1.67 -8.20977,6.34086 -2.00977,10.13086 5.4,3.3 18.09945,3.97875 20.93945,-3.53125 0.8,-2.12 0.20737,-3.71883 -1.77929,-4.79883 -3.47917,-1.89166 -7.01693,-2.83619 -10.61328,-2.83203 z m 29.77343,0.96875 c 0.16735,-0.12968 0.32539,-0.0316 0.40039,0.52344 a 0.81,0.8 59.9 0 1 -0.16015,0.60938 c -1.3275,1.695 -0.74227,-0.74375 -0.24024,-1.13282 z m -11.10937,0.15235 c 0.26,0.1 0.24875,0.31086 -0.0312,0.63086 -2.61334,2.98 -2.14318,5.2331 1.41015,6.75976 0.48,0.21 0.58,0.71938 0,0.60938 -0.40666,-0.08 -0.79349,-0.20867 -1.16015,-0.38868 -1.34667,-0.64666 -2.31992,-1.28039 -2.91992,-1.90039 -1.7,-1.77 1.05937,-4.45062 2.35937,-5.64062 a 0.33,0.33 0 0 1 0.3418,-0.0703 z m -19.23047,0.64843 c 3.00333,-0.175 6.02193,0.48886 9.05859,1.99219 1.85334,0.91334 2.13823,2.26412 0.85156,4.05078 -4.63,6.43 -15.2507,5.49008 -19.2207,-1.66992 a 0.99,1 59.7 0 1 -0.0762,-0.60742 c -0.28037,1.25048 0.12155,2.49943 1.2168,3.74609 0.43333,0.14 0.63294,0.37141 0.59961,0.69141 -0.04,0.32667 -0.18302,0.38325 -0.42969,0.16992 -1.32,-1.11333 -2.07,-1.94667 -2.25,-2.5 -0.58,-1.76667 -0.3331,-3.04651 0.74023,-3.83984 1.05334,-0.78 1.25295,-0.60404 0.59961,0.52929 -0.1707,0.29605 -0.25781,0.5909 -0.35156,0.88672 a 0.99,1 59.7 0 1 0.30078,-0.40625 c 2.97,-1.85333 5.95761,-2.86797 8.96094,-3.04297 z m -9.26172,3.44922 a 0.99,1 59.7 0 0 -0.125,0.31641 c 0.0237,-0.10548 0.0916,-0.2109 0.125,-0.31641 z M 147.84,229.28386 c 0.14834,-0.0833 0.57964,0.33586 1.29297,1.25586 1.1,1.42 0.79961,2.94674 -0.90039,4.58007 -0.0733,0.0733 -0.15977,0.059 -0.25977,-0.041 a 0.33,0.32 36.4 0 1 -0.0605,-0.37891 c 0.66666,-1.28666 0.77674,-2.50682 0.33008,-3.66015 -0.41667,-1.08667 -0.55068,-1.67253 -0.40235,-1.75586 z m -33.27148,0.63867 a 1,1 0 0 0 -0.7461,0.39648 c -0.38666,0.52 -0.38666,1.04365 0,1.57032 a 1,1.01 51.4 0 0 1.45899,0.16015 c 0.65333,-0.56 0.67698,-1.16388 0.0703,-1.81054 a 1,1 0 0 0 -0.7832,-0.31641 z m 19.86914,0.55859 a 2.1,2.66 1.4 0 0 -2.16406,2.60742 2.1,2.66 1.4 0 0 2.0332,2.71094 2.1,2.66 1.4 0 0 2.16406,-2.60937 2.1,2.66 1.4 0 0 -2.0332,-2.70899 z m 26.46484,0.25782 c -1.1,-0.0933 -1.27286,0.26674 -0.51953,1.08007 0.60667,0.64667 1.11287,0.62302 1.51953,-0.0703 a 0.64,0.64 0 0 0 -0.5,-0.95898 z m -26.45117,1.27148 a 0.4,0.4 0 0 1 0.36133,0.42969 c -0.28,4.1 -1.55133,-0.56969 -0.36133,-0.42969 z m 5.16992,1.94922 a 1.01,1 18.1 0 0 -1.14844,0.58008 l -0.11132,0.26953 a 0.41,0.41 0 0 0 0.38086,0.57022 h 1.3789 c 3.36667,0 3.42016,-0.41977 0.16016,-1.25977 -0.20667,-0.0533 -0.42682,-0.10682 -0.66016,-0.16015 z"
       style="fill:#e6e6e6;fill-opacity:0.807843;stroke:none" />
  </g>
</svg>
