<?xml version="1.0" encoding="UTF-8" standalone="no"?>
<svg xmlns="http://www.w3.org/2000/svg" version="1.2" baseProfile="tiny" viewBox="0 0 1024 1024">
<path fill="none" stroke-width="1.00" stroke="#f4f4f4" vector-effect="non-scaling-stroke" d="
  M 355.25 753.98
  L 349.05 753.63
  L 343.07 752.58
  L 337.37 750.88
  L 331.99 748.54
  L 327.01 745.60
  L 322.47 742.07
  L 318.44 737.99
  L 314.97 733.38
  L 314.97 733.38
  L 314.97 733.38
  L 314.97 733.38
  L 312.45 728.95
  L 310.43 724.15
  L 308.16 714.17
  L 307.99 694.18
  L 308.00 434.73
  L 308.00 305.00
  L 308.43 300.38
  L 309.65 295.84
  L 311.72 291.20
  L 314.46 286.83
  L 317.93 282.64
  L 321.88 278.93
  L 326.18 275.80
  L 330.71 273.36
  L 336.04 271.53
  L 342.47 270.39
  L 350.27 269.88
  L 360.77 269.93
  L 360.77 269.93
  L 360.77 269.93
  L 366.88 270.01
  L 709.25 270.05
  L 711.98 270.49
  L 714.18 271.65
  L 715.66 273.36
  L 716.21 275.40
  L 716.21 275.40
  L 715.53 277.83
  L 713.20 280.16
  L 704.33 287.61
  L 697.68 296.17
  L 695.21 300.84
  L 693.35 305.75
  L 692.22 310.60
  L 691.75 315.61
  L 691.75 315.61
  L 691.75 315.61
  L 691.77 318.14
  L 692.58 324.67
  L 694.38 330.90
  L 694.38 330.90
  L 697.67 337.66
  L 702.13 343.71
  L 707.66 348.90
  L 714.18 353.06
  L 715.54 354.28
  L 716.00 356.05
  L 716.00 743.91
  L 715.80 750.06
  L 715.03 751.68
  L 713.58 752.90
  L 711.69 753.57
  L 705.56 753.84
  L 705.56 753.84
  L 703.19 753.80
  L 696.68 753.99
  L 355.25 753.98
  Z
  M 317.88 324.46
  L 318.39 327.73
  L 318.39 327.73
  L 320.32 332.67
  L 323.42 337.01
  L 327.68 340.94
  L 333.29 344.55
  L 340.13 347.68
  L 347.87 350.11
  L 355.71 351.64
  L 363.25 352.19
  L 693.98 351.99
  L 694.83 351.72
  L 694.48 350.90
  L 688.90 343.23
  L 684.86 335.08
  L 682.31 326.34
  L 681.39 317.42
  L 681.39 317.42
  L 682.23 307.83
  L 684.94 298.46
  L 689.35 289.76
  L 695.51 281.66
  L 695.76 281.11
  L 695.19 280.94
  L 572.82 280.68
  L 525.47 280.68
  L 463.56 280.48
  L 443.57 280.44
  L 346.67 280.96
  L 342.01 281.24
  L 337.64 282.15
  L 333.58 283.67
  L 329.88 285.81
  L 329.88 285.81
  L 325.24 289.96
  L 321.50 295.38
  L 319.33 300.73
  L 318.01 307.23
  L 317.53 315.08
  L 317.88 324.46
  Z
  M 318.07 707.50
  L 319.06 716.23
  L 321.87 724.12
  L 326.50 731.16
  L 332.63 736.81
  L 332.63 736.81
  L 338.01 739.96
  L 343.99 742.10
  L 350.18 743.13
  L 356.75 743.07
  L 357.64 742.63
  L 358.00 741.70
  L 358.00 363.01
  L 357.03 361.94
  L 347.15 360.45
  L 338.29 357.99
  L 330.01 354.41
  L 322.80 349.90
  L 318.95 346.80
  L 318.24 346.50
  L 318.00 347.25
  L 318.07 707.50
  Z
  M 453.57 743.24
  L 457.26 742.98
  L 463.00 743.51
  L 463.06 743.52
  L 463.12 743.51
  L 469.78 743.04
  L 475.04 743.85
  L 475.84 743.63
  L 477.02 743.01
  L 477.94 743.61
  L 478.69 743.81
  L 479.38 743.34
  L 480.23 742.99
  L 488.94 743.02
  L 489.80 743.38
  L 491.21 743.99
  L 492.38 743.39
  L 493.22 742.92
  L 495.42 743.22
  L 496.09 743.65
  L 496.88 743.74
  L 497.25 743.41
  L 498.07 743.02
  L 502.82 742.97
  L 503.54 743.40
  L 504.24 743.97
  L 505.19 743.54
  L 505.91 743.50
  L 507.15 743.93
  L 508.21 743.37
  L 509.04 743.00
  L 516.81 742.98
  L 517.60 743.39
  L 518.49 743.93
  L 519.39 743.36
  L 520.17 742.98
  L 522.83 742.99
  L 523.61 743.38
  L 524.48 743.93
  L 525.40 743.36
  L 526.19 742.97
  L 529.82 742.98
  L 530.60 743.38
  L 531.48 743.93
  L 532.40 743.35
  L 533.17 742.98
  L 535.83 742.99
  L 536.62 743.38
  L 537.48 743.93
  L 538.39 743.37
  L 539.17 742.92
  L 540.44 743.18
  L 541.21 743.75
  L 541.78 743.81
  L 542.07 743.57
  L 542.92 743.10
  L 546.25 742.91
  L 549.84 743.85
  L 550.65 743.73
  L 551.30 743.32
  L 552.81 742.95
  L 553.60 743.35
  L 554.52 743.92
  L 555.25 743.45
  L 556.03 743.03
  L 560.81 742.98
  L 561.61 743.39
  L 562.49 743.93
  L 563.39 743.37
  L 564.17 742.92
  L 565.46 743.19
  L 566.13 743.66
  L 566.87 743.75
  L 567.25 743.40
  L 568.06 743.02
  L 581.95 743.01
  L 582.72 743.44
  L 583.47 743.94
  L 584.29 743.41
  L 585.06 743.00
  L 705.51 743.00
  L 706.00 742.51
  L 706.00 364.29
  L 705.43 362.58
  L 703.71 362.01
  L 369.80 362.00
  L 368.53 362.53
  L 368.00 363.81
  L 368.00 540.94
  L 368.36 541.78
  L 368.66 542.49
  L 368.37 543.16
  L 368.00 544.00
  L 368.00 742.51
  L 368.49 743.00
  L 434.76 742.99
  L 435.57 743.39
  L 436.54 743.93
  L 437.23 743.53
  L 438.01 743.04
  L 441.94 743.00
  L 444.80 743.80
  L 445.66 743.71
  L 447.50 743.03
  L 449.65 743.45
  L 450.56 743.53
  L 451.19 743.37
  L 452.01 743.62
  L 452.50 743.81
  L 452.76 743.70
  L 453.57 743.24
  Z"
/>
<path fill="none" stroke-width="1.00" stroke="#f4f4f4" vector-effect="non-scaling-stroke" d="
  M 336.22 335.02
  L 334.36 333.41
  L 330.10 327.89
  L 327.60 321.46
  L 326.91 314.57
  L 328.10 307.65
  L 330.35 302.48
  L 333.44 298.30
  L 333.44 298.30
  L 337.91 294.62
  L 343.17 292.08
  L 349.27 290.54
  L 356.44 290.00
  L 670.00 290.06
  L 673.92 290.32
  L 675.94 290.66
  L 676.72 291.17
  L 678.03 294.10
  L 677.88 296.62
  L 676.45 299.13
  L 673.42 302.15
  L 673.42 302.15
  L 669.56 306.32
  L 667.80 309.96
  L 666.88 313.53
  L 666.88 313.53
  L 666.78 318.02
  L 667.87 323.00
  L 670.08 328.17
  L 673.57 334.11
  L 673.82 335.02
  L 673.36 337.40
  L 672.28 339.17
  L 672.28 339.17
  L 672.28 339.17
  L 670.08 340.53
  L 666.94 340.98
  L 354.50 341.23
  L 349.17 340.79
  L 344.17 339.46
  L 344.17 339.46
  L 340.07 337.58
  L 336.22 335.02
  Z
  M 344.43 303.20
  L 344.24 303.80
  L 344.84 304.00
  L 658.69 304.00
  L 659.49 303.59
  L 660.51 301.34
  L 660.55 298.49
  L 659.94 298.00
  L 355.39 298.00
  L 351.63 298.34
  L 348.53 299.44
  L 348.53 299.44
  L 348.53 299.44
  L 346.38 300.99
  L 344.43 303.20
  Z
  M 531.73 311.22
  L 526.21 311.16
  L 517.73 311.41
  L 516.78 311.35
  L 514.75 311.25
  L 485.43 311.07
  L 480.09 311.23
  L 471.60 311.18
  L 466.75 311.09
  L 463.87 311.14
  L 445.60 311.24
  L 434.56 311.27
  L 385.33 311.22
  L 339.12 311.13
  L 338.03 311.47
  L 337.33 312.37
  L 336.91 315.50
  L 337.56 317.56
  L 338.31 318.00
  L 655.44 318.00
  L 656.26 317.63
  L 656.74 316.81
  L 656.74 316.81
  L 657.09 314.75
  L 656.53 312.29
  L 655.78 311.35
  L 654.62 310.99
  L 585.66 310.96
  L 576.07 311.11
  L 560.00 311.22
  L 551.32 311.25
  L 540.33 311.18
  L 536.36 311.07
  L 531.73 311.22
  Z
  M 343.32 326.86
  L 346.32 329.85
  L 349.32 331.48
  L 353.00 332.06
  L 398.60 332.18
  L 448.69 332.25
  L 500.59 332.31
  L 504.56 332.37
  L 512.19 332.28
  L 520.30 332.18
  L 548.00 332.31
  L 572.15 332.40
  L 575.36 332.26
  L 582.32 332.31
  L 585.26 332.18
  L 587.01 331.99
  L 657.83 331.98
  L 658.56 331.54
  L 659.13 329.33
  L 658.64 326.46
  L 657.94 326.01
  L 343.73 326.00
  L 343.07 326.22
  L 343.32 326.86
  Z"
/>
<path fill="none" stroke-width="1.00" stroke="#f4f4f4" vector-effect="non-scaling-stroke" d="
  M 412.91 440.15
  L 411.41 436.88
  L 411.56 434.40
  L 411.56 434.40
  L 412.66 432.92
  L 414.42 431.89
  L 419.85 430.99
  L 655.00 431.02
  L 657.65 431.45
  L 659.82 432.62
  L 661.30 434.33
  L 661.88 436.40
  L 661.88 436.40
  L 661.33 438.64
  L 659.43 440.86
  L 658.55 441.21
  L 644.56 441.91
  L 423.25 441.98
  L 418.00 441.67
  L 413.66 440.72
  L 412.91 440.15
  Z"
/>
<path fill="none" stroke-width="1.00" stroke="#f4f4f4" vector-effect="non-scaling-stroke" d="
  M 417.44 490.82
  L 414.41 490.42
  L 412.51 489.22
  L 412.51 489.22
  L 411.64 487.04
  L 411.80 483.87
  L 412.90 481.72
  L 415.22 481.00
  L 657.92 481.00
  L 660.39 481.77
  L 661.57 484.08
  L 661.65 486.89
  L 660.83 488.88
  L 660.83 488.88
  L 658.41 490.47
  L 654.77 490.94
  L 417.44 490.82
  Z"
/>
<rect fill="none" stroke-width="1.00" stroke="#f4f4f4" vector-effect="non-scaling-stroke" x="409.05" y="530.01" width="143.86" height="10.26" rx="5.02"/>
</svg>
